# Test pipe set: two straight pipes and one 90-degree bend
s off

o PipeStraightShort
v 0.150000 0.150000 0.000000
v -0.150000 0.150000 0.000000
v -0.150000 -0.150000 0.000000
v 0.150000 -0.150000 0.000000
v 0.150000 0.150000 1.500000
v -0.150000 0.150000 1.500000
v -0.150000 -0.150000 1.500000
v 0.150000 -0.150000 1.500000
vt 0.000000 0.000000
vt 0.333333 0.000000
vt 0.666667 0.000000
vt 1.000000 0.000000
vt 0.000000 1.000000
vt 0.333333 1.000000
vt 0.666667 1.000000
vt 1.000000 1.000000
vn 0.707107 0.707107 0.000000
vn -0.707107 0.707107 0.000000
vn -0.707107 -0.707107 0.000000
vn 0.707107 -0.707107 0.000000
vn 0.707107 0.707107 0.000000
vn -0.707107 0.707107 0.000000
vn -0.707107 -0.707107 0.000000
vn 0.707107 -0.707107 0.000000
f 1/1/1 2/2/2 6/6/6
f 1/1/1 6/6/6 5/5/5
f 2/2/2 3/3/3 7/7/7
f 2/2/2 7/7/7 6/6/6
f 3/3/3 4/4/4 8/8/8
f 3/3/3 8/8/8 7/7/7
f 4/4/4 1/1/1 5/5/5
f 4/4/4 5/5/5 8/8/8

o PipeStraightLong
v 0.180000 0.180000 0.000000
v -0.180000 0.180000 0.000000
v -0.180000 -0.180000 0.000000
v 0.180000 -0.180000 0.000000
v 0.180000 0.180000 3.000000
v -0.180000 0.180000 3.000000
v -0.180000 -0.180000 3.000000
v 0.180000 -0.180000 3.000000
vt 0.000000 0.000000
vt 0.333333 0.000000
vt 0.666667 0.000000
vt 1.000000 0.000000
vt 0.000000 1.000000
vt 0.333333 1.000000
vt 0.666667 1.000000
vt 1.000000 1.000000
vn 0.707107 0.707107 0.000000
vn -0.707107 0.707107 0.000000
vn -0.707107 -0.707107 0.000000
vn 0.707107 -0.707107 0.000000
vn 0.707107 0.707107 0.000000
vn -0.707107 0.707107 0.000000
vn -0.707107 -0.707107 0.000000
vn 0.707107 -0.707107 0.000000
f 9/9/9 10/10/10 14/14/14
f 9/9/9 14/14/14 13/13/13
f 10/10/10 11/11/11 15/15/15
f 10/10/10 15/15/15 14/14/14
f 11/11/11 12/12/12 16/16/16
f 11/11/11 16/16/16 15/15/15
f 12/12/12 9/9/9 13/13/13
f 12/12/12 13/13/13 16/16/16

o PipeBend90
v 1.750000 0.150000 0.000000
v 1.450000 0.150000 0.000000
v 1.450000 -0.150000 0.000000
v 1.750000 -0.150000 0.000000
v 1.515545 0.150000 0.875000
v 1.255737 0.150000 0.725000
v 1.255737 -0.150000 0.725000
v 1.515545 -0.150000 0.875000
v 0.875000 0.150000 1.515545
v 0.725000 0.150000 1.255737
v 0.725000 -0.150000 1.255737
v 0.875000 -0.150000 1.515545
v 0.000000 0.150000 1.750000
v 0.000000 0.150000 1.450000
v 0.000000 -0.150000 1.450000
v 0.000000 -0.150000 1.750000
vt 0.000000 0.000000
vt 0.333333 0.000000
vt 0.666667 0.000000
vt 1.000000 0.000000
vt 0.000000 0.333333
vt 0.333333 0.333333
vt 0.666667 0.333333
vt 1.000000 0.333333
vt 0.000000 0.666667
vt 0.333333 0.666667
vt 0.666667 0.666667
vt 1.000000 0.666667
vt 0.000000 1.000000
vt 0.333333 1.000000
vt 0.666667 1.000000
vt 1.000000 1.000000
vn 0.707107 0.707107 0.000000
vn -0.707107 0.707107 0.000000
vn -0.707107 -0.707107 0.000000
vn 0.707107 -0.707107 0.000000
vn 0.612372 0.707107 0.353553
vn -0.612372 0.707107 -0.353553
vn -0.612372 -0.707107 -0.353553
vn 0.612372 -0.707107 0.353553
vn 0.353553 0.707107 0.612372
vn -0.353553 0.707107 -0.612372
vn -0.353553 -0.707107 -0.612372
vn 0.353553 -0.707107 0.612372
vn 0.000000 0.707107 0.707107
vn 0.000000 0.707107 -0.707107
vn 0.000000 -0.707107 -0.707107
vn 0.000000 -0.707107 0.707107
f 17/17/17 18/18/18 22/22/22
f 17/17/17 22/22/22 21/21/21
f 18/18/18 19/19/19 23/23/23
f 18/18/18 23/23/23 22/22/22
f 19/19/19 20/20/20 24/24/24
f 19/19/19 24/24/24 23/23/23
f 20/20/20 17/17/17 21/21/21
f 20/20/20 21/21/21 24/24/24
f 21/21/21 22/22/22 26/26/26
f 21/21/21 26/26/26 25/25/25
f 22/22/22 23/23/23 27/27/27
f 22/22/22 27/27/27 26/26/26
f 23/23/23 24/24/24 28/28/28
f 23/23/23 28/28/28 27/27/27
f 24/24/24 21/21/21 25/25/25
f 24/24/24 25/25/25 28/28/28
f 25/25/25 26/26/26 30/30/30
f 25/25/25 30/30/30 29/29/29
f 26/26/26 27/27/27 31/31/31
f 26/26/26 31/31/31 30/30/30
f 27/27/27 28/28/28 32/32/32
f 27/27/27 32/32/32 31/31/31
f 28/28/28 25/25/25 29/29/29
f 28/28/28 29/29/29 32/32/32
