<svg xmlns="http://www.w3.org/2000/svg" width="430" height="134" viewBox="0 0 430 134" fill="none">
<defs>
  <linearGradient id="waterGrad" x1="0" y1="0" x2="1" y2="1">
    <stop offset="0%" stop-color="#ffffff"/>
    <stop offset="48%" stop-color="#73d8ff"/>
    <stop offset="100%" stop-color="#19aee7"/>
  </linearGradient>
  <linearGradient id="waterLine" x1="0" y1="0" x2="1" y2="0">
    <stop offset="0%" stop-color="#73d8ff"/>
    <stop offset="58%" stop-color="#19aee7"/>
    <stop offset="100%" stop-color="#0b6f9f"/>
  </linearGradient>
  <filter id="shadowSoft" x="-18%" y="-22%" width="136%" height="148%">
    <feDropShadow dx="0" dy="10" stdDeviation="14" flood-color="#75aec8" flood-opacity="0.22"/>
  </filter>
  <filter id="shadowTight" x="-18%" y="-28%" width="136%" height="156%">
    <feDropShadow dx="0" dy="4" stdDeviation="6" flood-color="#75aec8" flood-opacity="0.20"/>
  </filter>
  
</defs>
<rect x="8" y="8" width="414" height="118" rx="30" fill="#ffffff" fill-opacity="0.62" stroke="#94d4ee" stroke-width="2.5" filter="url(#shadowSoft)"/>
<rect x="24" y="24" width="382" height="86" rx="20" fill="#fbfeff" fill-opacity="0.50" stroke="#c8ecf9" stroke-width="1.5"/>
<g transform="translate(42,34)">
  <clipPath id="clipKeyHintK"><rect x="0" y="0" width="72" height="58" rx="18"/></clipPath>
  <rect x="0" y="0" width="72" height="58" rx="18" fill="#ffffff" fill-opacity="0.90" stroke="#94d4ee" stroke-width="2" filter="url(#shadowTight)"/>
  <g clip-path="url(#clipKeyHintK)">
    <path d="M -8 40 Q 13 37 34 40 Q 55 43 76 40 Q 80 37 80 40 L 80 58 L -8 58 Z" fill="url(#waterGrad)" opacity="0.88"/>
    <path d="M 10 39 Q 31 36 52 39 Q 62 42 62 39" stroke="#ffffff" stroke-width="3" stroke-linecap="round" fill="none" opacity="0.70"/>
    <path d="M 10 45 Q 31 43 52 45 Q 62 47 62 45" stroke="#0b6f9f" stroke-width="1.5" stroke-linecap="round" fill="none" opacity="0.16"/>
  </g>
  <text x="36.0" y="39.0" text-anchor="middle" font-family="Arial, sans-serif" font-size="32" fill="#0b6f9f" font-weight="800">K</text>
</g>
<text x="138" y="64" font-family="Arial, sans-serif" font-size="25" fill="#0b6f9f" font-weight="800">Показать подсказки</text>
<text x="138" y="91" font-family="Arial, sans-serif" font-size="17" fill="#5f8498" font-weight="700">открывает меню горячих клавиш</text>
</svg>
