<svg xmlns="http://www.w3.org/2000/svg" width="180" height="190" viewBox="0 0 180 190" fill="none">
<defs>
  <linearGradient id="waterGrad" x1="0" y1="0" x2="1" y2="1">
    <stop offset="0%" stop-color="#ffffff"/>
    <stop offset="48%" stop-color="#73d8ff"/>
    <stop offset="100%" stop-color="#19aee7"/>
  </linearGradient>
  <linearGradient id="waterLine" x1="0" y1="0" x2="1" y2="0">
    <stop offset="0%" stop-color="#73d8ff"/>
    <stop offset="58%" stop-color="#19aee7"/>
    <stop offset="100%" stop-color="#0b6f9f"/>
  </linearGradient>
  <filter id="shadowSoft" x="-18%" y="-22%" width="136%" height="148%">
    <feDropShadow dx="0" dy="10" stdDeviation="14" flood-color="#75aec8" flood-opacity="0.22"/>
  </filter>
  <filter id="shadowTight" x="-18%" y="-28%" width="136%" height="156%">
    <feDropShadow dx="0" dy="4" stdDeviation="6" flood-color="#75aec8" flood-opacity="0.20"/>
  </filter>
  
</defs>
<rect x="6" y="6" width="168" height="178" rx="32" fill="#ffffff" fill-opacity="0.72" stroke="#c8ecf9" stroke-width="2" filter="url(#shadowSoft)"/>
<clipPath id="clipMouseWater"><path d="M 88 30 C 58 30 42 54 42 88 L 42 102 C 42 140 60 160 88 160 C 116 160 134 140 134 102 L 134 88 C 134 54 118 30 88 30 Z"/></clipPath>
<path d="M 88 30 C 58 30 42 54 42 88 L 42 102 C 42 140 60 160 88 160 C 116 160 134 140 134 102 L 134 88 C 134 54 118 30 88 30 Z" fill="#fbfeff" stroke="#94d4ee" stroke-width="2.5"/>
<path d="M 88 32 L 88 76" stroke="#c8ecf9" stroke-width="2"/>
<rect x="80" y="48" width="16" height="34" rx="8" fill="#ffffff" stroke="#19aee7" stroke-width="2"/>
<g clip-path="url(#clipMouseWater)">
  <path d="M 48 116 Q 69 112 90 116 Q 111 120 128 116 L 128 160 L 48 160 Z" fill="url(#waterGrad)" opacity="0.86"/>
  <path d="M 54 115 Q 75 112 96 115 Q 117 118 122 115" stroke="#ffffff" stroke-width="3" stroke-linecap="round" fill="none" opacity="0.70"/>
</g>
<text x="88" y="170" text-anchor="middle" font-family="Arial, sans-serif" font-size="15" fill="#5f8498" font-weight="800">МЫШЬ</text>
</svg>
