<svg xmlns="http://www.w3.org/2000/svg" width="260" height="190" viewBox="0 0 260 190" fill="none">
<defs>
  <linearGradient id="waterGrad" x1="0" y1="0" x2="1" y2="1">
    <stop offset="0%" stop-color="#ffffff"/>
    <stop offset="48%" stop-color="#73d8ff"/>
    <stop offset="100%" stop-color="#19aee7"/>
  </linearGradient>
  <linearGradient id="waterLine" x1="0" y1="0" x2="1" y2="0">
    <stop offset="0%" stop-color="#73d8ff"/>
    <stop offset="58%" stop-color="#19aee7"/>
    <stop offset="100%" stop-color="#0b6f9f"/>
  </linearGradient>
  <filter id="shadowSoft" x="-18%" y="-22%" width="136%" height="148%">
    <feDropShadow dx="0" dy="10" stdDeviation="14" flood-color="#75aec8" flood-opacity="0.22"/>
  </filter>
  <filter id="shadowTight" x="-18%" y="-28%" width="136%" height="156%">
    <feDropShadow dx="0" dy="4" stdDeviation="6" flood-color="#75aec8" flood-opacity="0.20"/>
  </filter>
  
</defs>
<rect x="6" y="6" width="248" height="178" rx="32" fill="#ffffff" fill-opacity="0.72" stroke="#c8ecf9" stroke-width="2" filter="url(#shadowSoft)"/>
<path d="M 32 146 Q 61 142 90 146 Q 119 150 148 146 Q 177 142 206 146 Q 228 150 228 146" stroke="#73d8ff" stroke-width="4" stroke-linecap="round" fill="none" opacity="0.72"/>
<g transform="translate(92,22)">
  <clipPath id="clipKeyWasdW"><rect x="0" y="0" width="68" height="56" rx="18"/></clipPath>
  <rect x="0" y="0" width="68" height="56" rx="18" fill="#ffffff" fill-opacity="0.90" stroke="#94d4ee" stroke-width="2" filter="url(#shadowTight)"/>
  <g clip-path="url(#clipKeyWasdW)">
    <path d="M -8 38 Q 13 35 34 38 Q 55 41 76 38 L 76 56 L -8 56 Z" fill="url(#waterGrad)" opacity="0.88"/>
    <path d="M 10 37 Q 31 34 52 37 Q 58 40 58 37" stroke="#ffffff" stroke-width="3" stroke-linecap="round" fill="none" opacity="0.70"/>
    <path d="M 10 43 Q 31 41 52 43 Q 58 45 58 43" stroke="#0b6f9f" stroke-width="1.5" stroke-linecap="round" fill="none" opacity="0.16"/>
  </g>
  <text x="34.0" y="38.0" text-anchor="middle" font-family="Arial, sans-serif" font-size="32" fill="#0b6f9f" font-weight="800">W</text>
</g>
<g transform="translate(38,88)">
  <clipPath id="clipKeyWasdA"><rect x="0" y="0" width="68" height="56" rx="18"/></clipPath>
  <rect x="0" y="0" width="68" height="56" rx="18" fill="#ffffff" fill-opacity="0.90" stroke="#94d4ee" stroke-width="2" filter="url(#shadowTight)"/>
  <g clip-path="url(#clipKeyWasdA)">
    <path d="M -8 38 Q 13 35 34 38 Q 55 41 76 38 L 76 56 L -8 56 Z" fill="url(#waterGrad)" opacity="0.88"/>
    <path d="M 10 37 Q 31 34 52 37 Q 58 40 58 37" stroke="#ffffff" stroke-width="3" stroke-linecap="round" fill="none" opacity="0.70"/>
    <path d="M 10 43 Q 31 41 52 43 Q 58 45 58 43" stroke="#0b6f9f" stroke-width="1.5" stroke-linecap="round" fill="none" opacity="0.16"/>
  </g>
  <text x="34.0" y="38.0" text-anchor="middle" font-family="Arial, sans-serif" font-size="32" fill="#0b6f9f" font-weight="800">A</text>
</g>
<g transform="translate(110,88)">
  <clipPath id="clipKeyWasdS"><rect x="0" y="0" width="68" height="56" rx="18"/></clipPath>
  <rect x="0" y="0" width="68" height="56" rx="18" fill="#ffffff" fill-opacity="0.90" stroke="#94d4ee" stroke-width="2" filter="url(#shadowTight)"/>
  <g clip-path="url(#clipKeyWasdS)">
    <path d="M -8 38 Q 13 35 34 38 Q 55 41 76 38 L 76 56 L -8 56 Z" fill="url(#waterGrad)" opacity="0.88"/>
    <path d="M 10 37 Q 31 34 52 37 Q 58 40 58 37" stroke="#ffffff" stroke-width="3" stroke-linecap="round" fill="none" opacity="0.70"/>
    <path d="M 10 43 Q 31 41 52 43 Q 58 45 58 43" stroke="#0b6f9f" stroke-width="1.5" stroke-linecap="round" fill="none" opacity="0.16"/>
  </g>
  <text x="34.0" y="38.0" text-anchor="middle" font-family="Arial, sans-serif" font-size="32" fill="#0b6f9f" font-weight="800">S</text>
</g>
<g transform="translate(182,88)">
  <clipPath id="clipKeyWasdD"><rect x="0" y="0" width="68" height="56" rx="18"/></clipPath>
  <rect x="0" y="0" width="68" height="56" rx="18" fill="#ffffff" fill-opacity="0.90" stroke="#94d4ee" stroke-width="2" filter="url(#shadowTight)"/>
  <g clip-path="url(#clipKeyWasdD)">
    <path d="M -8 38 Q 13 35 34 38 Q 55 41 76 38 L 76 56 L -8 56 Z" fill="url(#waterGrad)" opacity="0.88"/>
    <path d="M 10 37 Q 31 34 52 37 Q 58 40 58 37" stroke="#ffffff" stroke-width="3" stroke-linecap="round" fill="none" opacity="0.70"/>
    <path d="M 10 43 Q 31 41 52 43 Q 58 45 58 43" stroke="#0b6f9f" stroke-width="1.5" stroke-linecap="round" fill="none" opacity="0.16"/>
  </g>
  <text x="34.0" y="38.0" text-anchor="middle" font-family="Arial, sans-serif" font-size="32" fill="#0b6f9f" font-weight="800">D</text>
</g>
<text x="130" y="171" text-anchor="middle" font-family="Arial, sans-serif" font-size="15" fill="#5f8498" font-weight="800">ПЕРЕМЕЩЕНИЕ</text>
</svg>
