<svg xmlns="http://www.w3.org/2000/svg" width="620" height="152" viewBox="0 0 620 152" fill="none">
<defs>
  <linearGradient id="waterGrad" x1="0" y1="0" x2="1" y2="1">
    <stop offset="0%" stop-color="#ffffff"/>
    <stop offset="48%" stop-color="#73d8ff"/>
    <stop offset="100%" stop-color="#19aee7"/>
  </linearGradient>
  <linearGradient id="waterLine" x1="0" y1="0" x2="1" y2="0">
    <stop offset="0%" stop-color="#73d8ff"/>
    <stop offset="58%" stop-color="#19aee7"/>
    <stop offset="100%" stop-color="#0b6f9f"/>
  </linearGradient>
  <filter id="shadowSoft" x="-18%" y="-22%" width="136%" height="148%">
    <feDropShadow dx="0" dy="10" stdDeviation="14" flood-color="#75aec8" flood-opacity="0.22"/>
  </filter>
  <filter id="shadowTight" x="-18%" y="-28%" width="136%" height="156%">
    <feDropShadow dx="0" dy="4" stdDeviation="6" flood-color="#75aec8" flood-opacity="0.20"/>
  </filter>
  
</defs>
<rect x="8" y="8" width="604" height="136" rx="30" fill="#ffffff" fill-opacity="0.94" stroke="#94d4ee" stroke-width="2.5" filter="url(#shadowSoft)"/>
<rect x="26" y="26" width="568" height="100" rx="18" fill="#fbfeff" stroke="#c8ecf9" stroke-width="1.5"/>
<g transform="translate(42,30) scale(0.66)">
<rect x="6" y="6" width="116" height="116" rx="30" fill="#ffffff" stroke="#94d4ee" stroke-width="2.5" filter="url(#shadowSoft)"/>
<path d="M 38 38 H 92 C 101 38 108 45 108 54 V 76 C 108 85 101 92 92 92 H 62 L 42 106 V 92 H 38 C 29 92 22 85 22 76 V 54 C 22 45 29 38 38 38 Z" fill="#fbfeff" stroke="#94d4ee" stroke-width="2"/>
<path d="M 34 70 Q 46 65 58 70 Q 70 75 82 70 Q 94 65 96 70" stroke="#19aee7" stroke-width="4" stroke-linecap="round" fill="none"/>
<circle cx="96" cy="32" r="11" fill="#ff8a1f"/>

</g>
<text x="142" y="64" font-family="Arial, sans-serif" font-size="26" fill="#0b6f9f" font-weight="800">Подсказка</text>
<text x="142" y="96" font-family="Arial, sans-serif" font-size="20" fill="#5f8498" font-weight="600">Нажмите K, чтобы открыть меню подсказок</text>
<path d="M 428 104 Q 444 99 460 104 Q 476 109 492 104 Q 508 99 524 104 Q 540 109 556 104" stroke="#73d8ff" stroke-width="5" stroke-linecap="round" fill="none"/>
</svg>
