<svg xmlns="http://www.w3.org/2000/svg" width="680" height="488" viewBox="0 0 680 488" fill="none">
<defs>
  <linearGradient id="waterGrad" x1="0" y1="0" x2="1" y2="1">
    <stop offset="0%" stop-color="#ffffff"/>
    <stop offset="48%" stop-color="#73d8ff"/>
    <stop offset="100%" stop-color="#19aee7"/>
  </linearGradient>
  <linearGradient id="waterLine" x1="0" y1="0" x2="1" y2="0">
    <stop offset="0%" stop-color="#73d8ff"/>
    <stop offset="58%" stop-color="#19aee7"/>
    <stop offset="100%" stop-color="#0b6f9f"/>
  </linearGradient>
  <filter id="shadowSoft" x="-18%" y="-22%" width="136%" height="148%">
    <feDropShadow dx="0" dy="10" stdDeviation="14" flood-color="#75aec8" flood-opacity="0.22"/>
  </filter>
  <filter id="shadowTight" x="-18%" y="-28%" width="136%" height="156%">
    <feDropShadow dx="0" dy="4" stdDeviation="6" flood-color="#75aec8" flood-opacity="0.20"/>
  </filter>
  
</defs>
<rect x="8" y="8" width="664" height="472" rx="34" fill="#ffffff" fill-opacity="0.92" stroke="#94d4ee" stroke-width="2.5" filter="url(#shadowSoft)"/>
<rect x="26" y="26" width="628" height="436" rx="20" stroke="#c8ecf9" stroke-width="1.5"/>
<text x="46" y="70" font-family="Arial, sans-serif" font-size="32" fill="#0b6f9f" font-weight="800">УВЕДОМЛЕНИЯ</text>
<path d="M 394 68 Q 413 62 432 68 Q 451 74 470 68 Q 489 62 508 68 Q 527 74 546 68 Q 565 62 584 68" stroke="#19aee7" stroke-width="5" stroke-linecap="round" fill="none"/>

<rect x="40" y="112" width="600" height="96" rx="24" fill="#fbfeff" stroke="#c8ecf9" stroke-width="1.5"/>
<g transform="translate(58,130) scale(0.48)">
<rect x="6" y="6" width="116" height="116" rx="30" fill="#ffffff" stroke="#94d4ee" stroke-width="2.5" filter="url(#shadowSoft)"/>
<path d="M 38 38 H 92 C 101 38 108 45 108 54 V 76 C 108 85 101 92 92 92 H 62 L 42 106 V 92 H 38 C 29 92 22 85 22 76 V 54 C 22 45 29 38 38 38 Z" fill="#fbfeff" stroke="#94d4ee" stroke-width="2"/>
<path d="M 34 70 Q 46 65 58 70 Q 70 75 82 70 Q 94 65 96 70" stroke="#19aee7" stroke-width="4" stroke-linecap="round" fill="none"/>
<circle cx="96" cy="32" r="11" fill="#ff8a1f"/>

</g>
<text x="136" y="150" font-family="Arial, sans-serif" font-size="24" fill="#0b6f9f" font-weight="800">Новое сообщение</text>
<text x="136" y="180" font-family="Arial, sans-serif" font-size="18" fill="#5f8498" font-weight="600">Параметры потока обновлены</text>

<rect x="40" y="230" width="600" height="96" rx="24" fill="#fbfeff" stroke="#c8ecf9" stroke-width="1.5"/>
<g transform="translate(58,248) scale(0.48)">
<rect x="6" y="6" width="116" height="116" rx="30" fill="#ffffff" stroke="#94d4ee" stroke-width="2.5" filter="url(#shadowSoft)"/>
<path d="M 38 38 H 92 C 101 38 108 45 108 54 V 76 C 108 85 101 92 92 92 H 62 L 42 106 V 92 H 38 C 29 92 22 85 22 76 V 54 C 22 45 29 38 38 38 Z" fill="#fbfeff" stroke="#94d4ee" stroke-width="2"/>
<path d="M 34 70 Q 46 65 58 70 Q 70 75 82 70 Q 94 65 96 70" stroke="#19aee7" stroke-width="4" stroke-linecap="round" fill="none"/>
<circle cx="96" cy="32" r="11" fill="#ff8a1f"/>

</g>
<text x="136" y="268" font-family="Arial, sans-serif" font-size="24" fill="#0b6f9f" font-weight="800">Расчёт готов</text>
<text x="136" y="298" font-family="Arial, sans-serif" font-size="18" fill="#5f8498" font-weight="600">Коэффициент сопротивления пересчитан</text>

<rect x="40" y="348" width="600" height="96" rx="24" fill="#fbfeff" stroke="#c8ecf9" stroke-width="1.5"/>
<g transform="translate(58,366) scale(0.48)">
<rect x="6" y="6" width="116" height="116" rx="30" fill="#ffffff" stroke="#94d4ee" stroke-width="2.5" filter="url(#shadowSoft)"/>
<path d="M 38 38 H 92 C 101 38 108 45 108 54 V 76 C 108 85 101 92 92 92 H 62 L 42 106 V 92 H 38 C 29 92 22 85 22 76 V 54 C 22 45 29 38 38 38 Z" fill="#fbfeff" stroke="#94d4ee" stroke-width="2"/>
<path d="M 34 70 Q 46 65 58 70 Q 70 75 82 70 Q 94 65 96 70" stroke="#19aee7" stroke-width="4" stroke-linecap="round" fill="none"/>
<circle cx="96" cy="32" r="11" fill="#ff8a1f"/>

</g>
<text x="136" y="386" font-family="Arial, sans-serif" font-size="24" fill="#0b6f9f" font-weight="800">Подсказка</text>
<text x="136" y="416" font-family="Arial, sans-serif" font-size="18" fill="#5f8498" font-weight="600">E - взаимодействовать с установкой</text>
</svg>
