<svg xmlns="http://www.w3.org/2000/svg" width="680" height="374" viewBox="0 0 680 374" fill="none">
<defs>
  <linearGradient id="waterGrad" x1="0" y1="0" x2="1" y2="1">
    <stop offset="0%" stop-color="#ffffff"/>
    <stop offset="48%" stop-color="#73d8ff"/>
    <stop offset="100%" stop-color="#19aee7"/>
  </linearGradient>
  <linearGradient id="waterLine" x1="0" y1="0" x2="1" y2="0">
    <stop offset="0%" stop-color="#73d8ff"/>
    <stop offset="58%" stop-color="#19aee7"/>
    <stop offset="100%" stop-color="#0b6f9f"/>
  </linearGradient>
  <filter id="shadowSoft" x="-18%" y="-22%" width="136%" height="148%">
    <feDropShadow dx="0" dy="10" stdDeviation="14" flood-color="#75aec8" flood-opacity="0.22"/>
  </filter>
  <filter id="shadowTight" x="-18%" y="-28%" width="136%" height="156%">
    <feDropShadow dx="0" dy="4" stdDeviation="6" flood-color="#75aec8" flood-opacity="0.20"/>
  </filter>
  
</defs>
<rect x="8" y="8" width="664" height="358" rx="28" fill="#ffffff" stroke="#94d4ee" stroke-width="2.5" filter="url(#shadowTight)"/>
<rect x="28" y="28" width="624" height="56" rx="16" fill="#fbfeff" stroke="#c8ecf9" stroke-width="1.5"/>
<rect x="44" y="42" width="12" height="28" rx="6" fill="url(#waterLine)"/>
<path d="M 602 48 L 622 68 L 642 48" stroke="#19aee7" stroke-width="5" stroke-linecap="round" stroke-linejoin="round"/>
<rect x="28" y="128" width="624" height="56" rx="14" fill="#e5f7ff" stroke="#c8ecf9" stroke-width="1.2"/>
<path d="M 52 158 Q 67 155 82 158 Q 97 161 112 158 Q 127 155 142 158 Q 157 161 172 158 Q 180 155 180 158" stroke="#19aee7" stroke-width="2.5" stroke-linecap="round" fill="none" opacity="0.65"/>
<rect x="28" y="198" width="624" height="56" rx="14" fill="#ffffff" stroke="#c8ecf9" stroke-width="1.2"/>
<path d="M 52 228 Q 67 225 82 228 Q 97 231 112 228 Q 127 225 142 228 Q 157 231 172 228 Q 180 225 180 228" stroke="#19aee7" stroke-width="2.5" stroke-linecap="round" fill="none" opacity="0.65"/>
<rect x="28" y="268" width="624" height="56" rx="14" fill="#ffffff" stroke="#c8ecf9" stroke-width="1.2"/>
<path d="M 52 298 Q 67 295 82 298 Q 97 301 112 298 Q 127 295 142 298 Q 157 301 172 298 Q 180 295 180 298" stroke="#19aee7" stroke-width="2.5" stroke-linecap="round" fill="none" opacity="0.65"/>
</svg>
