<svg xmlns="http://www.w3.org/2000/svg" width="1920" height="1080" viewBox="0 0 1920 1080" fill="none">
<defs>
  <linearGradient id="waterGrad" x1="0" y1="0" x2="1" y2="1">
    <stop offset="0%" stop-color="#ffffff"/>
    <stop offset="48%" stop-color="#73d8ff"/>
    <stop offset="100%" stop-color="#19aee7"/>
  </linearGradient>
  <linearGradient id="waterLine" x1="0" y1="0" x2="1" y2="0">
    <stop offset="0%" stop-color="#73d8ff"/>
    <stop offset="58%" stop-color="#19aee7"/>
    <stop offset="100%" stop-color="#0b6f9f"/>
  </linearGradient>
  <filter id="shadowSoft" x="-18%" y="-22%" width="136%" height="148%">
    <feDropShadow dx="0" dy="10" stdDeviation="14" flood-color="#75aec8" flood-opacity="0.22"/>
  </filter>
  <filter id="shadowTight" x="-18%" y="-28%" width="136%" height="156%">
    <feDropShadow dx="0" dy="4" stdDeviation="6" flood-color="#75aec8" flood-opacity="0.20"/>
  </filter>
  
</defs>
<rect x="0" y="0" width="1920" height="1080" fill="#d7d9dc"/>
<rect x="180" y="104" width="1560" height="860" rx="42" fill="#eef1f3" fill-opacity="0.84" stroke="#c5cbd0" stroke-width="2.5" filter="url(#shadowSoft)"/>
<rect x="212" y="136" width="1496" height="796" rx="26" stroke="#cbd4da" stroke-width="1.5" opacity="0.86"/>
<text x="960" y="214" text-anchor="middle" font-family="Arial, sans-serif" font-size="44" fill="#0b6f9f" font-weight="800">ЛР №1: расчёты</text>
<text x="960" y="250" text-anchor="middle" font-family="Arial, sans-serif" font-size="21" fill="#5f8498" font-weight="700">введите значения и проверьте расчётные параметры</text>
<g><g>
  <text x="340" y="286" font-family="Arial, sans-serif" font-size="21" fill="#5f8498" font-weight="800">Диаметр</text>
  <rect x="340" y="300" width="340" height="70" rx="20" fill="#ffffff" fill-opacity="0.78" stroke="#94d4ee" stroke-width="2"/>
  <rect x="358" y="317" width="9" height="36" rx="4.5" fill="url(#waterLine)" opacity="0.78"/>
  <text x="374" y="346" font-family="Georgia, Times New Roman, serif" font-size="25" fill="#5f8498" font-style="italic" font-weight="700">d, м</text>
</g><g>
  <text x="340" y="368" font-family="Arial, sans-serif" font-size="21" fill="#5f8498" font-weight="800">Площадь сечения</text>
  <rect x="340" y="382" width="340" height="70" rx="20" fill="#ffffff" fill-opacity="0.78" stroke="#94d4ee" stroke-width="2"/>
  <rect x="358" y="399" width="9" height="36" rx="4.5" fill="url(#waterLine)" opacity="0.78"/>
  <text x="374" y="428" font-family="Georgia, Times New Roman, serif" font-size="25" fill="#5f8498" font-style="italic" font-weight="700">f, м²</text>
</g><g>
  <text x="340" y="450" font-family="Arial, sans-serif" font-size="21" fill="#5f8498" font-weight="800">Расход</text>
  <rect x="340" y="464" width="340" height="70" rx="20" fill="#ffffff" fill-opacity="0.78" stroke="#94d4ee" stroke-width="2"/>
  <rect x="358" y="481" width="9" height="36" rx="4.5" fill="url(#waterLine)" opacity="0.78"/>
  <text x="374" y="510" font-family="Georgia, Times New Roman, serif" font-size="25" fill="#5f8498" font-style="italic" font-weight="700">V, м³/с</text>
</g><g>
  <text x="340" y="532" font-family="Arial, sans-serif" font-size="21" fill="#5f8498" font-weight="800">Скорость</text>
  <rect x="340" y="546" width="340" height="70" rx="20" fill="#ffffff" fill-opacity="0.78" stroke="#94d4ee" stroke-width="2"/>
  <rect x="358" y="563" width="9" height="36" rx="4.5" fill="url(#waterLine)" opacity="0.78"/>
  <text x="374" y="592" font-family="Georgia, Times New Roman, serif" font-size="25" fill="#5f8498" font-style="italic" font-weight="700">w, м/с</text>
</g><g>
  <text x="340" y="614" font-family="Arial, sans-serif" font-size="21" fill="#5f8498" font-weight="800">Температура</text>
  <rect x="340" y="628" width="340" height="70" rx="20" fill="#ffffff" fill-opacity="0.78" stroke="#94d4ee" stroke-width="2"/>
  <rect x="358" y="645" width="9" height="36" rx="4.5" fill="url(#waterLine)" opacity="0.78"/>
  <text x="374" y="674" font-family="Georgia, Times New Roman, serif" font-size="25" fill="#5f8498" font-style="italic" font-weight="700">t, ℃</text>
</g><g>
  <text x="340" y="696" font-family="Arial, sans-serif" font-size="21" fill="#5f8498" font-weight="800">Вязкость</text>
  <rect x="340" y="710" width="340" height="70" rx="20" fill="#ffffff" fill-opacity="0.78" stroke="#94d4ee" stroke-width="2"/>
  <rect x="358" y="727" width="9" height="36" rx="4.5" fill="url(#waterLine)" opacity="0.78"/>
  <text x="374" y="756" font-family="Georgia, Times New Roman, serif" font-size="25" fill="#5f8498" font-style="italic" font-weight="700">ν, м²/с</text>
</g><g>
  <text x="340" y="778" font-family="Arial, sans-serif" font-size="21" fill="#5f8498" font-weight="800">Число Рейнольдса</text>
  <rect x="340" y="792" width="340" height="70" rx="20" fill="#ffffff" fill-opacity="0.78" stroke="#94d4ee" stroke-width="2"/>
  <rect x="358" y="809" width="9" height="36" rx="4.5" fill="url(#waterLine)" opacity="0.78"/>
  <text x="374" y="838" font-family="Georgia, Times New Roman, serif" font-size="25" fill="#5f8498" font-style="italic" font-weight="700">Re</text>
</g></g>
<g>
  <rect x="760" y="326" width="320" height="70" rx="20" fill="#ffffff" fill-opacity="0.74" stroke="#94d4ee" stroke-width="2" filter="url(#shadowTight)"/>
  <path d="M 786 378 Q 814 375 842 378 Q 870 381 898 378 Q 926 375 954 378 Q 982 381 1010 378 Q 1038 375 1054 378" stroke="#73d8ff" stroke-width="3" stroke-linecap="round" fill="none" opacity="0.28"/>
  <text x="920.0" y="369.0" text-anchor="middle" font-family="Arial, sans-serif" font-size="23" fill="#0b6f9f" font-weight="800">Проверить f</text>
</g>
<g>
  <rect x="760" y="470" width="320" height="70" rx="20" fill="#ffffff" fill-opacity="0.74" stroke="#94d4ee" stroke-width="2" filter="url(#shadowTight)"/>
  <path d="M 786 522 Q 814 519 842 522 Q 870 525 898 522 Q 926 519 954 522 Q 982 525 1010 522 Q 1038 519 1054 522" stroke="#73d8ff" stroke-width="3" stroke-linecap="round" fill="none" opacity="0.28"/>
  <text x="920.0" y="513.0" text-anchor="middle" font-family="Arial, sans-serif" font-size="23" fill="#0b6f9f" font-weight="800">Проверить w</text>
</g>
<g>
  <rect x="760" y="614" width="320" height="70" rx="20" fill="#ffffff" fill-opacity="0.74" stroke="#94d4ee" stroke-width="2" filter="url(#shadowTight)"/>
  <path d="M 786 666 Q 814 663 842 666 Q 870 669 898 666 Q 926 663 954 666 Q 982 669 1010 666 Q 1038 663 1054 666" stroke="#73d8ff" stroke-width="3" stroke-linecap="round" fill="none" opacity="0.28"/>
  <text x="920.0" y="657.0" text-anchor="middle" font-family="Arial, sans-serif" font-size="23" fill="#0b6f9f" font-weight="800">Проверить ν</text>
</g>
<g>
  <rect x="760" y="696" width="320" height="70" rx="20" fill="#ffffff" fill-opacity="0.74" stroke="#94d4ee" stroke-width="2" filter="url(#shadowTight)"/>
  <path d="M 786 748 Q 814 745 842 748 Q 870 751 898 748 Q 926 745 954 748 Q 982 751 1010 748 Q 1038 745 1054 748" stroke="#73d8ff" stroke-width="3" stroke-linecap="round" fill="none" opacity="0.28"/>
  <text x="920.0" y="739.0" text-anchor="middle" font-family="Arial, sans-serif" font-size="23" fill="#0b6f9f" font-weight="800">Проверить Re</text>
</g>
<text x="340" y="902" font-family="Arial, sans-serif" font-size="23" fill="#0b6f9f" font-weight="800">Введите данные и нажмите кнопку проверки.</text>
<text x="340" y="932" font-family="Arial, sans-serif" font-size="20" fill="#5f8498" font-weight="800">Ошибок: 0</text>
<g>
  <rect x="760" y="844" width="230" height="68" rx="20" fill="#ffffff" fill-opacity="0.74" stroke="#94d4ee" stroke-width="2" filter="url(#shadowTight)"/>
  <path d="M 786 894 Q 814 891 842 894 Q 870 897 898 894 Q 926 891 954 894 Q 964 897 964 894" stroke="#73d8ff" stroke-width="3" stroke-linecap="round" fill="none" opacity="0.28"/>
  <text x="875.0" y="886.0" text-anchor="middle" font-family="Arial, sans-serif" font-size="23" fill="#0b6f9f" font-weight="800">К таблице</text>
</g>
<g>
  <rect x="1030" y="844" width="360" height="68" rx="20" fill="#ffffff" fill-opacity="0.74" stroke="#94d4ee" stroke-width="2" filter="url(#shadowTight)"/>
  <path d="M 1056 894 Q 1084 891 1112 894 Q 1140 897 1168 894 Q 1196 891 1224 894 Q 1252 897 1280 894 Q 1308 891 1336 894 Q 1364 897 1364 894" stroke="#73d8ff" stroke-width="3" stroke-linecap="round" fill="none" opacity="0.28"/>
  <text x="1210.0" y="886.0" text-anchor="middle" font-family="Arial, sans-serif" font-size="22" fill="#0b6f9f" font-weight="800">Внести данные в таблицу</text>
</g>
<g>
  <rect x="1460" y="844" width="160" height="68" rx="20" fill="#ffffff" fill-opacity="0.74" stroke="#94d4ee" stroke-width="2" filter="url(#shadowTight)"/>
  <path d="M 1486 894 Q 1514 891 1542 894 Q 1570 897 1594 894" stroke="#73d8ff" stroke-width="3" stroke-linecap="round" fill="none" opacity="0.28"/>
  <text x="1540.0" y="886.0" text-anchor="middle" font-family="Arial, sans-serif" font-size="22" fill="#0b6f9f" font-weight="800">Закрыть</text>
</g>
<rect x="1210" y="300" width="430" height="520" rx="28" fill="#ffffff" fill-opacity="0.54" stroke="#c8ecf9" stroke-width="2"/>
<text x="1246" y="360" font-family="Arial, sans-serif" font-size="34" fill="#0b6f9f" font-weight="800">Данные</text>
<rect x="1246" y="392" width="358" height="202" rx="18" fill="#ffffff" fill-opacity="0.62" stroke="#c8ecf9" stroke-width="1.5"/>
<path d="M 1276 562 Q 1307 559 1338 562 Q 1369 565 1400 562 Q 1431 559 1462 562 Q 1493 565 1524 562 Q 1555 559 1574 562" stroke="#73d8ff" stroke-width="3" stroke-linecap="round" fill="none" opacity="0.18"/>
<rect x="1246" y="626" width="358" height="190" rx="18" fill="#ffffff" fill-opacity="0.72" stroke="#94d4ee" stroke-width="2"/>
<rect x="1266" y="646" width="318" height="52" rx="12" fill="#fbfeff" fill-opacity="0.72" stroke="#c8ecf9" stroke-width="1.5"/>
<text x="1288" y="680" font-family="Arial, sans-serif" font-size="22" fill="#123247" font-weight="800">Запись 1</text>
<path d="M 1544 663 L 1560 679 L 1576 663" stroke="#19aee7" stroke-width="3.5" stroke-linecap="round" stroke-linejoin="round"/>
<rect x="1266" y="712" width="318" height="40" rx="10" fill="#ffffff" fill-opacity="0.62" stroke="#c8ecf9" stroke-width="1"/>
<text x="1288" y="740" font-family="Arial, sans-serif" font-size="19" fill="#5f8498" font-weight="700">Запись 2</text>
<rect x="1266" y="764" width="318" height="40" rx="10" fill="#ffffff" fill-opacity="0.62" stroke="#c8ecf9" stroke-width="1"/>
<text x="1288" y="792" font-family="Arial, sans-serif" font-size="19" fill="#5f8498" font-weight="700">Запись 3</text>
</svg>
