<svg xmlns="http://www.w3.org/2000/svg" width="1920" height="1080" viewBox="0 0 1920 1080" fill="none">
<defs>
  <linearGradient id="waterGrad" x1="0" y1="0" x2="1" y2="1">
    <stop offset="0%" stop-color="#ffffff"/>
    <stop offset="48%" stop-color="#73d8ff"/>
    <stop offset="100%" stop-color="#19aee7"/>
  </linearGradient>
  <linearGradient id="waterLine" x1="0" y1="0" x2="1" y2="0">
    <stop offset="0%" stop-color="#73d8ff"/>
    <stop offset="58%" stop-color="#19aee7"/>
    <stop offset="100%" stop-color="#0b6f9f"/>
  </linearGradient>
  <filter id="shadowSoft" x="-18%" y="-22%" width="136%" height="148%">
    <feDropShadow dx="0" dy="10" stdDeviation="14" flood-color="#75aec8" flood-opacity="0.22"/>
  </filter>
  <filter id="shadowTight" x="-18%" y="-28%" width="136%" height="156%">
    <feDropShadow dx="0" dy="4" stdDeviation="6" flood-color="#75aec8" flood-opacity="0.20"/>
  </filter>
  
</defs>
<rect x="0" y="0" width="1920" height="1080" fill="#d7d9dc"/>
<rect x="110" y="150" width="1700" height="660" rx="42" fill="#eef1f3" fill-opacity="0.82" stroke="#c5cbd0" stroke-width="2.5" filter="url(#shadowSoft)"/>
<rect x="138" y="178" width="1644" height="604" rx="26" stroke="#cbd4da" stroke-width="1.5" opacity="0.86"/>
<text x="1145.0" y="236" text-anchor="middle" font-family="Arial, sans-serif" font-size="46" fill="#0b6f9f" font-weight="800">ТАБЛИЦА ИЗМЕРЕНИЙ</text>
<text x="1145.0" y="272" text-anchor="middle" font-family="Arial, sans-serif" font-size="22" fill="#5f8498" font-weight="700">2 строки данных, плотная сетка, внешняя обводка по краям</text>
<rect x="160" y="306" width="340" height="266" rx="28" fill="#ffffff" fill-opacity="0.54" stroke="#c8ecf9" stroke-width="2"/>
<text x="194" y="358" font-family="Arial, sans-serif" font-size="28" fill="#0b6f9f" font-weight="800">Данные</text>
<rect x="194" y="386" width="272" height="148" rx="18" fill="#ffffff" fill-opacity="0.62" stroke="#c8ecf9" stroke-width="1.5"/>
<path d="M 220 502 Q 247 499 274 502 Q 301 505 328 502 Q 355 499 382 502 Q 409 505 436 502 Q 440 499 440 502" stroke="#73d8ff" stroke-width="3" stroke-linecap="round" fill="none" opacity="0.18"/>
<rect x="194" y="570" width="272" height="174" rx="18" fill="#ffffff" fill-opacity="0.72" stroke="#94d4ee" stroke-width="2"/>
<rect x="212" y="588" width="236" height="46" rx="12" fill="#fbfeff" fill-opacity="0.72" stroke="#c8ecf9" stroke-width="1.5"/>
<text x="232" y="618" font-family="Arial, sans-serif" font-size="19" fill="#123247" font-weight="800">Запись 1</text>
<path d="M 410 604 L 424 618 L 438 604" stroke="#19aee7" stroke-width="3.5" stroke-linecap="round" stroke-linejoin="round"/>
<rect x="212" y="646" width="236" height="36" rx="10" fill="#ffffff" fill-opacity="0.62" stroke="#c8ecf9" stroke-width="1"/>
<text x="232" y="671" font-family="Arial, sans-serif" font-size="17" fill="#5f8498" font-weight="700">Запись 2</text>
<rect x="212" y="690" width="236" height="36" rx="10" fill="#ffffff" fill-opacity="0.62" stroke="#c8ecf9" stroke-width="1"/>
<text x="232" y="715" font-family="Arial, sans-serif" font-size="17" fill="#5f8498" font-weight="700">Запись 3</text>
<g>
<path d="M 578 306 L 670 306 L 670 448 L 560 448 L 560 324 Q 560 306 578 306 Z" fill="#fbfeff" fill-opacity="0.86"/><path d="M 560 448 L 670 448 L 670 510 L 560 510 L 560 448 Z" fill="#ffffff" fill-opacity="0.8"/><path d="M 560 510 L 670 510 L 670 572 L 578 572 Q 560 572 560 554 L 560 510 Z" fill="#fbfeff" fill-opacity="0.8"/><path d="M 670 306 L 796 306 L 796 448 L 670 448 L 670 306 Z" fill="#fbfeff" fill-opacity="0.86"/><path d="M 670 448 L 796 448 L 796 510 L 670 510 L 670 448 Z" fill="#ffffff" fill-opacity="0.8"/><path d="M 670 510 L 796 510 L 796 572 L 670 572 L 670 510 Z" fill="#fbfeff" fill-opacity="0.8"/><path d="M 796 306 L 922 306 L 922 448 L 796 448 L 796 306 Z" fill="#fbfeff" fill-opacity="0.86"/><path d="M 796 448 L 922 448 L 922 510 L 796 510 L 796 448 Z" fill="#ffffff" fill-opacity="0.8"/><path d="M 796 510 L 922 510 L 922 572 L 796 572 L 796 510 Z" fill="#fbfeff" fill-opacity="0.8"/><path d="M 922 306 L 1048 306 L 1048 448 L 922 448 L 922 306 Z" fill="#fbfeff" fill-opacity="0.86"/><path d="M 922 448 L 1048 448 L 1048 510 L 922 510 L 922 448 Z" fill="#ffffff" fill-opacity="0.8"/><path d="M 922 510 L 1048 510 L 1048 572 L 922 572 L 922 510 Z" fill="#fbfeff" fill-opacity="0.8"/><path d="M 1048 306 L 1174 306 L 1174 448 L 1048 448 L 1048 306 Z" fill="#fbfeff" fill-opacity="0.86"/><path d="M 1048 448 L 1174 448 L 1174 510 L 1048 510 L 1048 448 Z" fill="#ffffff" fill-opacity="0.8"/><path d="M 1048 510 L 1174 510 L 1174 572 L 1048 572 L 1048 510 Z" fill="#fbfeff" fill-opacity="0.8"/><path d="M 1174 306 L 1300 306 L 1300 448 L 1174 448 L 1174 306 Z" fill="#fbfeff" fill-opacity="0.86"/><path d="M 1174 448 L 1300 448 L 1300 510 L 1174 510 L 1174 448 Z" fill="#ffffff" fill-opacity="0.8"/><path d="M 1174 510 L 1300 510 L 1300 572 L 1174 572 L 1174 510 Z" fill="#fbfeff" fill-opacity="0.8"/><path d="M 1300 306 L 1426 306 L 1426 448 L 1300 448 L 1300 306 Z" fill="#fbfeff" fill-opacity="0.86"/><path d="M 1300 448 L 1426 448 L 1426 510 L 1300 510 L 1300 448 Z" fill="#ffffff" fill-opacity="0.8"/><path d="M 1300 510 L 1426 510 L 1426 572 L 1300 572 L 1300 510 Z" fill="#fbfeff" fill-opacity="0.8"/><path d="M 1426 306 L 1552 306 L 1552 448 L 1426 448 L 1426 306 Z" fill="#fbfeff" fill-opacity="0.86"/><path d="M 1426 448 L 1552 448 L 1552 510 L 1426 510 L 1426 448 Z" fill="#ffffff" fill-opacity="0.8"/><path d="M 1426 510 L 1552 510 L 1552 572 L 1426 572 L 1426 510 Z" fill="#fbfeff" fill-opacity="0.8"/><path d="M 1552 306 L 1712 306 Q 1730 306 1730 324 L 1730 448 L 1552 448 L 1552 306 Z" fill="#fbfeff" fill-opacity="0.86"/><path d="M 1552 448 L 1730 448 L 1730 510 L 1552 510 L 1552 448 Z" fill="#ffffff" fill-opacity="0.8"/><path d="M 1552 510 L 1730 510 L 1730 554 Q 1730 572 1712 572 L 1552 572 L 1552 510 Z" fill="#fbfeff" fill-opacity="0.8"/>
<path d="M 670 306 L 670 572" stroke="#123247" stroke-width="1.1" opacity="0.54"/><path d="M 796 306 L 796 572" stroke="#123247" stroke-width="1.1" opacity="0.54"/><path d="M 922 306 L 922 572" stroke="#123247" stroke-width="1.1" opacity="0.54"/><path d="M 1048 306 L 1048 572" stroke="#123247" stroke-width="1.1" opacity="0.54"/><path d="M 1174 306 L 1174 572" stroke="#123247" stroke-width="1.1" opacity="0.54"/><path d="M 1300 306 L 1300 572" stroke="#123247" stroke-width="1.1" opacity="0.54"/><path d="M 1426 306 L 1426 572" stroke="#123247" stroke-width="1.1" opacity="0.54"/><path d="M 1552 306 L 1552 572" stroke="#123247" stroke-width="1.1" opacity="0.54"/>
<path d="M 560 448 L 1730 448" stroke="#123247" stroke-width="1.1" opacity="0.54"/><path d="M 560 510 L 1730 510" stroke="#123247" stroke-width="1.1" opacity="0.46"/>
<path d="M 578 306 L 1712 306 Q 1730 306 1730 324 L 1730 554 Q 1730 572 1712 572 L 578 572 Q 560 572 560 554 L 560 324 Q 560 306 578 306 Z" fill="none" stroke="#123247" stroke-width="2.2" opacity="0.68"/>
<text x="615.0" y="368" text-anchor="middle" font-family="Georgia, Times New Roman, serif" font-size="29" fill="#123247" font-weight="700">№ п/п</text><text x="733.0" y="368" text-anchor="middle" font-family="Georgia, Times New Roman, serif" font-size="29" fill="#123247" font-weight="700">d, м</text><text x="859.0" y="368" text-anchor="middle" font-family="Georgia, Times New Roman, serif" font-size="29" fill="#123247" font-weight="700">f, м²</text><text x="985.0" y="368" text-anchor="middle" font-family="Georgia, Times New Roman, serif" font-size="29" fill="#123247" font-weight="700">V, м³/с</text><text x="1111.0" y="368" text-anchor="middle" font-family="Georgia, Times New Roman, serif" font-size="29" fill="#123247" font-weight="700">w, м/с</text><text x="1237.0" y="368" text-anchor="middle" font-family="Georgia, Times New Roman, serif" font-size="29" fill="#123247" font-weight="700">t, ℃</text><text x="1363.0" y="368" text-anchor="middle" font-family="Georgia, Times New Roman, serif" font-size="29" fill="#123247" font-weight="700">ν, м²/с</text><text x="1489.0" y="368" text-anchor="middle" font-family="Georgia, Times New Roman, serif" font-size="29" fill="#123247" font-weight="700">Re</text><text x="1641.0" y="350" text-anchor="middle" font-family="Georgia, Times New Roman, serif" font-size="26" fill="#123247" font-weight="700">Режим</text><text x="1641.0" y="386" text-anchor="middle" font-family="Georgia, Times New Roman, serif" font-size="26" fill="#123247" font-weight="700">движения</text><text x="1641.0" y="422" text-anchor="middle" font-family="Georgia, Times New Roman, serif" font-size="26" fill="#123247" font-weight="700">жидкости</text>
<text x="615.0" y="490" text-anchor="middle" font-family="Arial, sans-serif" font-size="25" fill="#5f8498" font-weight="800">1</text><path d="M 694 491 Q 715 489 736 491 Q 757 493 772 491" stroke="#73d8ff" stroke-width="2.2" stroke-linecap="round" fill="none" opacity="0.18"/><path d="M 820 491 Q 841 489 862 491 Q 883 493 898 491" stroke="#73d8ff" stroke-width="2.2" stroke-linecap="round" fill="none" opacity="0.18"/><path d="M 946 491 Q 967 489 988 491 Q 1009 493 1024 491" stroke="#73d8ff" stroke-width="2.2" stroke-linecap="round" fill="none" opacity="0.18"/><path d="M 1072 491 Q 1093 489 1114 491 Q 1135 493 1150 491" stroke="#73d8ff" stroke-width="2.2" stroke-linecap="round" fill="none" opacity="0.18"/><path d="M 1198 491 Q 1219 489 1240 491 Q 1261 493 1276 491" stroke="#73d8ff" stroke-width="2.2" stroke-linecap="round" fill="none" opacity="0.18"/><path d="M 1324 491 Q 1345 489 1366 491 Q 1387 493 1402 491" stroke="#73d8ff" stroke-width="2.2" stroke-linecap="round" fill="none" opacity="0.18"/><path d="M 1450 491 Q 1471 489 1492 491 Q 1513 493 1528 491" stroke="#73d8ff" stroke-width="2.2" stroke-linecap="round" fill="none" opacity="0.18"/><path d="M 1576 491 Q 1597 489 1618 491 Q 1639 493 1660 491 Q 1681 489 1702 491 Q 1706 493 1706 491" stroke="#73d8ff" stroke-width="2.2" stroke-linecap="round" fill="none" opacity="0.18"/><text x="615.0" y="552" text-anchor="middle" font-family="Arial, sans-serif" font-size="25" fill="#5f8498" font-weight="800">2</text><path d="M 694 553 Q 715 551 736 553 Q 757 555 772 553" stroke="#73d8ff" stroke-width="2.2" stroke-linecap="round" fill="none" opacity="0.18"/><path d="M 820 553 Q 841 551 862 553 Q 883 555 898 553" stroke="#73d8ff" stroke-width="2.2" stroke-linecap="round" fill="none" opacity="0.18"/><path d="M 946 553 Q 967 551 988 553 Q 1009 555 1024 553" stroke="#73d8ff" stroke-width="2.2" stroke-linecap="round" fill="none" opacity="0.18"/><path d="M 1072 553 Q 1093 551 1114 553 Q 1135 555 1150 553" stroke="#73d8ff" stroke-width="2.2" stroke-linecap="round" fill="none" opacity="0.18"/><path d="M 1198 553 Q 1219 551 1240 553 Q 1261 555 1276 553" stroke="#73d8ff" stroke-width="2.2" stroke-linecap="round" fill="none" opacity="0.18"/><path d="M 1324 553 Q 1345 551 1366 553 Q 1387 555 1402 553" stroke="#73d8ff" stroke-width="2.2" stroke-linecap="round" fill="none" opacity="0.18"/><path d="M 1450 553 Q 1471 551 1492 553 Q 1513 555 1528 553" stroke="#73d8ff" stroke-width="2.2" stroke-linecap="round" fill="none" opacity="0.18"/><path d="M 1576 553 Q 1597 551 1618 553 Q 1639 555 1660 553 Q 1681 551 1702 553 Q 1706 555 1706 553" stroke="#73d8ff" stroke-width="2.2" stroke-linecap="round" fill="none" opacity="0.18"/>
</g>
</svg>
