<svg xmlns="http://www.w3.org/2000/svg" width="1920" height="1080" viewBox="0 0 1920 1080" fill="none">
<defs>
  <linearGradient id="waterGrad" x1="0" y1="0" x2="1" y2="1">
    <stop offset="0%" stop-color="#ffffff"/>
    <stop offset="48%" stop-color="#73d8ff"/>
    <stop offset="100%" stop-color="#19aee7"/>
  </linearGradient>
  <linearGradient id="waterLine" x1="0" y1="0" x2="1" y2="0">
    <stop offset="0%" stop-color="#73d8ff"/>
    <stop offset="58%" stop-color="#19aee7"/>
    <stop offset="100%" stop-color="#0b6f9f"/>
  </linearGradient>
  <filter id="shadowSoft" x="-18%" y="-22%" width="136%" height="148%">
    <feDropShadow dx="0" dy="10" stdDeviation="14" flood-color="#75aec8" flood-opacity="0.22"/>
  </filter>
  <filter id="shadowTight" x="-18%" y="-28%" width="136%" height="156%">
    <feDropShadow dx="0" dy="4" stdDeviation="6" flood-color="#75aec8" flood-opacity="0.20"/>
  </filter>
  
</defs>
<rect x="0" y="0" width="1920" height="1080" fill="#eef9ff"/>
<path d="M -80 758 Q 0 734 80 758 Q 160 782 240 758 Q 320 734 400 758 Q 480 782 560 758 Q 640 734 720 758 Q 800 782 880 758 Q 960 734 1040 758 Q 1120 782 1200 758 Q 1280 734 1360 758 Q 1440 782 1520 758 Q 1600 734 1680 758 Q 1760 782 1840 758 Q 1920 734 2000 758 L 2000 1080 L -80 1080 Z" fill="#73d8ff" opacity="0.34"/>
<path d="M -80 850 Q -14 832 52 850 Q 118 868 184 850 Q 250 832 316 850 Q 382 868 448 850 Q 514 832 580 850 Q 646 868 712 850 Q 778 832 844 850 Q 910 868 976 850 Q 1042 832 1108 850 Q 1174 868 1240 850 Q 1306 832 1372 850 Q 1438 868 1504 850 Q 1570 832 1636 850 Q 1702 868 1768 850 Q 1834 832 1900 850 Q 1966 868 2000 850 L 2000 1080 L -80 1080 Z" fill="#19aee7" opacity="0.23"/>
<rect x="84" y="64" width="1752" height="952" rx="46" fill="#ffffff" fill-opacity="0.88" stroke="#94d4ee" stroke-width="2" filter="url(#shadowSoft)"/>
<rect x="134" y="112" width="1652" height="856" rx="28" stroke="#c8ecf9" stroke-width="1.5"/>
<rect x="290" y="122" width="1340" height="200" rx="34" fill="#ffffff" stroke="#94d4ee" stroke-width="2"/>
<g transform="translate(410,222) scale(1.28)">
  <circle cx="0" cy="0" r="34" fill="#fbfeff" stroke="#94d4ee" stroke-width="3"/>
  <path d="M -18 -22 C -4 -10 4 -10 18 -22" stroke="#19aee7" stroke-width="5" stroke-linecap="round"/>
  <path d="M -22 5 C -7 -7 8 -7 22 5" stroke="#73d8ff" stroke-width="5" stroke-linecap="round"/>
  <path d="M -16 22 C -3 12 5 12 16 22" stroke="#0b6f9f" stroke-width="4" stroke-linecap="round"/>
  <circle cx="-16" cy="-2" r="5" fill="#ff8a1f"/>
  <circle cx="17" cy="14" r="4" fill="#ff5f2d"/>
</g>
<g transform="translate(1510,222) scale(1.28)">
  <circle cx="0" cy="0" r="34" fill="#fbfeff" stroke="#94d4ee" stroke-width="3"/>
  <path d="M -18 -22 C -4 -10 4 -10 18 -22" stroke="#19aee7" stroke-width="5" stroke-linecap="round"/>
  <path d="M -22 5 C -7 -7 8 -7 22 5" stroke="#73d8ff" stroke-width="5" stroke-linecap="round"/>
  <path d="M -16 22 C -3 12 5 12 16 22" stroke="#0b6f9f" stroke-width="4" stroke-linecap="round"/>
  <circle cx="-16" cy="-2" r="5" fill="#ff8a1f"/>
  <circle cx="17" cy="14" r="4" fill="#ff5f2d"/>
</g>
<text x="960" y="182" text-anchor="middle" font-family="Arial, sans-serif" font-size="40" fill="#5f8498" font-weight="600">Лабораторная работа</text>
<text x="960" y="248" text-anchor="middle" font-family="Arial, sans-serif" font-size="64" fill="#0b6f9f" font-weight="700">ГИДРОДИНАМИКА</text>
<path d="M 760 286 Q 791 279 822 286 Q 853 293 884 286 Q 915 279 946 286 Q 977 293 1008 286 Q 1039 279 1070 286 Q 1101 293 1132 286 Q 1160 279 1160 286" stroke="#19aee7" stroke-width="5" stroke-linecap="round" fill="none"/>
<g transform="translate(680, 392)">
<clipPath id="clipButtonSceneStart"><rect x="8" y="8" width="544" height="120" rx="60"/></clipPath>
<rect x="8" y="8" width="544" height="120" rx="60" fill="#ffffff" stroke="#94d4ee" stroke-width="2.5" filter="url(#shadowTight)"/>
<g clip-path="url(#clipButtonSceneStart)">
  <path d="M -28 72 Q 1 60 30 72 Q 59 84 88 72 Q 117 60 146 72 Q 175 84 204 72 Q 233 60 262 72 Q 291 84 320 72 Q 349 60 378 72 Q 407 84 436 72 Q 465 60 494 72 Q 523 84 552 72 Q 581 60 588 72 L 588 136 L -28 136 Z" fill="url(#waterGrad)" opacity="0.96"/>
  <path d="M -20 88 Q 12 80 44 88 Q 76 96 108 88 Q 140 80 172 88 Q 204 96 236 88 Q 268 80 300 88 Q 332 96 364 88 Q 396 80 428 88 Q 460 96 492 88 Q 524 80 556 88 Q 580 96 580 88 L 580 136 L -20 136 Z" fill="#19aee7" opacity="0.22"/>
  <path d="M 16 72 Q 45 60 74 72 Q 103 84 132 72 Q 161 60 190 72 Q 219 84 248 72 Q 277 60 306 72 Q 335 84 364 72 Q 393 60 422 72 Q 451 84 480 72 Q 509 60 538 72 Q 548 84 548 72" stroke="#ffffff" stroke-width="6" stroke-linecap="round" fill="none" opacity="0.62"/>
  <path d="M 20 82 Q 49 75 78 82 Q 107 89 136 82 Q 165 75 194 82 Q 223 89 252 82 Q 281 75 310 82 Q 339 89 368 82 Q 397 75 426 82 Q 455 89 484 82 Q 513 75 540 82" stroke="#0b6f9f" stroke-width="2.5" stroke-linecap="round" fill="none" opacity="0.20"/>
</g>

</g>
<text x="960" y="472" text-anchor="middle" font-family="Arial, sans-serif" font-size="34" fill="#0b6f9f" font-weight="700">НАЧАТЬ</text>
<g transform="translate(680, 542)">
<clipPath id="clipButtonSceneTheory"><rect x="8" y="8" width="544" height="120" rx="60"/></clipPath>
<rect x="8" y="8" width="544" height="120" rx="60" fill="#ffffff" stroke="#94d4ee" stroke-width="2.5" filter="url(#shadowTight)"/>
<g clip-path="url(#clipButtonSceneTheory)">
  <path d="M -28 72 Q 1 60 30 72 Q 59 84 88 72 Q 117 60 146 72 Q 175 84 204 72 Q 233 60 262 72 Q 291 84 320 72 Q 349 60 378 72 Q 407 84 436 72 Q 465 60 494 72 Q 523 84 552 72 Q 581 60 588 72 L 588 136 L -28 136 Z" fill="url(#waterGrad)" opacity="0.96"/>
  <path d="M -20 88 Q 12 80 44 88 Q 76 96 108 88 Q 140 80 172 88 Q 204 96 236 88 Q 268 80 300 88 Q 332 96 364 88 Q 396 80 428 88 Q 460 96 492 88 Q 524 80 556 88 Q 580 96 580 88 L 580 136 L -20 136 Z" fill="#19aee7" opacity="0.22"/>
  <path d="M 16 72 Q 45 60 74 72 Q 103 84 132 72 Q 161 60 190 72 Q 219 84 248 72 Q 277 60 306 72 Q 335 84 364 72 Q 393 60 422 72 Q 451 84 480 72 Q 509 60 538 72 Q 548 84 548 72" stroke="#ffffff" stroke-width="6" stroke-linecap="round" fill="none" opacity="0.62"/>
  <path d="M 20 82 Q 49 75 78 82 Q 107 89 136 82 Q 165 75 194 82 Q 223 89 252 82 Q 281 75 310 82 Q 339 89 368 82 Q 397 75 426 82 Q 455 89 484 82 Q 513 75 540 82" stroke="#0b6f9f" stroke-width="2.5" stroke-linecap="round" fill="none" opacity="0.20"/>
</g>

</g>
<text x="960" y="622" text-anchor="middle" font-family="Arial, sans-serif" font-size="30" fill="#0b6f9f" font-weight="700">ТЕОРИЯ</text>
<g transform="translate(680, 692)">
<clipPath id="clipButtonSceneProtocol"><rect x="8" y="8" width="544" height="120" rx="60"/></clipPath>
<rect x="8" y="8" width="544" height="120" rx="60" fill="#ffffff" stroke="#94d4ee" stroke-width="2.5" filter="url(#shadowTight)"/>
<g clip-path="url(#clipButtonSceneProtocol)">
  <path d="M -28 72 Q 1 60 30 72 Q 59 84 88 72 Q 117 60 146 72 Q 175 84 204 72 Q 233 60 262 72 Q 291 84 320 72 Q 349 60 378 72 Q 407 84 436 72 Q 465 60 494 72 Q 523 84 552 72 Q 581 60 588 72 L 588 136 L -28 136 Z" fill="url(#waterGrad)" opacity="0.96"/>
  <path d="M -20 88 Q 12 80 44 88 Q 76 96 108 88 Q 140 80 172 88 Q 204 96 236 88 Q 268 80 300 88 Q 332 96 364 88 Q 396 80 428 88 Q 460 96 492 88 Q 524 80 556 88 Q 580 96 580 88 L 580 136 L -20 136 Z" fill="#19aee7" opacity="0.22"/>
  <path d="M 16 72 Q 45 60 74 72 Q 103 84 132 72 Q 161 60 190 72 Q 219 84 248 72 Q 277 60 306 72 Q 335 84 364 72 Q 393 60 422 72 Q 451 84 480 72 Q 509 60 538 72 Q 548 84 548 72" stroke="#ffffff" stroke-width="6" stroke-linecap="round" fill="none" opacity="0.62"/>
  <path d="M 20 82 Q 49 75 78 82 Q 107 89 136 82 Q 165 75 194 82 Q 223 89 252 82 Q 281 75 310 82 Q 339 89 368 82 Q 397 75 426 82 Q 455 89 484 82 Q 513 75 540 82" stroke="#0b6f9f" stroke-width="2.5" stroke-linecap="round" fill="none" opacity="0.20"/>
</g>

</g>
<text x="960" y="772" text-anchor="middle" font-family="Arial, sans-serif" font-size="30" fill="#0b6f9f" font-weight="700">ПРОТОКОЛ</text>
<g transform="translate(680, 842)">
<clipPath id="clipButtonSceneSettings"><rect x="8" y="8" width="544" height="120" rx="60"/></clipPath>
<rect x="8" y="8" width="544" height="120" rx="60" fill="#ffffff" stroke="#94d4ee" stroke-width="2.5" filter="url(#shadowTight)"/>
<g clip-path="url(#clipButtonSceneSettings)">
  <path d="M -28 72 Q 1 60 30 72 Q 59 84 88 72 Q 117 60 146 72 Q 175 84 204 72 Q 233 60 262 72 Q 291 84 320 72 Q 349 60 378 72 Q 407 84 436 72 Q 465 60 494 72 Q 523 84 552 72 Q 581 60 588 72 L 588 136 L -28 136 Z" fill="url(#waterGrad)" opacity="0.96"/>
  <path d="M -20 88 Q 12 80 44 88 Q 76 96 108 88 Q 140 80 172 88 Q 204 96 236 88 Q 268 80 300 88 Q 332 96 364 88 Q 396 80 428 88 Q 460 96 492 88 Q 524 80 556 88 Q 580 96 580 88 L 580 136 L -20 136 Z" fill="#19aee7" opacity="0.22"/>
  <path d="M 16 72 Q 45 60 74 72 Q 103 84 132 72 Q 161 60 190 72 Q 219 84 248 72 Q 277 60 306 72 Q 335 84 364 72 Q 393 60 422 72 Q 451 84 480 72 Q 509 60 538 72 Q 548 84 548 72" stroke="#ffffff" stroke-width="6" stroke-linecap="round" fill="none" opacity="0.62"/>
  <path d="M 20 82 Q 49 75 78 82 Q 107 89 136 82 Q 165 75 194 82 Q 223 89 252 82 Q 281 75 310 82 Q 339 89 368 82 Q 397 75 426 82 Q 455 89 484 82 Q 513 75 540 82" stroke="#0b6f9f" stroke-width="2.5" stroke-linecap="round" fill="none" opacity="0.20"/>
</g>

</g>
<text x="960" y="922" text-anchor="middle" font-family="Arial, sans-serif" font-size="30" fill="#0b6f9f" font-weight="700">НАСТРОЙКИ</text>
</svg>
