<svg width="2283" height="317" viewBox="0 0 2283 317" fill="none" xmlns="http://www.w3.org/2000/svg">
<path d="M83 102.909V196H69V114.909H25.1818V196H11.1818V102.909H83ZM132.795 197.409C126.25 197.409 120.538 195.909 115.659 192.909C110.78 189.909 106.992 185.712 104.295 180.318C101.598 174.924 100.25 168.621 100.25 161.409C100.25 154.167 101.598 147.833 104.295 142.409C106.992 136.985 110.78 132.773 115.659 129.773C120.538 126.773 126.25 125.273 132.795 125.273C139.341 125.273 145.053 126.773 149.932 129.773C154.811 132.773 158.598 136.985 161.295 142.409C163.992 147.833 165.341 154.167 165.341 161.409C165.341 168.621 163.992 174.924 161.295 180.318C158.598 185.712 154.811 189.909 149.932 192.909C145.053 195.909 139.341 197.409 132.795 197.409ZM132.841 186C137.083 186 140.598 184.879 143.386 182.636C146.174 180.394 148.235 177.409 149.568 173.682C150.932 169.955 151.614 165.848 151.614 161.364C151.614 156.909 150.932 152.818 149.568 149.091C148.235 145.333 146.174 142.318 143.386 140.045C140.598 137.773 137.083 136.636 132.841 136.636C128.568 136.636 125.023 137.773 122.205 140.045C119.417 142.318 117.341 145.333 115.977 149.091C114.644 152.818 113.977 156.909 113.977 161.364C113.977 165.848 114.644 169.955 115.977 173.682C117.341 177.409 119.417 180.394 122.205 182.636C125.023 184.879 128.568 186 132.841 186ZM180.511 196V126.182H194.102V155.455H200.648L223.693 126.182H240.511L213.466 160.136L240.83 196H223.966L202.92 168.091H194.102V196H180.511ZM271.705 197.545C267.28 197.545 263.28 196.727 259.705 195.091C256.129 193.424 253.295 191.015 251.205 187.864C249.144 184.712 248.114 180.848 248.114 176.273C248.114 172.333 248.871 169.091 250.386 166.545C251.902 164 253.947 161.985 256.523 160.5C259.098 159.015 261.977 157.894 265.159 157.136C268.341 156.379 271.583 155.803 274.886 155.409C279.068 154.924 282.462 154.53 285.068 154.227C287.674 153.894 289.568 153.364 290.75 152.636C291.932 151.909 292.523 150.727 292.523 149.091V148.773C292.523 144.803 291.402 141.727 289.159 139.545C286.947 137.364 283.644 136.273 279.25 136.273C274.674 136.273 271.068 137.288 268.432 139.318C265.826 141.318 264.023 143.545 263.023 146L250.25 143.091C251.765 138.848 253.977 135.424 256.886 132.818C259.826 130.182 263.205 128.273 267.023 127.091C270.841 125.879 274.856 125.273 279.068 125.273C281.856 125.273 284.811 125.606 287.932 126.273C291.083 126.909 294.023 128.091 296.75 129.818C299.508 131.545 301.765 134.015 303.523 137.227C305.28 140.409 306.159 144.545 306.159 149.636V196H292.886V186.455H292.341C291.462 188.212 290.144 189.939 288.386 191.636C286.629 193.333 284.371 194.742 281.614 195.864C278.856 196.985 275.553 197.545 271.705 197.545ZM274.659 186.636C278.417 186.636 281.629 185.894 284.295 184.409C286.992 182.924 289.038 180.985 290.432 178.591C291.856 176.167 292.568 173.576 292.568 170.818V161.818C292.083 162.303 291.144 162.758 289.75 163.182C288.386 163.576 286.826 163.924 285.068 164.227C283.311 164.5 281.598 164.758 279.932 165C278.265 165.212 276.871 165.394 275.75 165.545C273.114 165.879 270.705 166.439 268.523 167.227C266.371 168.015 264.644 169.152 263.341 170.636C262.068 172.091 261.432 174.03 261.432 176.455C261.432 179.818 262.674 182.364 265.159 184.091C267.644 185.788 270.811 186.636 274.659 186.636ZM320.125 177.545H334.034C334.216 180.394 335.504 182.591 337.898 184.136C340.322 185.682 343.458 186.455 347.307 186.455C351.216 186.455 354.549 185.621 357.307 183.955C360.064 182.258 361.443 179.636 361.443 176.091C361.443 173.97 360.913 172.121 359.852 170.545C358.822 168.939 357.352 167.697 355.443 166.818C353.564 165.939 351.337 165.5 348.761 165.5H337.398V154.818H348.761C352.61 154.818 355.489 153.939 357.398 152.182C359.307 150.424 360.261 148.227 360.261 145.591C360.261 142.742 359.231 140.455 357.17 138.727C355.14 136.97 352.307 136.091 348.67 136.091C344.973 136.091 341.898 136.924 339.443 138.591C336.989 140.227 335.701 142.348 335.58 144.955H321.852C321.943 141.045 323.125 137.621 325.398 134.682C327.701 131.712 330.792 129.409 334.67 127.773C338.58 126.106 343.019 125.273 347.989 125.273C353.17 125.273 357.655 126.106 361.443 127.773C365.231 129.439 368.155 131.742 370.216 134.682C372.307 137.621 373.352 141 373.352 144.818C373.352 148.667 372.201 151.818 369.898 154.273C367.625 156.697 364.655 158.439 360.989 159.5V160.227C363.686 160.409 366.08 161.227 368.17 162.682C370.261 164.136 371.898 166.061 373.08 168.455C374.261 170.848 374.852 173.561 374.852 176.591C374.852 180.864 373.67 184.561 371.307 187.682C368.973 190.803 365.731 193.212 361.58 194.909C357.458 196.576 352.746 197.409 347.443 197.409C342.292 197.409 337.67 196.606 333.58 195C329.519 193.364 326.292 191.061 323.898 188.091C321.534 185.121 320.277 181.606 320.125 177.545ZM409.205 197.545C404.78 197.545 400.78 196.727 397.205 195.091C393.629 193.424 390.795 191.015 388.705 187.864C386.644 184.712 385.614 180.848 385.614 176.273C385.614 172.333 386.371 169.091 387.886 166.545C389.402 164 391.447 161.985 394.023 160.5C396.598 159.015 399.477 157.894 402.659 157.136C405.841 156.379 409.083 155.803 412.386 155.409C416.568 154.924 419.962 154.53 422.568 154.227C425.174 153.894 427.068 153.364 428.25 152.636C429.432 151.909 430.023 150.727 430.023 149.091V148.773C430.023 144.803 428.902 141.727 426.659 139.545C424.447 137.364 421.144 136.273 416.75 136.273C412.174 136.273 408.568 137.288 405.932 139.318C403.326 141.318 401.523 143.545 400.523 146L387.75 143.091C389.265 138.848 391.477 135.424 394.386 132.818C397.326 130.182 400.705 128.273 404.523 127.091C408.341 125.879 412.356 125.273 416.568 125.273C419.356 125.273 422.311 125.606 425.432 126.273C428.583 126.909 431.523 128.091 434.25 129.818C437.008 131.545 439.265 134.015 441.023 137.227C442.78 140.409 443.659 144.545 443.659 149.636V196H430.386V186.455H429.841C428.962 188.212 427.644 189.939 425.886 191.636C424.129 193.333 421.871 194.742 419.114 195.864C416.356 196.985 413.053 197.545 409.205 197.545ZM412.159 186.636C415.917 186.636 419.129 185.894 421.795 184.409C424.492 182.924 426.538 180.985 427.932 178.591C429.356 176.167 430.068 173.576 430.068 170.818V161.818C429.583 162.303 428.644 162.758 427.25 163.182C425.886 163.576 424.326 163.924 422.568 164.227C420.811 164.5 419.098 164.758 417.432 165C415.765 165.212 414.371 165.394 413.25 165.545C410.614 165.879 408.205 166.439 406.023 167.227C403.871 168.015 402.144 169.152 400.841 170.636C399.568 172.091 398.932 174.03 398.932 176.455C398.932 179.818 400.174 182.364 402.659 184.091C405.144 185.788 408.311 186.636 412.159 186.636ZM453.102 137.909V126.182H512.011V137.909H489.239V196H475.966V137.909H453.102ZM536.614 150.182H556.886C565.432 150.182 572.008 152.303 576.614 156.545C581.22 160.788 583.523 166.258 583.523 172.955C583.523 177.318 582.492 181.242 580.432 184.727C578.371 188.212 575.356 190.97 571.386 193C567.417 195 562.583 196 556.886 196H526.386V126.182H539.705V184.273H556.886C560.795 184.273 564.008 183.258 566.523 181.227C569.038 179.167 570.295 176.545 570.295 173.364C570.295 170 569.038 167.258 566.523 165.136C564.008 162.985 560.795 161.909 556.886 161.909H536.614V150.182ZM634.216 98.5454L604.216 210H592.08L622.08 98.5454H634.216ZM675.17 197.409C668.413 197.409 662.595 195.879 657.716 192.818C652.867 189.727 649.14 185.47 646.534 180.045C643.928 174.621 642.625 168.409 642.625 161.409C642.625 154.318 643.958 148.061 646.625 142.636C649.292 137.182 653.049 132.924 657.898 129.864C662.746 126.803 668.458 125.273 675.034 125.273C680.337 125.273 685.064 126.258 689.216 128.227C693.367 130.167 696.716 132.894 699.261 136.409C701.837 139.924 703.367 144.03 703.852 148.727H690.625C689.898 145.455 688.231 142.636 685.625 140.273C683.049 137.909 679.595 136.727 675.261 136.727C671.473 136.727 668.155 137.727 665.307 139.727C662.489 141.697 660.292 144.515 658.716 148.182C657.14 151.818 656.352 156.121 656.352 161.091C656.352 166.182 657.125 170.576 658.67 174.273C660.216 177.97 662.398 180.833 665.216 182.864C668.064 184.894 671.413 185.909 675.261 185.909C677.837 185.909 680.17 185.439 682.261 184.5C684.383 183.53 686.155 182.152 687.58 180.364C689.034 178.576 690.049 176.424 690.625 173.909H703.852C703.367 178.424 701.898 182.455 699.443 186C696.989 189.545 693.701 192.333 689.58 194.364C685.489 196.394 680.686 197.409 675.17 197.409ZM718.386 196V126.182H731.977V155.455H738.523L761.568 126.182H778.386L751.341 160.136L778.705 196H761.841L740.795 168.091H731.977V196H718.386ZM789.261 222.182V126.182H802.534V137.5H803.67C804.458 136.045 805.595 134.364 807.08 132.455C808.564 130.545 810.625 128.879 813.261 127.455C815.898 126 819.383 125.273 823.716 125.273C829.352 125.273 834.383 126.697 838.807 129.545C843.231 132.394 846.701 136.5 849.216 141.864C851.761 147.227 853.034 153.682 853.034 161.227C853.034 168.773 851.777 175.242 849.261 180.636C846.746 186 843.292 190.136 838.898 193.045C834.504 195.924 829.489 197.364 823.852 197.364C819.61 197.364 816.14 196.652 813.443 195.227C810.777 193.803 808.686 192.136 807.17 190.227C805.655 188.318 804.489 186.621 803.67 185.136H802.852V222.182H789.261ZM802.58 161.091C802.58 166 803.292 170.303 804.716 174C806.14 177.697 808.201 180.591 810.898 182.682C813.595 184.742 816.898 185.773 820.807 185.773C824.867 185.773 828.261 184.697 830.989 182.545C833.716 180.364 835.777 177.409 837.17 173.682C838.595 169.955 839.307 165.758 839.307 161.091C839.307 156.485 838.61 152.348 837.216 148.682C835.852 145.015 833.792 142.121 831.034 140C828.307 137.879 824.898 136.818 820.807 136.818C816.867 136.818 813.534 137.833 810.807 139.864C808.11 141.894 806.064 144.727 804.67 148.364C803.277 152 802.58 156.242 802.58 161.091ZM878.489 150.182H898.761C907.307 150.182 913.883 152.303 918.489 156.545C923.095 160.788 925.398 166.258 925.398 172.955C925.398 177.318 924.367 181.242 922.307 184.727C920.246 188.212 917.231 190.97 913.261 193C909.292 195 904.458 196 898.761 196H868.261V126.182H881.58V184.273H898.761C902.67 184.273 905.883 183.258 908.398 181.227C910.913 179.167 912.17 176.545 912.17 173.364C912.17 170 910.913 167.258 908.398 165.136C905.883 162.985 902.67 161.909 898.761 161.909H878.489V150.182ZM935.307 196V126.182H948.898V196H935.307ZM963.227 137.909V126.182H1022.14V137.909H999.364V196H986.091V137.909H963.227ZM1046.74 150.182H1067.01C1075.56 150.182 1082.13 152.303 1086.74 156.545C1091.34 160.788 1093.65 166.258 1093.65 172.955C1093.65 177.318 1092.62 181.242 1090.56 184.727C1088.5 188.212 1085.48 190.97 1081.51 193C1077.54 195 1072.71 196 1067.01 196H1036.51V126.182H1049.83V184.273H1067.01C1070.92 184.273 1074.13 183.258 1076.65 181.227C1079.16 179.167 1080.42 176.545 1080.42 173.364C1080.42 170 1079.16 167.258 1076.65 165.136C1074.13 162.985 1070.92 161.909 1067.01 161.909H1046.74V150.182ZM1151.35 222.182C1149.32 222.182 1147.47 222.015 1145.81 221.682C1144.14 221.379 1142.9 221.045 1142.08 220.682L1145.35 209.545C1147.84 210.212 1150.05 210.5 1151.99 210.409C1153.93 210.318 1155.64 209.591 1157.12 208.227C1158.64 206.864 1159.97 204.636 1161.12 201.545L1162.81 196.909L1137.26 126.182H1151.81L1169.49 180.364H1170.22L1187.9 126.182H1202.49L1173.72 205.318C1172.38 208.955 1170.69 212.03 1168.62 214.545C1166.56 217.091 1164.11 219 1161.26 220.273C1158.41 221.545 1155.11 222.182 1151.35 222.182ZM1215.26 196V126.182H1272.22V196H1258.9V137.909H1228.49V196H1215.26ZM1290.39 222.182V126.182H1303.66V137.5H1304.8C1305.58 136.045 1306.72 134.364 1308.2 132.455C1309.69 130.545 1311.75 128.879 1314.39 127.455C1317.02 126 1320.51 125.273 1324.84 125.273C1330.48 125.273 1335.51 126.697 1339.93 129.545C1344.36 132.394 1347.83 136.5 1350.34 141.864C1352.89 147.227 1354.16 153.682 1354.16 161.227C1354.16 168.773 1352.9 175.242 1350.39 180.636C1347.87 186 1344.42 190.136 1340.02 193.045C1335.63 195.924 1330.61 197.364 1324.98 197.364C1320.73 197.364 1317.27 196.652 1314.57 195.227C1311.9 193.803 1309.81 192.136 1308.3 190.227C1306.78 188.318 1305.61 186.621 1304.8 185.136H1303.98V222.182H1290.39ZM1303.7 161.091C1303.7 166 1304.42 170.303 1305.84 174C1307.27 177.697 1309.33 180.591 1312.02 182.682C1314.72 184.742 1318.02 185.773 1321.93 185.773C1325.99 185.773 1329.39 184.697 1332.11 182.545C1334.84 180.364 1336.9 177.409 1338.3 173.682C1339.72 169.955 1340.43 165.758 1340.43 161.091C1340.43 156.485 1339.73 152.348 1338.34 148.682C1336.98 145.015 1334.92 142.121 1332.16 140C1329.43 137.879 1326.02 136.818 1321.93 136.818C1317.99 136.818 1314.66 137.833 1311.93 139.864C1309.23 141.894 1307.19 144.727 1305.8 148.364C1304.4 152 1303.7 156.242 1303.7 161.091ZM1389.7 197.545C1385.28 197.545 1381.28 196.727 1377.7 195.091C1374.13 193.424 1371.3 191.015 1369.2 187.864C1367.14 184.712 1366.11 180.848 1366.11 176.273C1366.11 172.333 1366.87 169.091 1368.39 166.545C1369.9 164 1371.95 161.985 1374.52 160.5C1377.1 159.015 1379.98 157.894 1383.16 157.136C1386.34 156.379 1389.58 155.803 1392.89 155.409C1397.07 154.924 1400.46 154.53 1403.07 154.227C1405.67 153.894 1407.57 153.364 1408.75 152.636C1409.93 151.909 1410.52 150.727 1410.52 149.091V148.773C1410.52 144.803 1409.4 141.727 1407.16 139.545C1404.95 137.364 1401.64 136.273 1397.25 136.273C1392.67 136.273 1389.07 137.288 1386.43 139.318C1383.83 141.318 1382.02 143.545 1381.02 146L1368.25 143.091C1369.77 138.848 1371.98 135.424 1374.89 132.818C1377.83 130.182 1381.2 128.273 1385.02 127.091C1388.84 125.879 1392.86 125.273 1397.07 125.273C1399.86 125.273 1402.81 125.606 1405.93 126.273C1409.08 126.909 1412.02 128.091 1414.75 129.818C1417.51 131.545 1419.77 134.015 1421.52 137.227C1423.28 140.409 1424.16 144.545 1424.16 149.636V196H1410.89V186.455H1410.34C1409.46 188.212 1408.14 189.939 1406.39 191.636C1404.63 193.333 1402.37 194.742 1399.61 195.864C1396.86 196.985 1393.55 197.545 1389.7 197.545ZM1392.66 186.636C1396.42 186.636 1399.63 185.894 1402.3 184.409C1404.99 182.924 1407.04 180.985 1408.43 178.591C1409.86 176.167 1410.57 173.576 1410.57 170.818V161.818C1410.08 162.303 1409.14 162.758 1407.75 163.182C1406.39 163.576 1404.83 163.924 1403.07 164.227C1401.31 164.5 1399.6 164.758 1397.93 165C1396.27 165.212 1394.87 165.394 1393.75 165.545C1391.11 165.879 1388.7 166.439 1386.52 167.227C1384.37 168.015 1382.64 169.152 1381.34 170.636C1380.07 172.091 1379.43 174.03 1379.43 176.455C1379.43 179.818 1380.67 182.364 1383.16 184.091C1385.64 185.788 1388.81 186.636 1392.66 186.636ZM1442.26 196V126.182H1471.22C1479.09 126.182 1485.34 127.864 1489.94 131.227C1494.55 134.561 1496.85 139.091 1496.85 144.818C1496.85 148.909 1495.55 152.152 1492.94 154.545C1490.34 156.939 1486.88 158.545 1482.58 159.364C1485.7 159.727 1488.56 160.667 1491.17 162.182C1493.78 163.667 1495.87 165.667 1497.44 168.182C1499.05 170.697 1499.85 173.697 1499.85 177.182C1499.85 180.879 1498.9 184.152 1496.99 187C1495.08 189.818 1492.31 192.03 1488.67 193.636C1485.06 195.212 1480.72 196 1475.62 196H1442.26ZM1455.03 184.636H1475.62C1478.99 184.636 1481.63 183.833 1483.53 182.227C1485.44 180.621 1486.4 178.439 1486.4 175.682C1486.4 172.439 1485.44 169.894 1483.53 168.045C1481.63 166.167 1478.99 165.227 1475.62 165.227H1455.03V184.636ZM1455.03 155.273H1471.35C1473.9 155.273 1476.08 154.909 1477.9 154.182C1479.75 153.455 1481.16 152.424 1482.12 151.091C1483.12 149.727 1483.62 148.121 1483.62 146.273C1483.62 143.576 1482.52 141.47 1480.31 139.955C1478.09 138.439 1475.06 137.682 1471.22 137.682H1455.03V155.273ZM1509.26 196L1509.22 184.227H1511.72C1513.66 184.227 1515.28 183.818 1516.58 183C1517.91 182.152 1519 180.727 1519.85 178.727C1520.7 176.727 1521.35 173.97 1521.81 170.455C1522.26 166.909 1522.59 162.455 1522.81 157.091L1524.03 126.182H1572.76V196H1559.44V137.909H1536.62L1535.53 161.636C1535.26 167.394 1534.67 172.424 1533.76 176.727C1532.88 181.03 1531.59 184.621 1529.9 187.5C1528.2 190.348 1526.02 192.485 1523.35 193.909C1520.69 195.303 1517.44 196 1513.62 196H1509.26ZM1620.98 197.409C1614.1 197.409 1608.17 195.939 1603.2 193C1598.27 190.03 1594.45 185.864 1591.75 180.5C1589.08 175.106 1587.75 168.788 1587.75 161.545C1587.75 154.394 1589.08 148.091 1591.75 142.636C1594.45 137.182 1598.2 132.924 1603.02 129.864C1607.87 126.803 1613.54 125.273 1620.02 125.273C1623.96 125.273 1627.78 125.924 1631.48 127.227C1635.17 128.53 1638.49 130.576 1641.43 133.364C1644.37 136.152 1646.69 139.773 1648.39 144.227C1650.08 148.652 1650.93 154.03 1650.93 160.364V165.182H1595.43V155H1637.61C1637.61 151.424 1636.89 148.258 1635.43 145.5C1633.98 142.712 1631.93 140.515 1629.3 138.909C1626.69 137.303 1623.63 136.5 1620.11 136.5C1616.3 136.5 1612.96 137.439 1610.11 139.318C1607.3 141.167 1605.11 143.591 1603.57 146.591C1602.05 149.561 1601.3 152.788 1601.3 156.273V164.227C1601.3 168.894 1602.11 172.864 1603.75 176.136C1605.42 179.409 1607.73 181.909 1610.7 183.636C1613.67 185.333 1617.14 186.182 1621.11 186.182C1623.69 186.182 1626.04 185.818 1628.16 185.091C1630.28 184.333 1632.11 183.212 1633.66 181.727C1635.2 180.242 1636.39 178.409 1637.2 176.227L1650.07 178.545C1649.04 182.333 1647.19 185.652 1644.52 188.5C1641.89 191.318 1638.57 193.515 1634.57 195.091C1630.6 196.636 1626.07 197.409 1620.98 197.409ZM1713.33 155.227V167H1675.51V155.227H1713.33ZM1679.33 126.182V196H1666.01V126.182H1679.33ZM1722.83 126.182V196H1709.56V126.182H1722.83ZM1754.33 176.955L1785.1 126.182H1799.74V196H1786.42V145.182L1755.78 196H1741.01V126.182H1754.33V176.955ZM1848.1 197.409C1841.22 197.409 1835.3 195.939 1830.33 193C1825.39 190.03 1821.57 185.864 1818.88 180.5C1816.21 175.106 1814.88 168.788 1814.88 161.545C1814.88 154.394 1816.21 148.091 1818.88 142.636C1821.57 137.182 1825.33 132.924 1830.15 129.864C1835 126.803 1840.66 125.273 1847.15 125.273C1851.09 125.273 1854.91 125.924 1858.6 127.227C1862.3 128.53 1865.62 130.576 1868.56 133.364C1871.5 136.152 1873.81 139.773 1875.51 144.227C1877.21 148.652 1878.06 154.03 1878.06 160.364V165.182H1822.56V155H1864.74C1864.74 151.424 1864.01 148.258 1862.56 145.5C1861.1 142.712 1859.06 140.515 1856.42 138.909C1853.81 137.303 1850.75 136.5 1847.24 136.5C1843.42 136.5 1840.09 137.439 1837.24 139.318C1834.42 141.167 1832.24 143.591 1830.69 146.591C1829.18 149.561 1828.42 152.788 1828.42 156.273V164.227C1828.42 168.894 1829.24 172.864 1830.88 176.136C1832.54 179.409 1834.86 181.909 1837.83 183.636C1840.8 185.333 1844.27 186.182 1848.24 186.182C1850.81 186.182 1853.16 185.818 1855.28 185.091C1857.41 184.333 1859.24 183.212 1860.78 181.727C1862.33 180.242 1863.51 178.409 1864.33 176.227L1877.19 178.545C1876.16 182.333 1874.31 185.652 1871.65 188.5C1869.01 191.318 1865.69 193.515 1861.69 195.091C1857.72 196.636 1853.19 197.409 1848.1 197.409ZM1902.09 196.864C1899.61 196.864 1897.47 195.985 1895.68 194.227C1893.89 192.439 1893 190.288 1893 187.773C1893 185.288 1893.89 183.167 1895.68 181.409C1897.47 179.621 1899.61 178.727 1902.09 178.727C1904.58 178.727 1906.71 179.621 1908.5 181.409C1910.29 183.167 1911.18 185.288 1911.18 187.773C1911.18 189.439 1910.76 190.97 1909.91 192.364C1909.09 193.727 1908 194.818 1906.64 195.636C1905.27 196.455 1903.76 196.864 1902.09 196.864ZM1902.09 146.045C1899.61 146.045 1897.47 145.152 1895.68 143.364C1893.89 141.576 1893 139.439 1893 136.955C1893 134.47 1893.89 132.348 1895.68 130.591C1897.47 128.803 1899.61 127.909 1902.09 127.909C1904.58 127.909 1906.71 128.803 1908.5 130.591C1910.29 132.348 1911.18 134.47 1911.18 136.955C1911.18 138.621 1910.76 140.152 1909.91 141.545C1909.09 142.909 1908 144 1906.64 144.818C1905.27 145.636 1903.76 146.045 1902.09 146.045Z" fill="black"/>
<rect x="2004" y="35" width="271" height="267" rx="33" fill="#D9D9D9" stroke="#373737" stroke-width="16"/>
<path d="M2125.65 183.037L2125.6 161.311H2128.49L2155.93 130.636H2176.96L2143.2 168.222H2139.47L2125.65 183.037ZM2109.25 207V105.182H2127.24V207H2109.25ZM2157.17 207L2132.32 172.249L2144.45 159.571L2178.7 207H2157.17Z" fill="#222222"/>
</svg>
