<svg width="2018" height="390" viewBox="0 0 2018 390" fill="none" xmlns="http://www.w3.org/2000/svg">
<path d="M91.0909 175.455C91.0909 185.394 89.2727 193.939 85.6364 201.091C82 208.212 77.0152 213.697 70.6818 217.545C64.3788 221.364 57.2121 223.273 49.1818 223.273C41.1212 223.273 33.9242 221.364 27.5909 217.545C21.2879 213.697 16.3182 208.197 12.6818 201.045C9.04545 193.894 7.22727 185.364 7.22727 175.455C7.22727 165.515 9.04545 156.985 12.6818 149.864C16.3182 142.712 21.2879 137.227 27.5909 133.409C33.9242 129.561 41.1212 127.636 49.1818 127.636C57.2121 127.636 64.3788 129.561 70.6818 133.409C77.0152 137.227 82 142.712 85.6364 149.864C89.2727 156.985 91.0909 165.515 91.0909 175.455ZM77.1818 175.455C77.1818 167.879 75.9545 161.5 73.5 156.318C71.0758 151.106 67.7424 147.167 63.5 144.5C59.2879 141.803 54.5152 140.455 49.1818 140.455C43.8182 140.455 39.0303 141.803 34.8182 144.5C30.6061 147.167 27.2727 151.106 24.8182 156.318C22.3939 161.5 21.1818 167.879 21.1818 175.455C21.1818 183.03 22.3939 189.424 24.8182 194.636C27.2727 199.818 30.6061 203.758 34.8182 206.455C39.0303 209.121 43.8182 210.455 49.1818 210.455C54.5152 210.455 59.2879 209.121 63.5 206.455C67.7424 203.758 71.0758 199.818 73.5 194.636C75.9545 189.424 77.1818 183.03 77.1818 175.455ZM103.602 163.909V152.182H162.511V163.909H139.739V222H126.466V163.909H103.602ZM176.886 222V152.182H190.477V181.455H197.023L220.068 152.182H236.886L209.841 186.136L237.205 222H220.341L199.295 194.091H190.477V222H176.886ZM247.761 248.182V152.182H261.034V163.5H262.17C262.958 162.045 264.095 160.364 265.58 158.455C267.064 156.545 269.125 154.879 271.761 153.455C274.398 152 277.883 151.273 282.216 151.273C287.852 151.273 292.883 152.697 297.307 155.545C301.731 158.394 305.201 162.5 307.716 167.864C310.261 173.227 311.534 179.682 311.534 187.227C311.534 194.773 310.277 201.242 307.761 206.636C305.246 212 301.792 216.136 297.398 219.045C293.004 221.924 287.989 223.364 282.352 223.364C278.11 223.364 274.64 222.652 271.943 221.227C269.277 219.803 267.186 218.136 265.67 216.227C264.155 214.318 262.989 212.621 262.17 211.136H261.352V248.182H247.761ZM261.08 187.091C261.08 192 261.792 196.303 263.216 200C264.64 203.697 266.701 206.591 269.398 208.682C272.095 210.742 275.398 211.773 279.307 211.773C283.367 211.773 286.761 210.697 289.489 208.545C292.216 206.364 294.277 203.409 295.67 199.682C297.095 195.955 297.807 191.758 297.807 187.091C297.807 182.485 297.11 178.348 295.716 174.682C294.352 171.015 292.292 168.121 289.534 166C286.807 163.879 283.398 162.818 279.307 162.818C275.367 162.818 272.034 163.833 269.307 165.864C266.61 167.894 264.564 170.727 263.17 174.364C261.777 178 261.08 182.242 261.08 187.091ZM336.989 176.182H357.261C365.807 176.182 372.383 178.303 376.989 182.545C381.595 186.788 383.898 192.258 383.898 198.955C383.898 203.318 382.867 207.242 380.807 210.727C378.746 214.212 375.731 216.97 371.761 219C367.792 221 362.958 222 357.261 222H326.761V152.182H340.08V210.273H357.261C361.17 210.273 364.383 209.258 366.898 207.227C369.413 205.167 370.67 202.545 370.67 199.364C370.67 196 369.413 193.258 366.898 191.136C364.383 188.985 361.17 187.909 357.261 187.909H336.989V176.182ZM393.807 222V152.182H407.398V222H393.807ZM421.727 163.909V152.182H480.636V163.909H457.864V222H444.591V163.909H421.727ZM505.239 176.182H525.511C534.057 176.182 540.633 178.303 545.239 182.545C549.845 186.788 552.148 192.258 552.148 198.955C552.148 203.318 551.117 207.242 549.057 210.727C546.996 214.212 543.981 216.97 540.011 219C536.042 221 531.208 222 525.511 222H495.011V152.182H508.33V210.273H525.511C529.42 210.273 532.633 209.258 535.148 207.227C537.663 205.167 538.92 202.545 538.92 199.364C538.92 196 537.663 193.258 535.148 191.136C532.633 188.985 529.42 187.909 525.511 187.909H505.239V176.182ZM602.841 124.545L572.841 236H560.705L590.705 124.545H602.841ZM610.25 203.545H624.159C624.341 206.394 625.629 208.591 628.023 210.136C630.447 211.682 633.583 212.455 637.432 212.455C641.341 212.455 644.674 211.621 647.432 209.955C650.189 208.258 651.568 205.636 651.568 202.091C651.568 199.97 651.038 198.121 649.977 196.545C648.947 194.939 647.477 193.697 645.568 192.818C643.689 191.939 641.462 191.5 638.886 191.5H627.523V180.818H638.886C642.735 180.818 645.614 179.939 647.523 178.182C649.432 176.424 650.386 174.227 650.386 171.591C650.386 168.742 649.356 166.455 647.295 164.727C645.265 162.97 642.432 162.091 638.795 162.091C635.098 162.091 632.023 162.924 629.568 164.591C627.114 166.227 625.826 168.348 625.705 170.955H611.977C612.068 167.045 613.25 163.621 615.523 160.682C617.826 157.712 620.917 155.409 624.795 153.773C628.705 152.106 633.144 151.273 638.114 151.273C643.295 151.273 647.78 152.106 651.568 153.773C655.356 155.439 658.28 157.742 660.341 160.682C662.432 163.621 663.477 167 663.477 170.818C663.477 174.667 662.326 177.818 660.023 180.273C657.75 182.697 654.78 184.439 651.114 185.5V186.227C653.811 186.409 656.205 187.227 658.295 188.682C660.386 190.136 662.023 192.061 663.205 194.455C664.386 196.848 664.977 199.561 664.977 202.591C664.977 206.864 663.795 210.561 661.432 213.682C659.098 216.803 655.856 219.212 651.705 220.909C647.583 222.576 642.871 223.409 637.568 223.409C632.417 223.409 627.795 222.606 623.705 221C619.644 219.364 616.417 217.061 614.023 214.091C611.659 211.121 610.402 207.606 610.25 203.545ZM699.33 223.545C694.905 223.545 690.905 222.727 687.33 221.091C683.754 219.424 680.92 217.015 678.83 213.864C676.769 210.712 675.739 206.848 675.739 202.273C675.739 198.333 676.496 195.091 678.011 192.545C679.527 190 681.572 187.985 684.148 186.5C686.723 185.015 689.602 183.894 692.784 183.136C695.966 182.379 699.208 181.803 702.511 181.409C706.693 180.924 710.087 180.53 712.693 180.227C715.299 179.894 717.193 179.364 718.375 178.636C719.557 177.909 720.148 176.727 720.148 175.091V174.773C720.148 170.803 719.027 167.727 716.784 165.545C714.572 163.364 711.269 162.273 706.875 162.273C702.299 162.273 698.693 163.288 696.057 165.318C693.451 167.318 691.648 169.545 690.648 172L677.875 169.091C679.39 164.848 681.602 161.424 684.511 158.818C687.451 156.182 690.83 154.273 694.648 153.091C698.466 151.879 702.481 151.273 706.693 151.273C709.481 151.273 712.436 151.606 715.557 152.273C718.708 152.909 721.648 154.091 724.375 155.818C727.133 157.545 729.39 160.015 731.148 163.227C732.905 166.409 733.784 170.545 733.784 175.636V222H720.511V212.455H719.966C719.087 214.212 717.769 215.939 716.011 217.636C714.254 219.333 711.996 220.742 709.239 221.864C706.481 222.985 703.178 223.545 699.33 223.545ZM702.284 212.636C706.042 212.636 709.254 211.894 711.92 210.409C714.617 208.924 716.663 206.985 718.057 204.591C719.481 202.167 720.193 199.576 720.193 196.818V187.818C719.708 188.303 718.769 188.758 717.375 189.182C716.011 189.576 714.451 189.924 712.693 190.227C710.936 190.5 709.223 190.758 707.557 191C705.89 191.212 704.496 191.394 703.375 191.545C700.739 191.879 698.33 192.439 696.148 193.227C693.996 194.015 692.269 195.152 690.966 196.636C689.693 198.091 689.057 200.03 689.057 202.455C689.057 205.818 690.299 208.364 692.784 210.091C695.269 211.788 698.436 212.636 702.284 212.636ZM751.886 222V152.182H765.477V181.455H772.023L795.068 152.182H811.886L784.841 186.136L812.205 222H795.341L774.295 194.091H765.477V222H751.886ZM822.761 248.182V152.182H836.034V163.5H837.17C837.958 162.045 839.095 160.364 840.58 158.455C842.064 156.545 844.125 154.879 846.761 153.455C849.398 152 852.883 151.273 857.216 151.273C862.852 151.273 867.883 152.697 872.307 155.545C876.731 158.394 880.201 162.5 882.716 167.864C885.261 173.227 886.534 179.682 886.534 187.227C886.534 194.773 885.277 201.242 882.761 206.636C880.246 212 876.792 216.136 872.398 219.045C868.004 221.924 862.989 223.364 857.352 223.364C853.11 223.364 849.64 222.652 846.943 221.227C844.277 219.803 842.186 218.136 840.67 216.227C839.155 214.318 837.989 212.621 837.17 211.136H836.352V248.182H822.761ZM836.08 187.091C836.08 192 836.792 196.303 838.216 200C839.64 203.697 841.701 206.591 844.398 208.682C847.095 210.742 850.398 211.773 854.307 211.773C858.367 211.773 861.761 210.697 864.489 208.545C867.216 206.364 869.277 203.409 870.67 199.682C872.095 195.955 872.807 191.758 872.807 187.091C872.807 182.485 872.11 178.348 870.716 174.682C869.352 171.015 867.292 168.121 864.534 166C861.807 163.879 858.398 162.818 854.307 162.818C850.367 162.818 847.034 163.833 844.307 165.864C841.61 167.894 839.564 170.727 838.17 174.364C836.777 178 836.08 182.242 836.08 187.091ZM911.989 176.182H932.261C940.807 176.182 947.383 178.303 951.989 182.545C956.595 186.788 958.898 192.258 958.898 198.955C958.898 203.318 957.867 207.242 955.807 210.727C953.746 214.212 950.731 216.97 946.761 219C942.792 221 937.958 222 932.261 222H901.761V152.182H915.08V210.273H932.261C936.17 210.273 939.383 209.258 941.898 207.227C944.413 205.167 945.67 202.545 945.67 199.364C945.67 196 944.413 193.258 941.898 191.136C939.383 188.985 936.17 187.909 932.261 187.909H911.989V176.182ZM968.807 222V152.182H982.398V222H968.807ZM996.727 163.909V152.182H1055.64V163.909H1032.86V222H1019.59V163.909H996.727ZM1080.24 176.182H1100.51C1109.06 176.182 1115.63 178.303 1120.24 182.545C1124.84 186.788 1127.15 192.258 1127.15 198.955C1127.15 203.318 1126.12 207.242 1124.06 210.727C1122 214.212 1118.98 216.97 1115.01 219C1111.04 221 1106.21 222 1100.51 222H1070.01V152.182H1083.33V210.273H1100.51C1104.42 210.273 1107.63 209.258 1110.15 207.227C1112.66 205.167 1113.92 202.545 1113.92 199.364C1113.92 196 1112.66 193.258 1110.15 191.136C1107.63 188.985 1104.42 187.909 1100.51 187.909H1080.24V176.182ZM1172.35 163.909V152.182H1231.26V163.909H1208.49V222H1195.22V163.909H1172.35ZM1272.48 223.409C1265.6 223.409 1259.67 221.939 1254.7 219C1249.77 216.03 1245.95 211.864 1243.25 206.5C1240.58 201.106 1239.25 194.788 1239.25 187.545C1239.25 180.394 1240.58 174.091 1243.25 168.636C1245.95 163.182 1249.7 158.924 1254.52 155.864C1259.37 152.803 1265.04 151.273 1271.52 151.273C1275.46 151.273 1279.28 151.924 1282.98 153.227C1286.67 154.53 1289.99 156.576 1292.93 159.364C1295.87 162.152 1298.19 165.773 1299.89 170.227C1301.58 174.652 1302.43 180.03 1302.43 186.364V191.182H1246.93V181H1289.11C1289.11 177.424 1288.39 174.258 1286.93 171.5C1285.48 168.712 1283.43 166.515 1280.8 164.909C1278.19 163.303 1275.13 162.5 1271.61 162.5C1267.8 162.5 1264.46 163.439 1261.61 165.318C1258.8 167.167 1256.61 169.591 1255.07 172.591C1253.55 175.561 1252.8 178.788 1252.8 182.273V190.227C1252.8 194.894 1253.61 198.864 1255.25 202.136C1256.92 205.409 1259.23 207.909 1262.2 209.636C1265.17 211.333 1268.64 212.182 1272.61 212.182C1275.19 212.182 1277.54 211.818 1279.66 211.091C1281.78 210.333 1283.61 209.212 1285.16 207.727C1286.7 206.242 1287.89 204.409 1288.7 202.227L1301.57 204.545C1300.54 208.333 1298.69 211.652 1296.02 214.5C1293.39 217.318 1290.07 219.515 1286.07 221.091C1282.1 222.636 1277.57 223.409 1272.48 223.409ZM1346.92 223.409C1340.38 223.409 1334.66 221.909 1329.78 218.909C1324.91 215.909 1321.12 211.712 1318.42 206.318C1315.72 200.924 1314.38 194.621 1314.38 187.409C1314.38 180.167 1315.72 173.833 1318.42 168.409C1321.12 162.985 1324.91 158.773 1329.78 155.773C1334.66 152.773 1340.38 151.273 1346.92 151.273C1353.47 151.273 1359.18 152.773 1364.06 155.773C1368.94 158.773 1372.72 162.985 1375.42 168.409C1378.12 173.833 1379.47 180.167 1379.47 187.409C1379.47 194.621 1378.12 200.924 1375.42 206.318C1372.72 211.712 1368.94 215.909 1364.06 218.909C1359.18 221.909 1353.47 223.409 1346.92 223.409ZM1346.97 212C1351.21 212 1354.72 210.879 1357.51 208.636C1360.3 206.394 1362.36 203.409 1363.69 199.682C1365.06 195.955 1365.74 191.848 1365.74 187.364C1365.74 182.909 1365.06 178.818 1363.69 175.091C1362.36 171.333 1360.3 168.318 1357.51 166.045C1354.72 163.773 1351.21 162.636 1346.97 162.636C1342.69 162.636 1339.15 163.773 1336.33 166.045C1333.54 168.318 1331.47 171.333 1330.1 175.091C1328.77 178.818 1328.1 182.909 1328.1 187.364C1328.1 191.848 1328.77 195.955 1330.1 199.682C1331.47 203.409 1333.54 206.394 1336.33 208.636C1339.15 210.879 1342.69 212 1346.97 212ZM1394.64 248.182V152.182H1407.91V163.5H1409.05C1409.83 162.045 1410.97 160.364 1412.45 158.455C1413.94 156.545 1416 154.879 1418.64 153.455C1421.27 152 1424.76 151.273 1429.09 151.273C1434.73 151.273 1439.76 152.697 1444.18 155.545C1448.61 158.394 1452.08 162.5 1454.59 167.864C1457.14 173.227 1458.41 179.682 1458.41 187.227C1458.41 194.773 1457.15 201.242 1454.64 206.636C1452.12 212 1448.67 216.136 1444.27 219.045C1439.88 221.924 1434.86 223.364 1429.23 223.364C1424.98 223.364 1421.52 222.652 1418.82 221.227C1416.15 219.803 1414.06 218.136 1412.55 216.227C1411.03 214.318 1409.86 212.621 1409.05 211.136H1408.23V248.182H1394.64ZM1407.95 187.091C1407.95 192 1408.67 196.303 1410.09 200C1411.52 203.697 1413.58 206.591 1416.27 208.682C1418.97 210.742 1422.27 211.773 1426.18 211.773C1430.24 211.773 1433.64 210.697 1436.36 208.545C1439.09 206.364 1441.15 203.409 1442.55 199.682C1443.97 195.955 1444.68 191.758 1444.68 187.091C1444.68 182.485 1443.98 178.348 1442.59 174.682C1441.23 171.015 1439.17 168.121 1436.41 166C1433.68 163.879 1430.27 162.818 1426.18 162.818C1422.24 162.818 1418.91 163.833 1416.18 165.864C1413.48 167.894 1411.44 170.727 1410.05 174.364C1408.65 178 1407.95 182.242 1407.95 187.091ZM1486.95 202.955L1517.73 152.182H1532.36V222H1519.05V171.182L1488.41 222H1473.64V152.182H1486.95V202.955ZM1585.77 181.727V193.545H1548.55V181.727H1585.77ZM1559.59 152.182V222H1546V152.182H1559.59ZM1607.05 223.409C1600.56 223.409 1594.89 221.894 1590.05 218.864C1585.2 215.833 1581.44 211.621 1578.77 206.227C1576.11 200.803 1574.77 194.515 1574.77 187.364C1574.77 180.152 1576.11 173.848 1578.77 168.455C1581.44 163.03 1585.2 158.818 1590.05 155.818C1594.89 152.788 1600.56 151.273 1607.05 151.273C1613.56 151.273 1619.23 152.788 1624.05 155.818C1628.89 158.818 1632.65 163.03 1635.32 168.455C1638.02 173.848 1639.36 180.152 1639.36 187.364C1639.36 194.515 1638.02 200.803 1635.32 206.227C1632.65 211.621 1628.89 215.833 1624.05 218.864C1619.23 221.894 1613.56 223.409 1607.05 223.409ZM1607.05 211.773C1611.44 211.773 1615.03 210.667 1617.82 208.455C1620.64 206.212 1622.71 203.242 1624.05 199.545C1625.38 195.848 1626.05 191.788 1626.05 187.364C1626.05 182.909 1625.38 178.833 1624.05 175.136C1622.71 171.409 1620.64 168.424 1617.82 166.182C1615.03 163.939 1611.44 162.818 1607.05 162.818C1602.68 162.818 1599.09 163.939 1596.27 166.182C1593.45 168.424 1591.38 171.409 1590.05 175.136C1588.71 178.833 1588.05 182.909 1588.05 187.364C1588.05 191.788 1588.71 195.848 1590.05 199.545C1591.38 203.242 1593.45 206.212 1596.27 208.455C1599.09 210.667 1602.68 211.773 1607.05 211.773ZM1664.34 222.864C1661.86 222.864 1659.72 221.985 1657.93 220.227C1656.14 218.439 1655.25 216.288 1655.25 213.773C1655.25 211.288 1656.14 209.167 1657.93 207.409C1659.72 205.621 1661.86 204.727 1664.34 204.727C1666.83 204.727 1668.96 205.621 1670.75 207.409C1672.54 209.167 1673.43 211.288 1673.43 213.773C1673.43 215.439 1673.01 216.97 1672.16 218.364C1671.34 219.727 1670.25 220.818 1668.89 221.636C1667.52 222.455 1666.01 222.864 1664.34 222.864ZM1664.34 172.045C1661.86 172.045 1659.72 171.152 1657.93 169.364C1656.14 167.576 1655.25 165.439 1655.25 162.955C1655.25 160.47 1656.14 158.348 1657.93 156.591C1659.72 154.803 1661.86 153.909 1664.34 153.909C1666.83 153.909 1668.96 154.803 1670.75 156.591C1672.54 158.348 1673.43 160.47 1673.43 162.955C1673.43 164.621 1673.01 166.152 1672.16 167.545C1671.34 168.909 1670.25 170 1668.89 170.818C1667.52 171.636 1666.01 172.045 1664.34 172.045Z" fill="black"/>
<rect x="1739" y="61" width="271" height="267" rx="33" fill="#D9D9D9" stroke="#373737" stroke-width="16"/>
<path d="M1856.25 245V168.636H1873.7V181.364H1874.49C1875.88 176.955 1878.27 173.558 1881.65 171.172C1885.07 168.752 1888.96 167.543 1893.34 167.543C1894.33 167.543 1895.44 167.592 1896.67 167.692C1897.93 167.758 1898.97 167.874 1899.8 168.04V184.595C1899.04 184.33 1897.83 184.098 1896.17 183.899C1894.54 183.667 1892.97 183.551 1891.45 183.551C1888.16 183.551 1885.21 184.264 1882.6 185.689C1880.01 187.081 1877.97 189.02 1876.48 191.506C1874.99 193.991 1874.24 196.858 1874.24 200.107V245H1856.25Z" fill="#222222"/>
</svg>
