<svg width="420" height="595" viewBox="0 0 420 595" fill="none" xmlns="http://www.w3.org/2000/svg">
<g clip-path="url(#clip0_62_113)">
<path d="M210 122.5C210 103.935 202.625 86.1301 189.497 73.0025C176.37 59.875 158.565 52.5 140 52.5H35V315H157.5C171.424 315 184.777 320.531 194.623 330.377C204.469 340.223 210 353.576 210 367.5M210 122.5V367.5M210 122.5C210 103.935 217.375 86.1301 230.503 73.0025C243.63 59.875 261.435 52.5 280 52.5H385V315H262.5C248.576 315 235.223 320.531 225.377 330.377C215.531 340.223 210 353.576 210 367.5" stroke="#1E1E1E" stroke-width="4" stroke-linecap="round" stroke-linejoin="round"/>
<path d="M41.4764 380.239V374.273H94.2108V380.239H71.1639V447H64.5233V380.239H41.4764ZM121.99 448.136C116.9 448.136 112.496 446.953 108.779 444.585C105.062 442.194 102.186 438.892 100.15 434.678C98.1377 430.44 97.1316 425.563 97.1316 420.047C97.1316 414.554 98.1377 409.678 100.15 405.416C102.186 401.131 104.991 397.781 108.566 395.366C112.165 392.928 116.32 391.709 121.031 391.709C123.99 391.709 126.843 392.253 129.589 393.342C132.335 394.408 134.797 396.053 136.975 398.278C139.177 400.48 140.917 403.262 142.195 406.624C143.474 409.962 144.113 413.915 144.113 418.484V421.609H101.499V416.034H137.65C137.65 412.53 136.94 409.382 135.519 406.588C134.123 403.771 132.169 401.545 129.66 399.912C127.174 398.278 124.298 397.462 121.031 397.462C117.574 397.462 114.532 398.385 111.904 400.232C109.276 402.078 107.217 404.517 105.725 407.547C104.258 410.577 103.512 413.892 103.488 417.49V420.828C103.488 425.161 104.234 428.948 105.725 432.192C107.24 435.411 109.383 437.909 112.153 439.685C114.923 441.46 118.202 442.348 121.99 442.348C124.57 442.348 126.831 441.946 128.772 441.141C130.737 440.336 132.383 439.259 133.708 437.909C135.058 436.536 136.076 435.033 136.762 433.399L142.764 435.352C141.935 437.649 140.574 439.768 138.68 441.709C136.81 443.65 134.466 445.213 131.649 446.396C128.855 447.556 125.635 448.136 121.99 448.136ZM179.243 448.136C174.532 448.136 170.365 446.941 166.743 444.55C163.144 442.159 160.327 438.856 158.291 434.642C156.255 430.404 155.237 425.516 155.237 419.976C155.237 414.389 156.255 409.476 158.291 405.239C160.327 400.977 163.144 397.663 166.743 395.295C170.365 392.904 174.532 391.709 179.243 391.709C183.954 391.709 188.109 392.904 191.707 395.295C195.306 397.687 198.123 401.001 200.159 405.239C202.219 409.476 203.248 414.389 203.248 419.976C203.248 425.516 202.23 430.404 200.194 434.642C198.158 438.856 195.329 442.159 191.707 444.55C188.109 446.941 183.954 448.136 179.243 448.136ZM179.243 442.348C183.031 442.348 186.238 441.33 188.866 439.294C191.494 437.258 193.483 434.547 194.832 431.162C196.205 427.777 196.892 424.048 196.892 419.976C196.892 415.904 196.205 412.163 194.832 408.754C193.483 405.345 191.494 402.611 188.866 400.551C186.238 398.491 183.031 397.462 179.243 397.462C175.479 397.462 172.271 398.491 169.619 400.551C166.991 402.611 164.991 405.345 163.618 408.754C162.268 412.163 161.594 415.904 161.594 419.976C161.594 424.048 162.268 427.777 163.618 431.162C164.991 434.547 166.991 437.258 169.619 439.294C172.247 441.33 175.455 442.348 179.243 442.348ZM217.124 467.455V392.455H223.268V402.859H224.014C224.771 401.226 225.813 399.557 227.139 397.852C228.464 396.124 230.216 394.668 232.394 393.484C234.596 392.301 237.366 391.709 240.704 391.709C245.202 391.709 249.132 392.893 252.494 395.26C255.879 397.604 258.507 400.894 260.377 405.132C262.271 409.346 263.218 414.259 263.218 419.869C263.218 425.504 262.271 430.44 260.377 434.678C258.507 438.915 255.879 442.218 252.494 444.585C249.132 446.953 245.226 448.136 240.775 448.136C237.484 448.136 234.726 447.545 232.501 446.361C230.299 445.177 228.512 443.721 227.139 441.993C225.789 440.241 224.748 438.536 224.014 436.879H223.445V467.455H217.124ZM223.374 419.763C223.374 424.166 224.026 428.072 225.328 431.482C226.653 434.867 228.547 437.53 231.009 439.472C233.495 441.389 236.502 442.348 240.029 442.348C243.651 442.348 246.705 441.354 249.191 439.365C251.701 437.353 253.606 434.642 254.909 431.233C256.234 427.824 256.897 424 256.897 419.763C256.897 415.572 256.246 411.796 254.944 408.435C253.666 405.073 251.772 402.41 249.262 400.445C246.753 398.456 243.675 397.462 240.029 397.462C236.478 397.462 233.46 398.42 230.974 400.338C228.488 402.232 226.594 404.86 225.292 408.222C224.014 411.56 223.374 415.407 223.374 419.763ZM283.406 438.016L312.206 392.455H319.77V447H313.449V401.439L284.756 447H277.085V392.455H283.406V438.016ZM369.273 447V398.314H354.252C350.345 398.338 347.374 399.154 345.338 400.764C343.326 402.374 342.32 404.777 342.32 407.973C342.32 411.169 343.279 413.572 345.196 415.182C347.114 416.768 349.907 417.561 353.577 417.561H371.048V423.527H353.577C349.813 423.527 346.617 422.923 343.989 421.716C341.385 420.509 339.396 418.745 338.023 416.425C336.65 414.105 335.963 411.287 335.963 407.973C335.963 404.635 336.662 401.818 338.058 399.521C339.479 397.201 341.55 395.449 344.273 394.266C347.019 393.058 350.345 392.455 354.252 392.455H375.31V447H369.273ZM332.519 447L348.215 419.869H355.139L339.443 447H332.519ZM154.762 537.318C154.762 528.795 155.839 520.746 157.994 513.17C160.148 505.595 163.237 498.492 167.262 491.864H173.015C171.287 494.657 169.701 497.818 168.256 501.345C166.836 504.873 165.605 508.637 164.563 512.638C163.522 516.639 162.717 520.734 162.148 524.925C161.58 529.091 161.296 533.223 161.296 537.318C161.296 542.787 161.793 548.303 162.788 553.866C163.782 559.43 165.155 564.709 166.907 569.705C168.683 574.7 170.719 579.056 173.015 582.773H167.262C163.237 576.12 160.148 569.006 157.994 561.43C155.839 553.855 154.762 545.817 154.762 537.318ZM188.116 568V495.273H211.589C216.75 495.273 221.059 496.208 224.515 498.078C227.995 499.925 230.611 502.493 232.363 505.784C234.139 509.051 235.027 512.804 235.027 517.041C235.027 521.279 234.139 525.019 232.363 528.263C230.611 531.506 228.007 534.039 224.551 535.862C221.094 537.685 216.809 538.597 211.696 538.597H191.703V532.524H211.518C215.306 532.524 218.455 531.897 220.964 530.642C223.497 529.387 225.379 527.6 226.61 525.28C227.865 522.96 228.493 520.214 228.493 517.041C228.493 513.869 227.865 511.099 226.61 508.732C225.356 506.34 223.462 504.494 220.929 503.192C218.419 501.89 215.247 501.239 211.412 501.239H194.757V568H188.116ZM220.183 535.188L238.081 568H230.41L212.69 535.188H220.183ZM265.229 531.636C265.229 540.159 264.152 548.208 261.998 555.784C259.843 563.36 256.754 570.462 252.729 577.091H246.976C248.704 574.297 250.279 571.137 251.699 567.609C253.143 564.082 254.386 560.318 255.428 556.317C256.47 552.316 257.275 548.22 257.843 544.03C258.411 539.839 258.695 535.708 258.695 531.636C258.695 526.168 258.198 520.652 257.203 515.088C256.209 509.525 254.824 504.245 253.049 499.25C251.297 494.255 249.273 489.899 246.976 486.182H252.729C256.754 492.834 259.843 499.948 261.998 507.524C264.152 515.1 265.229 523.137 265.229 531.636Z" fill="black"/>
</g>
<defs>
<clipPath id="clip0_62_113">
<rect width="420" height="595" fill="white"/>
</clipPath>
</defs>
</svg>
