<svg width="926" height="390" viewBox="0 0 926 390" fill="none" xmlns="http://www.w3.org/2000/svg">
<g clip-path="url(#clip0_100_66)">
<path d="M83 128.909V222H69V140.909H25.1818V222H11.1818V128.909H83ZM123.705 223.545C119.28 223.545 115.28 222.727 111.705 221.091C108.129 219.424 105.295 217.015 103.205 213.864C101.144 210.712 100.114 206.848 100.114 202.273C100.114 198.333 100.871 195.091 102.386 192.545C103.902 190 105.947 187.985 108.523 186.5C111.098 185.015 113.977 183.894 117.159 183.136C120.341 182.379 123.583 181.803 126.886 181.409C131.068 180.924 134.462 180.53 137.068 180.227C139.674 179.894 141.568 179.364 142.75 178.636C143.932 177.909 144.523 176.727 144.523 175.091V174.773C144.523 170.803 143.402 167.727 141.159 165.545C138.947 163.364 135.644 162.273 131.25 162.273C126.674 162.273 123.068 163.288 120.432 165.318C117.826 167.318 116.023 169.545 115.023 172L102.25 169.091C103.765 164.848 105.977 161.424 108.886 158.818C111.826 156.182 115.205 154.273 119.023 153.091C122.841 151.879 126.856 151.273 131.068 151.273C133.856 151.273 136.811 151.606 139.932 152.273C143.083 152.909 146.023 154.091 148.75 155.818C151.508 157.545 153.765 160.015 155.523 163.227C157.28 166.409 158.159 170.545 158.159 175.636V222H144.886V212.455H144.341C143.462 214.212 142.144 215.939 140.386 217.636C138.629 219.333 136.371 220.742 133.614 221.864C130.856 222.985 127.553 223.545 123.705 223.545ZM126.659 212.636C130.417 212.636 133.629 211.894 136.295 210.409C138.992 208.924 141.038 206.985 142.432 204.591C143.856 202.167 144.568 199.576 144.568 196.818V187.818C144.083 188.303 143.144 188.758 141.75 189.182C140.386 189.576 138.826 189.924 137.068 190.227C135.311 190.5 133.598 190.758 131.932 191C130.265 191.212 128.871 191.394 127.75 191.545C125.114 191.879 122.705 192.439 120.523 193.227C118.371 194.015 116.644 195.152 115.341 196.636C114.068 198.091 113.432 200.03 113.432 202.455C113.432 205.818 114.674 208.364 117.159 210.091C119.644 211.788 122.811 212.636 126.659 212.636ZM182.352 248.182C180.322 248.182 178.473 248.015 176.807 247.682C175.14 247.379 173.898 247.045 173.08 246.682L176.352 235.545C178.837 236.212 181.049 236.5 182.989 236.409C184.928 236.318 186.64 235.591 188.125 234.227C189.64 232.864 190.973 230.636 192.125 227.545L193.807 222.909L168.261 152.182H182.807L200.489 206.364H201.216L218.898 152.182H233.489L204.716 231.318C203.383 234.955 201.686 238.03 199.625 240.545C197.564 243.091 195.11 245 192.261 246.273C189.413 247.545 186.11 248.182 182.352 248.182ZM242.125 203.545H256.034C256.216 206.394 257.504 208.591 259.898 210.136C262.322 211.682 265.458 212.455 269.307 212.455C273.216 212.455 276.549 211.621 279.307 209.955C282.064 208.258 283.443 205.636 283.443 202.091C283.443 199.97 282.913 198.121 281.852 196.545C280.822 194.939 279.352 193.697 277.443 192.818C275.564 191.939 273.337 191.5 270.761 191.5H259.398V180.818H270.761C274.61 180.818 277.489 179.939 279.398 178.182C281.307 176.424 282.261 174.227 282.261 171.591C282.261 168.742 281.231 166.455 279.17 164.727C277.14 162.97 274.307 162.091 270.67 162.091C266.973 162.091 263.898 162.924 261.443 164.591C258.989 166.227 257.701 168.348 257.58 170.955H243.852C243.943 167.045 245.125 163.621 247.398 160.682C249.701 157.712 252.792 155.409 256.67 153.773C260.58 152.106 265.019 151.273 269.989 151.273C275.17 151.273 279.655 152.106 283.443 153.773C287.231 155.439 290.155 157.742 292.216 160.682C294.307 163.621 295.352 167 295.352 170.818C295.352 174.667 294.201 177.818 291.898 180.273C289.625 182.697 286.655 184.439 282.989 185.5V186.227C285.686 186.409 288.08 187.227 290.17 188.682C292.261 190.136 293.898 192.061 295.08 194.455C296.261 196.848 296.852 199.561 296.852 202.591C296.852 206.864 295.67 210.561 293.307 213.682C290.973 216.803 287.731 219.212 283.58 220.909C279.458 222.576 274.746 223.409 269.443 223.409C264.292 223.409 259.67 222.606 255.58 221C251.519 219.364 248.292 217.061 245.898 214.091C243.534 211.121 242.277 207.606 242.125 203.545ZM331.205 223.545C326.78 223.545 322.78 222.727 319.205 221.091C315.629 219.424 312.795 217.015 310.705 213.864C308.644 210.712 307.614 206.848 307.614 202.273C307.614 198.333 308.371 195.091 309.886 192.545C311.402 190 313.447 187.985 316.023 186.5C318.598 185.015 321.477 183.894 324.659 183.136C327.841 182.379 331.083 181.803 334.386 181.409C338.568 180.924 341.962 180.53 344.568 180.227C347.174 179.894 349.068 179.364 350.25 178.636C351.432 177.909 352.023 176.727 352.023 175.091V174.773C352.023 170.803 350.902 167.727 348.659 165.545C346.447 163.364 343.144 162.273 338.75 162.273C334.174 162.273 330.568 163.288 327.932 165.318C325.326 167.318 323.523 169.545 322.523 172L309.75 169.091C311.265 164.848 313.477 161.424 316.386 158.818C319.326 156.182 322.705 154.273 326.523 153.091C330.341 151.879 334.356 151.273 338.568 151.273C341.356 151.273 344.311 151.606 347.432 152.273C350.583 152.909 353.523 154.091 356.25 155.818C359.008 157.545 361.265 160.015 363.023 163.227C364.78 166.409 365.659 170.545 365.659 175.636V222H352.386V212.455H351.841C350.962 214.212 349.644 215.939 347.886 217.636C346.129 219.333 343.871 220.742 341.114 221.864C338.356 222.985 335.053 223.545 331.205 223.545ZM334.159 212.636C337.917 212.636 341.129 211.894 343.795 210.409C346.492 208.924 348.538 206.985 349.932 204.591C351.356 202.167 352.068 199.576 352.068 196.818V187.818C351.583 188.303 350.644 188.758 349.25 189.182C347.886 189.576 346.326 189.924 344.568 190.227C342.811 190.5 341.098 190.758 339.432 191C337.765 191.212 336.371 191.394 335.25 191.545C332.614 191.879 330.205 192.439 328.023 193.227C325.871 194.015 324.144 195.152 322.841 196.636C321.568 198.091 320.932 200.03 320.932 202.455C320.932 205.818 322.174 208.364 324.659 210.091C327.144 211.788 330.311 212.636 334.159 212.636ZM392.716 222.864C390.231 222.864 388.095 221.985 386.307 220.227C384.519 218.439 383.625 216.288 383.625 213.773C383.625 211.288 384.519 209.167 386.307 207.409C388.095 205.621 390.231 204.727 392.716 204.727C395.201 204.727 397.337 205.621 399.125 207.409C400.913 209.167 401.807 211.288 401.807 213.773C401.807 215.439 401.383 216.97 400.534 218.364C399.716 219.727 398.625 220.818 397.261 221.636C395.898 222.455 394.383 222.864 392.716 222.864ZM392.716 172.045C390.231 172.045 388.095 171.152 386.307 169.364C384.519 167.576 383.625 165.439 383.625 162.955C383.625 160.47 384.519 158.348 386.307 156.591C388.095 154.803 390.231 153.909 392.716 153.909C395.201 153.909 397.337 154.803 399.125 156.591C400.913 158.348 401.807 160.47 401.807 162.955C401.807 164.621 401.383 166.152 400.534 167.545C399.716 168.909 398.625 170 397.261 170.818C395.898 171.636 394.383 172.045 392.716 172.045Z" fill="black"/>
<rect x="464" y="61" width="429" height="267" rx="33" fill="#D9D9D9" stroke="#373737" stroke-width="16"/>
<path d="M618.379 156.636V170.557H574.48V156.636H618.379ZM585.318 138.341H603.315V210.031C603.315 212.451 603.68 214.307 604.409 215.599C605.171 216.859 606.166 217.721 607.392 218.185C608.618 218.649 609.977 218.881 611.469 218.881C612.596 218.881 613.623 218.798 614.551 218.632C615.512 218.466 616.241 218.317 616.739 218.185L619.771 232.254C618.81 232.586 617.435 232.95 615.645 233.348C613.888 233.746 611.734 233.978 609.182 234.044C604.674 234.177 600.614 233.497 597.001 232.006C593.389 230.481 590.522 228.128 588.401 224.946C586.313 221.764 585.285 217.787 585.318 213.014V138.341ZM655.405 234.541C650.566 234.541 646.208 233.679 642.33 231.956C638.485 230.199 635.436 227.614 633.182 224.2C630.962 220.786 629.851 216.577 629.851 211.572C629.851 207.264 630.647 203.701 632.238 200.884C633.828 198.066 635.999 195.812 638.75 194.122C641.501 192.432 644.6 191.156 648.047 190.294C651.527 189.399 655.123 188.753 658.836 188.355C663.31 187.891 666.939 187.477 669.723 187.112C672.507 186.714 674.529 186.118 675.789 185.322C677.081 184.494 677.728 183.218 677.728 181.494V181.196C677.728 177.451 676.617 174.551 674.397 172.496C672.176 170.441 668.978 169.413 664.801 169.413C660.393 169.413 656.897 170.375 654.311 172.297C651.759 174.219 650.036 176.49 649.141 179.108L632.337 176.722C633.663 172.081 635.85 168.204 638.9 165.088C641.949 161.939 645.677 159.586 650.086 158.028C654.494 156.438 659.366 155.642 664.702 155.642C668.381 155.642 672.043 156.073 675.689 156.935C679.335 157.796 682.666 159.222 685.682 161.21C688.698 163.166 691.118 165.834 692.941 169.214C694.797 172.595 695.725 176.821 695.725 181.892V233H678.424V222.51H677.827C676.733 224.631 675.192 226.62 673.203 228.476C671.248 230.299 668.779 231.774 665.796 232.901C662.846 233.994 659.382 234.541 655.405 234.541ZM660.078 221.317C663.691 221.317 666.823 220.604 669.475 219.179C672.126 217.721 674.165 215.798 675.59 213.412C677.048 211.026 677.777 208.424 677.777 205.607V196.608C677.214 197.072 676.253 197.503 674.894 197.901C673.568 198.298 672.077 198.646 670.419 198.945C668.762 199.243 667.122 199.508 665.498 199.74C663.873 199.972 662.465 200.171 661.272 200.337C658.587 200.701 656.184 201.298 654.063 202.126C651.942 202.955 650.268 204.115 649.042 205.607C647.815 207.065 647.202 208.954 647.202 211.274C647.202 214.589 648.412 217.091 650.831 218.781C653.251 220.472 656.333 221.317 660.078 221.317ZM714.617 233V131.182H732.614V169.264H733.36C734.288 167.408 735.597 165.436 737.287 163.348C738.978 161.227 741.265 159.42 744.148 157.929C747.032 156.404 750.711 155.642 755.185 155.642C761.085 155.642 766.404 157.15 771.144 160.166C775.917 163.149 779.695 167.574 782.479 173.44C785.296 179.274 786.705 186.433 786.705 194.918C786.705 203.303 785.329 210.429 782.578 216.295C779.828 222.162 776.082 226.636 771.343 229.719C766.603 232.801 761.234 234.342 755.235 234.342C750.86 234.342 747.23 233.613 744.347 232.155C741.463 230.696 739.143 228.94 737.387 226.885C735.663 224.797 734.321 222.825 733.36 220.969H732.316V233H714.617ZM732.266 194.818C732.266 199.757 732.962 204.082 734.354 207.794C735.779 211.506 737.818 214.406 740.469 216.494C743.154 218.549 746.402 219.577 750.213 219.577C754.191 219.577 757.522 218.516 760.206 216.395C762.891 214.241 764.913 211.307 766.272 207.595C767.664 203.85 768.36 199.591 768.36 194.818C768.36 190.079 767.68 185.869 766.321 182.19C764.962 178.511 762.941 175.628 760.256 173.54C757.571 171.452 754.224 170.408 750.213 170.408C746.369 170.408 743.104 171.419 740.419 173.44C737.735 175.462 735.696 178.296 734.304 181.942C732.945 185.588 732.266 189.88 732.266 194.818Z" fill="#222222"/>
</g>
<defs>
<clipPath id="clip0_100_66">
<rect width="926" height="390" fill="white"/>
</clipPath>
</defs>
</svg>
