<svg width="420" height="595" viewBox="0 0 420 595" fill="none" xmlns="http://www.w3.org/2000/svg">
<g clip-path="url(#clip0_62_173)">
<path d="M77.081 374.273H84.7514L111.136 437.625H111.776L138.161 374.273H145.831V447H139.581V388.3H139.013L114.474 447H108.438L83.8991 388.3H83.331V447H77.081V374.273ZM185.906 448.136C180.816 448.136 176.412 446.953 172.695 444.585C168.978 442.194 166.102 438.892 164.066 434.678C162.054 430.44 161.048 425.563 161.048 420.047C161.048 414.554 162.054 409.678 164.066 405.416C166.102 401.131 168.907 397.781 172.482 395.366C176.081 392.928 180.236 391.709 184.947 391.709C187.906 391.709 190.759 392.253 193.505 393.342C196.251 394.408 198.713 396.053 200.891 398.278C203.093 400.48 204.833 403.262 206.112 406.624C207.39 409.962 208.029 413.915 208.029 418.484V421.609H165.415V416.034H201.566C201.566 412.53 200.856 409.382 199.435 406.588C198.039 403.771 196.085 401.545 193.576 399.912C191.09 398.278 188.214 397.462 184.947 397.462C181.49 397.462 178.448 398.385 175.82 400.232C173.192 402.078 171.133 404.517 169.641 407.547C168.174 410.577 167.428 413.892 167.404 417.49V420.828C167.404 425.161 168.15 428.948 169.641 432.192C171.156 435.411 173.299 437.909 176.069 439.685C178.839 441.46 182.118 442.348 185.906 442.348C188.486 442.348 190.747 441.946 192.688 441.141C194.653 440.336 196.299 439.259 197.624 437.909C198.974 436.536 199.992 435.033 200.678 433.399L206.68 435.352C205.851 437.649 204.49 439.768 202.596 441.709C200.726 443.65 198.382 445.213 195.565 446.396C192.771 447.556 189.551 448.136 185.906 448.136ZM258.784 416.78V422.746H226.717V416.78H258.784ZM228.279 392.455V447H221.958V392.455H228.279ZM263.436 392.455V447H257.115V392.455H263.436ZM303.732 417.312V423.278H277.063V417.312H303.732ZM282.141 392.455V447H275.785V392.455H282.141ZM322.021 448.136C317.309 448.136 313.155 446.941 309.556 444.55C305.958 442.159 303.129 438.856 301.069 434.642C299.033 430.404 298.015 425.516 298.015 419.976C298.015 414.389 299.033 409.476 301.069 405.239C303.129 400.977 305.958 397.663 309.556 395.295C313.155 392.904 317.309 391.709 322.021 391.709C326.732 391.709 330.887 392.904 334.485 395.295C338.107 397.687 340.936 401.001 342.972 405.239C345.008 409.476 346.026 414.389 346.026 419.976C346.026 425.516 345.008 430.404 342.972 434.642C340.936 438.856 338.107 442.159 334.485 444.55C330.887 446.941 326.732 448.136 322.021 448.136ZM322.021 442.348C325.808 442.348 329.016 441.33 331.644 439.294C334.272 437.258 336.272 434.547 337.646 431.162C339.019 427.777 339.705 424.048 339.705 419.976C339.705 415.904 339.019 412.163 337.646 408.754C336.272 405.345 334.272 402.611 331.644 400.551C329.016 398.491 325.808 397.462 322.021 397.462C318.256 397.462 315.06 398.491 312.433 400.551C309.805 402.611 307.804 405.345 306.431 408.754C305.058 412.163 304.371 415.904 304.371 419.976C304.371 424.048 305.046 427.777 306.396 431.162C307.769 434.547 309.769 437.258 312.397 439.294C315.049 441.33 318.256 442.348 322.021 442.348ZM100.465 537.318C100.465 528.795 101.542 520.746 103.697 513.17C105.851 505.595 108.941 498.492 112.965 491.864H118.718C116.99 494.657 115.404 497.818 113.96 501.345C112.539 504.873 111.308 508.637 110.266 512.638C109.225 516.639 108.42 520.734 107.852 524.925C107.283 529.091 106.999 533.223 106.999 537.318C106.999 542.787 107.496 548.303 108.491 553.866C109.485 559.43 110.858 564.709 112.61 569.705C114.386 574.7 116.422 579.056 118.718 582.773H112.965C108.941 576.12 105.851 569.006 103.697 561.43C101.542 553.855 100.465 545.817 100.465 537.318ZM129.416 501.239V495.273H182.15V501.239H159.103V568H152.463V501.239H129.416ZM203.599 569.243C200.308 569.243 197.302 568.604 194.579 567.325C191.857 566.023 189.69 564.153 188.081 561.714C186.471 559.252 185.666 556.269 185.666 552.766C185.666 550.067 186.175 547.794 187.193 545.947C188.211 544.101 189.655 542.586 191.525 541.402C193.395 540.218 195.609 539.283 198.166 538.597C200.723 537.91 203.54 537.377 206.618 536.999C209.672 536.62 212.252 536.288 214.359 536.004C216.49 535.72 218.111 535.27 219.224 534.655C220.337 534.039 220.893 533.045 220.893 531.672V530.393C220.893 526.677 219.78 523.753 217.555 521.622C215.353 519.468 212.181 518.391 208.038 518.391C204.108 518.391 200.9 519.255 198.414 520.983C195.952 522.711 194.224 524.747 193.23 527.091L187.228 524.925C188.459 521.942 190.164 519.562 192.342 517.787C194.52 515.988 196.958 514.697 199.657 513.916C202.356 513.111 205.091 512.709 207.86 512.709C209.944 512.709 212.11 512.981 214.359 513.526C216.632 514.07 218.739 515.017 220.68 516.366C222.621 517.692 224.196 519.551 225.403 521.942C226.61 524.309 227.214 527.316 227.214 530.962V568H220.893V559.371H220.502C219.745 560.981 218.62 562.543 217.129 564.058C215.637 565.573 213.767 566.816 211.518 567.787C209.269 568.758 206.629 569.243 203.599 569.243ZM204.451 563.455C207.813 563.455 210.725 562.709 213.187 561.217C215.649 559.726 217.543 557.749 218.869 555.287C220.218 552.801 220.893 550.067 220.893 547.084V539.2C220.42 539.65 219.627 540.053 218.514 540.408C217.425 540.763 216.158 541.082 214.714 541.366C213.294 541.627 211.873 541.852 210.453 542.041C209.032 542.231 207.754 542.396 206.618 542.538C203.54 542.917 200.912 543.509 198.734 544.314C196.556 545.119 194.887 546.232 193.727 547.652C192.567 549.049 191.987 550.848 191.987 553.05C191.987 556.364 193.171 558.933 195.538 560.756C197.905 562.555 200.877 563.455 204.451 563.455ZM245.343 568V495.273H251.699V523.859H252.267C252.978 522.226 253.996 520.545 255.321 518.817C256.671 517.089 258.435 515.644 260.613 514.484C262.814 513.301 265.584 512.709 268.922 512.709C273.397 512.709 277.327 513.893 280.712 516.26C284.097 518.604 286.737 521.894 288.631 526.132C290.525 530.346 291.472 535.259 291.472 540.869C291.472 546.504 290.525 551.44 288.631 555.678C286.761 559.915 284.133 563.218 280.748 565.585C277.386 567.953 273.48 569.136 269.029 569.136C265.714 569.136 262.944 568.545 260.719 567.361C258.517 566.177 256.742 564.721 255.392 562.993C254.043 561.241 253.001 559.536 252.267 557.879H251.486V568H245.343ZM251.593 540.763C251.593 545.166 252.244 549.072 253.546 552.482C254.872 555.867 256.766 558.53 259.228 560.472C261.713 562.389 264.72 563.348 268.248 563.348C271.87 563.348 274.935 562.354 277.445 560.365C279.954 558.353 281.86 555.642 283.162 552.233C284.464 548.824 285.115 545 285.115 540.763C285.115 536.572 284.464 532.796 283.162 529.435C281.884 526.073 279.99 523.41 277.48 521.445C274.971 519.456 271.893 518.462 268.248 518.462C264.696 518.462 261.678 519.42 259.192 521.338C256.73 523.232 254.848 525.86 253.546 529.222C252.244 532.56 251.593 536.407 251.593 540.763ZM319.526 537.318C319.526 545.841 318.449 553.89 316.294 561.466C314.14 569.042 311.051 576.144 307.026 582.773H301.273C303.001 579.979 304.576 576.819 305.996 573.291C307.44 569.764 308.683 566 309.725 561.999C310.766 557.998 311.571 553.902 312.14 549.712C312.708 545.521 312.992 541.39 312.992 537.318C312.992 531.849 312.495 526.333 311.5 520.77C310.506 515.206 309.121 509.927 307.346 504.932C305.594 499.937 303.569 495.58 301.273 491.864H307.026C311.051 498.516 314.14 505.63 316.294 513.206C318.449 520.782 319.526 528.819 319.526 537.318Z" fill="black"/>
<path d="M50.75 211H367.25M50.75 105.5H367.25M50.75 316.5H367.25" stroke="#1E1E1E" stroke-width="4" stroke-linecap="round" stroke-linejoin="round"/>
</g>
<defs>
<clipPath id="clip0_62_173">
<rect width="420" height="595" fill="white"/>
</clipPath>
</defs>
</svg>
