<svg width="1881" height="390" viewBox="0 0 1881 390" fill="none" xmlns="http://www.w3.org/2000/svg">
<path d="M18.2273 158V64.9091H52.3182C58.9242 64.9091 64.3939 66 68.7273 68.1818C73.0606 70.3333 76.303 73.2576 78.4545 76.9545C80.6061 80.6212 81.6818 84.7576 81.6818 89.3636C81.6818 93.2424 80.9697 96.5151 79.5455 99.1818C78.1212 101.818 76.2121 103.939 73.8182 105.545C71.4545 107.121 68.8485 108.273 66 109V109.909C69.0909 110.061 72.1061 111.061 75.0455 112.909C78.0152 114.727 80.4697 117.318 82.4091 120.682C84.3485 124.045 85.3182 128.136 85.3182 132.955C85.3182 137.712 84.197 141.985 81.9545 145.773C79.7424 149.53 76.3182 152.515 71.6818 154.727C67.0455 156.909 61.1212 158 53.9091 158H18.2273ZM32.2727 145.955H52.5455C59.2727 145.955 64.0909 144.652 67 142.045C69.9091 139.439 71.3636 136.182 71.3636 132.273C71.3636 129.333 70.6212 126.636 69.1364 124.182C67.6515 121.727 65.5303 119.773 62.7727 118.318C60.0455 116.864 56.803 116.136 53.0455 116.136H32.2727V145.955ZM32.2727 105.182H51.0909C54.2424 105.182 57.0758 104.576 59.5909 103.364C62.1364 102.152 64.1515 100.455 65.6364 98.2727C67.1515 96.0606 67.9091 93.4545 67.9091 90.4545C67.9091 86.6061 66.5606 83.3788 63.8636 80.7727C61.1667 78.1667 57.0303 76.8636 51.4545 76.8636H32.2727V105.182ZM130.295 159.409C123.75 159.409 118.038 157.909 113.159 154.909C108.28 151.909 104.492 147.712 101.795 142.318C99.0985 136.924 97.75 130.621 97.75 123.409C97.75 116.167 99.0985 109.833 101.795 104.409C104.492 98.9848 108.28 94.7727 113.159 91.7727C118.038 88.7727 123.75 87.2727 130.295 87.2727C136.841 87.2727 142.553 88.7727 147.432 91.7727C152.311 94.7727 156.098 98.9848 158.795 104.409C161.492 109.833 162.841 116.167 162.841 123.409C162.841 130.621 161.492 136.924 158.795 142.318C156.098 147.712 152.311 151.909 147.432 154.909C142.553 157.909 136.841 159.409 130.295 159.409ZM130.341 148C134.583 148 138.098 146.879 140.886 144.636C143.674 142.394 145.735 139.409 147.068 135.682C148.432 131.955 149.114 127.848 149.114 123.364C149.114 118.909 148.432 114.818 147.068 111.091C145.735 107.333 143.674 104.318 140.886 102.045C138.098 99.7727 134.583 98.6364 130.341 98.6364C126.068 98.6364 122.523 99.7727 119.705 102.045C116.917 104.318 114.841 107.333 113.477 111.091C112.144 114.818 111.477 118.909 111.477 123.364C111.477 127.848 112.144 131.955 113.477 135.682C114.841 139.409 116.917 142.394 119.705 144.636C122.523 146.879 126.068 148 130.341 148ZM191.33 138.955L222.102 88.1818H236.739V158H223.42V107.182L192.784 158H178.011V88.1818H191.33V138.955ZM216.284 64.5454H227.466C227.466 69.6667 225.648 73.8333 222.011 77.0455C218.405 80.2273 213.527 81.8182 207.375 81.8182C201.254 81.8182 196.39 80.2273 192.784 77.0455C189.178 73.8333 187.375 69.6667 187.375 64.5454H198.511C198.511 66.8182 199.178 68.8333 200.511 70.5909C201.845 72.3182 204.133 73.1818 207.375 73.1818C210.557 73.1818 212.83 72.3182 214.193 70.5909C215.587 68.8636 216.284 66.8485 216.284 64.5454ZM246.352 99.9091V88.1818H305.261V99.9091H282.489V158H269.216V99.9091H246.352ZM332.955 138.955L363.727 88.1818H378.364V158H365.045V107.182L334.409 158H319.636V88.1818H332.955V138.955ZM430.511 158V88.1818H459.466C467.345 88.1818 473.587 89.8636 478.193 93.2273C482.799 96.5606 485.102 101.091 485.102 106.818C485.102 110.909 483.799 114.152 481.193 116.545C478.587 118.939 475.133 120.545 470.83 121.364C473.951 121.727 476.814 122.667 479.42 124.182C482.027 125.667 484.117 127.667 485.693 130.182C487.299 132.697 488.102 135.697 488.102 139.182C488.102 142.879 487.148 146.152 485.239 149C483.33 151.818 480.557 154.03 476.92 155.636C473.314 157.212 468.966 158 463.875 158H430.511ZM443.284 146.636H463.875C467.239 146.636 469.875 145.833 471.784 144.227C473.693 142.621 474.648 140.439 474.648 137.682C474.648 134.439 473.693 131.894 471.784 130.045C469.875 128.167 467.239 127.227 463.875 127.227H443.284V146.636ZM443.284 117.273H459.602C462.148 117.273 464.33 116.909 466.148 116.182C467.996 115.455 469.405 114.424 470.375 113.091C471.375 111.727 471.875 110.121 471.875 108.273C471.875 105.576 470.769 103.47 468.557 101.955C466.345 100.439 463.314 99.6818 459.466 99.6818H443.284V117.273ZM536.886 184.182V88.1818H550.159V99.5H551.295C552.083 98.0455 553.22 96.3636 554.705 94.4545C556.189 92.5455 558.25 90.8788 560.886 89.4545C563.523 88 567.008 87.2727 571.341 87.2727C576.977 87.2727 582.008 88.697 586.432 91.5455C590.856 94.3939 594.326 98.5 596.841 103.864C599.386 109.227 600.659 115.682 600.659 123.227C600.659 130.773 599.402 137.242 596.886 142.636C594.371 148 590.917 152.136 586.523 155.045C582.129 157.924 577.114 159.364 571.477 159.364C567.235 159.364 563.765 158.652 561.068 157.227C558.402 155.803 556.311 154.136 554.795 152.227C553.28 150.318 552.114 148.621 551.295 147.136H550.477V184.182H536.886ZM550.205 123.091C550.205 128 550.917 132.303 552.341 136C553.765 139.697 555.826 142.591 558.523 144.682C561.22 146.742 564.523 147.773 568.432 147.773C572.492 147.773 575.886 146.697 578.614 144.545C581.341 142.364 583.402 139.409 584.795 135.682C586.22 131.955 586.932 127.758 586.932 123.091C586.932 118.485 586.235 114.348 584.841 110.682C583.477 107.015 581.417 104.121 578.659 102C575.932 99.8788 572.523 98.8182 568.432 98.8182C564.492 98.8182 561.159 99.8333 558.432 101.864C555.735 103.894 553.689 106.727 552.295 110.364C550.902 114 550.205 118.242 550.205 123.091ZM636.205 159.545C631.78 159.545 627.78 158.727 624.205 157.091C620.629 155.424 617.795 153.015 615.705 149.864C613.644 146.712 612.614 142.848 612.614 138.273C612.614 134.333 613.371 131.091 614.886 128.545C616.402 126 618.447 123.985 621.023 122.5C623.598 121.015 626.477 119.894 629.659 119.136C632.841 118.379 636.083 117.803 639.386 117.409C643.568 116.924 646.962 116.53 649.568 116.227C652.174 115.894 654.068 115.364 655.25 114.636C656.432 113.909 657.023 112.727 657.023 111.091V110.773C657.023 106.803 655.902 103.727 653.659 101.545C651.447 99.3636 648.144 98.2727 643.75 98.2727C639.174 98.2727 635.568 99.2879 632.932 101.318C630.326 103.318 628.523 105.545 627.523 108L614.75 105.091C616.265 100.848 618.477 97.4242 621.386 94.8182C624.326 92.1818 627.705 90.2727 631.523 89.0909C635.341 87.8788 639.356 87.2727 643.568 87.2727C646.356 87.2727 649.311 87.6061 652.432 88.2727C655.583 88.9091 658.523 90.0909 661.25 91.8182C664.008 93.5455 666.265 96.0151 668.023 99.2273C669.78 102.409 670.659 106.545 670.659 111.636V158H657.386V148.455H656.841C655.962 150.212 654.644 151.939 652.886 153.636C651.129 155.333 648.871 156.742 646.114 157.864C643.356 158.985 640.053 159.545 636.205 159.545ZM639.159 148.636C642.917 148.636 646.129 147.894 648.795 146.409C651.492 144.924 653.538 142.985 654.932 140.591C656.356 138.167 657.068 135.576 657.068 132.818V123.818C656.583 124.303 655.644 124.758 654.25 125.182C652.886 125.576 651.326 125.924 649.568 126.227C647.811 126.5 646.098 126.758 644.432 127C642.765 127.212 641.371 127.394 640.25 127.545C637.614 127.879 635.205 128.439 633.023 129.227C630.871 130.015 629.144 131.152 627.841 132.636C626.568 134.091 625.932 136.03 625.932 138.455C625.932 141.818 627.174 144.364 629.659 146.091C632.144 147.788 635.311 148.636 639.159 148.636ZM742.625 62.1818L748.261 70.7727C746.17 72.6818 743.792 74.0455 741.125 74.8636C738.489 75.6515 735.443 76.1515 731.989 76.3636C728.534 76.5455 724.58 76.7121 720.125 76.8636C715.095 77.0151 710.958 78.1061 707.716 80.1364C704.473 82.1364 701.973 85.1061 700.216 89.0455C698.489 92.9545 697.367 97.8636 696.852 103.773H697.716C699.989 99.4394 703.14 96.197 707.17 94.0455C711.231 91.8939 715.792 90.8182 720.852 90.8182C726.489 90.8182 731.504 92.1061 735.898 94.6818C740.292 97.2576 743.746 101.03 746.261 106C748.807 110.939 750.08 116.985 750.08 124.136C750.08 131.379 748.746 137.636 746.08 142.909C743.443 148.182 739.716 152.258 734.898 155.136C730.11 157.985 724.458 159.409 717.943 159.409C711.428 159.409 705.746 157.939 700.898 155C696.08 152.03 692.337 147.636 689.67 141.818C687.034 136 685.716 128.818 685.716 120.273V113.364C685.716 97.3939 688.564 85.3788 694.261 77.3182C699.958 69.2576 708.473 65.1212 719.807 64.9091C723.473 64.8182 726.746 64.803 729.625 64.8636C732.504 64.8939 735.019 64.7576 737.17 64.4545C739.352 64.1212 741.17 63.3636 742.625 62.1818ZM717.989 148C721.777 148 725.034 147.045 727.761 145.136C730.519 143.197 732.64 140.455 734.125 136.909C735.61 133.364 736.352 129.182 736.352 124.364C736.352 119.636 735.61 115.621 734.125 112.318C732.64 109.015 730.519 106.5 727.761 104.773C725.004 103.015 721.701 102.136 717.852 102.136C715.004 102.136 712.458 102.636 710.216 103.636C707.973 104.606 706.049 106.045 704.443 107.955C702.867 109.864 701.64 112.197 700.761 114.955C699.913 117.682 699.458 120.818 699.398 124.364C699.398 131.576 701.049 137.318 704.352 141.591C707.686 145.864 712.231 148 717.989 148ZM794.67 159.409C788.125 159.409 782.413 157.909 777.534 154.909C772.655 151.909 768.867 147.712 766.17 142.318C763.473 136.924 762.125 130.621 762.125 123.409C762.125 116.167 763.473 109.833 766.17 104.409C768.867 98.9848 772.655 94.7727 777.534 91.7727C782.413 88.7727 788.125 87.2727 794.67 87.2727C801.216 87.2727 806.928 88.7727 811.807 91.7727C816.686 94.7727 820.473 98.9848 823.17 104.409C825.867 109.833 827.216 116.167 827.216 123.409C827.216 130.621 825.867 136.924 823.17 142.318C820.473 147.712 816.686 151.909 811.807 154.909C806.928 157.909 801.216 159.409 794.67 159.409ZM794.716 148C798.958 148 802.473 146.879 805.261 144.636C808.049 142.394 810.11 139.409 811.443 135.682C812.807 131.955 813.489 127.848 813.489 123.364C813.489 118.909 812.807 114.818 811.443 111.091C810.11 107.333 808.049 104.318 805.261 102.045C802.473 99.7727 798.958 98.6364 794.716 98.6364C790.443 98.6364 786.898 99.7727 784.08 102.045C781.292 104.318 779.216 107.333 777.852 111.091C776.519 114.818 775.852 118.909 775.852 123.364C775.852 127.848 776.519 131.955 777.852 135.682C779.216 139.409 781.292 142.394 784.08 144.636C786.898 146.879 790.443 148 794.716 148ZM898.432 88.1818V158H885.159V88.1818H898.432ZM892.659 120.591V132.318C890.568 133.167 888.356 133.924 886.023 134.591C883.689 135.227 881.235 135.727 878.659 136.091C876.083 136.455 873.402 136.636 870.614 136.636C861.977 136.636 855.114 134.53 850.023 130.318C844.932 126.076 842.386 119.591 842.386 110.864V88.0455H855.614V110.864C855.614 114.167 856.22 116.848 857.432 118.909C858.644 120.97 860.371 122.485 862.614 123.455C864.856 124.424 867.523 124.909 870.614 124.909C874.705 124.909 878.477 124.53 881.932 123.773C885.417 122.985 888.992 121.924 892.659 120.591ZM922.602 184.182C920.572 184.182 918.723 184.015 917.057 183.682C915.39 183.379 914.148 183.045 913.33 182.682L916.602 171.545C919.087 172.212 921.299 172.5 923.239 172.409C925.178 172.318 926.89 171.591 928.375 170.227C929.89 168.864 931.223 166.636 932.375 163.545L934.057 158.909L908.511 88.1818H923.057L940.739 142.364H941.466L959.148 88.1818H973.739L944.966 167.318C943.633 170.955 941.936 174.03 939.875 176.545C937.814 179.091 935.36 181 932.511 182.273C929.663 183.545 926.36 184.182 922.602 184.182ZM1021.65 117.727V129.545H984.42V117.727H1021.65ZM995.466 88.1818V158H981.875V88.1818H995.466ZM1042.92 159.409C1036.44 159.409 1030.77 157.894 1025.92 154.864C1021.07 151.833 1017.31 147.621 1014.65 142.227C1011.98 136.803 1010.65 130.515 1010.65 123.364C1010.65 116.152 1011.98 109.848 1014.65 104.455C1017.31 99.0303 1021.07 94.8182 1025.92 91.8182C1030.77 88.7879 1036.44 87.2727 1042.92 87.2727C1049.44 87.2727 1055.1 88.7879 1059.92 91.8182C1064.77 94.8182 1068.53 99.0303 1071.19 104.455C1073.89 109.848 1075.24 116.152 1075.24 123.364C1075.24 130.515 1073.89 136.803 1071.19 142.227C1068.53 147.621 1064.77 151.833 1059.92 154.864C1055.1 157.894 1049.44 159.409 1042.92 159.409ZM1042.92 147.773C1047.31 147.773 1050.91 146.667 1053.69 144.455C1056.51 142.212 1058.59 139.242 1059.92 135.545C1061.25 131.848 1061.92 127.788 1061.92 123.364C1061.92 118.909 1061.25 114.833 1059.92 111.136C1058.59 107.409 1056.51 104.424 1053.69 102.182C1050.91 99.9394 1047.31 98.8182 1042.92 98.8182C1038.56 98.8182 1034.97 99.9394 1032.15 102.182C1029.33 104.424 1027.25 107.409 1025.92 111.136C1024.59 114.833 1023.92 118.909 1023.92 123.364C1023.92 127.788 1024.59 131.848 1025.92 135.545C1027.25 139.242 1029.33 142.212 1032.15 144.455C1034.97 146.667 1038.56 147.773 1042.92 147.773ZM1121 139.545H1134.91C1135.09 142.394 1136.38 144.591 1138.77 146.136C1141.2 147.682 1144.33 148.455 1148.18 148.455C1152.09 148.455 1155.42 147.621 1158.18 145.955C1160.94 144.258 1162.32 141.636 1162.32 138.091C1162.32 135.97 1161.79 134.121 1160.73 132.545C1159.7 130.939 1158.23 129.697 1156.32 128.818C1154.44 127.939 1152.21 127.5 1149.64 127.5H1138.27V116.818H1149.64C1153.48 116.818 1156.36 115.939 1158.27 114.182C1160.18 112.424 1161.14 110.227 1161.14 107.591C1161.14 104.742 1160.11 102.455 1158.05 100.727C1156.02 98.9697 1153.18 98.0909 1149.55 98.0909C1145.85 98.0909 1142.77 98.9242 1140.32 100.591C1137.86 102.227 1136.58 104.348 1136.45 106.955H1122.73C1122.82 103.045 1124 99.6212 1126.27 96.6818C1128.58 93.7121 1131.67 91.4091 1135.55 89.7727C1139.45 88.1061 1143.89 87.2727 1148.86 87.2727C1154.05 87.2727 1158.53 88.1061 1162.32 89.7727C1166.11 91.4394 1169.03 93.7424 1171.09 96.6818C1173.18 99.6212 1174.23 103 1174.23 106.818C1174.23 110.667 1173.08 113.818 1170.77 116.273C1168.5 118.697 1165.53 120.439 1161.86 121.5V122.227C1164.56 122.409 1166.95 123.227 1169.05 124.682C1171.14 126.136 1172.77 128.061 1173.95 130.455C1175.14 132.848 1175.73 135.561 1175.73 138.591C1175.73 142.864 1174.55 146.561 1172.18 149.682C1169.85 152.803 1166.61 155.212 1162.45 156.909C1158.33 158.576 1153.62 159.409 1148.32 159.409C1143.17 159.409 1138.55 158.606 1134.45 157C1130.39 155.364 1127.17 153.061 1124.77 150.091C1122.41 147.121 1121.15 143.606 1121 139.545ZM1219.17 159.409C1212.63 159.409 1206.91 157.909 1202.03 154.909C1197.16 151.909 1193.37 147.712 1190.67 142.318C1187.97 136.924 1186.62 130.621 1186.62 123.409C1186.62 116.167 1187.97 109.833 1190.67 104.409C1193.37 98.9848 1197.16 94.7727 1202.03 91.7727C1206.91 88.7727 1212.63 87.2727 1219.17 87.2727C1225.72 87.2727 1231.43 88.7727 1236.31 91.7727C1241.19 94.7727 1244.97 98.9848 1247.67 104.409C1250.37 109.833 1251.72 116.167 1251.72 123.409C1251.72 130.621 1250.37 136.924 1247.67 142.318C1244.97 147.712 1241.19 151.909 1236.31 154.909C1231.43 157.909 1225.72 159.409 1219.17 159.409ZM1219.22 148C1223.46 148 1226.97 146.879 1229.76 144.636C1232.55 142.394 1234.61 139.409 1235.94 135.682C1237.31 131.955 1237.99 127.848 1237.99 123.364C1237.99 118.909 1237.31 114.818 1235.94 111.091C1234.61 107.333 1232.55 104.318 1229.76 102.045C1226.97 99.7727 1223.46 98.6364 1219.22 98.6364C1214.94 98.6364 1211.4 99.7727 1208.58 102.045C1205.79 104.318 1203.72 107.333 1202.35 111.091C1201.02 114.818 1200.35 118.909 1200.35 123.364C1200.35 127.848 1201.02 131.955 1202.35 135.682C1203.72 139.409 1205.79 142.394 1208.58 144.636C1211.4 146.879 1214.94 148 1219.22 148ZM1314.2 117.227V129H1276.39V117.227H1314.2ZM1280.2 88.1818V158H1266.89V88.1818H1280.2ZM1323.7 88.1818V158H1310.43V88.1818H1323.7ZM1347.98 184.182C1345.95 184.182 1344.1 184.015 1342.43 183.682C1340.77 183.379 1339.52 183.045 1338.7 182.682L1341.98 171.545C1344.46 172.212 1346.67 172.5 1348.61 172.409C1350.55 172.318 1352.27 171.591 1353.75 170.227C1355.27 168.864 1356.6 166.636 1357.75 163.545L1359.43 158.909L1333.89 88.1818H1348.43L1366.11 142.364H1366.84L1384.52 88.1818H1399.11L1370.34 167.318C1369.01 170.955 1367.31 174.03 1365.25 176.545C1363.19 179.091 1360.73 181 1357.89 182.273C1355.04 183.545 1351.73 184.182 1347.98 184.182ZM1440.09 60.5454L1410.09 172H1397.95L1427.95 60.5454H1440.09ZM17.1364 313V243.182H46.0909C53.9697 243.182 60.2121 244.864 64.8182 248.227C69.4242 251.561 71.7273 256.091 71.7273 261.818C71.7273 265.909 70.4242 269.152 67.8182 271.545C65.2121 273.939 61.7576 275.545 57.4545 276.364C60.5758 276.727 63.4394 277.667 66.0455 279.182C68.6515 280.667 70.7424 282.667 72.3182 285.182C73.9242 287.697 74.7273 290.697 74.7273 294.182C74.7273 297.879 73.7727 301.152 71.8636 304C69.9545 306.818 67.1818 309.03 63.5455 310.636C59.9394 312.212 55.5909 313 50.5 313H17.1364ZM29.9091 301.636H50.5C53.8636 301.636 56.5 300.833 58.4091 299.227C60.3182 297.621 61.2727 295.439 61.2727 292.682C61.2727 289.439 60.3182 286.894 58.4091 285.045C56.5 283.167 53.8636 282.227 50.5 282.227H29.9091V301.636ZM29.9091 272.273H46.2273C48.7727 272.273 50.9545 271.909 52.7727 271.182C54.6212 270.455 56.0303 269.424 57 268.091C58 266.727 58.5 265.121 58.5 263.273C58.5 260.576 57.3939 258.47 55.1818 256.955C52.9697 255.439 49.9394 254.682 46.0909 254.682H29.9091V272.273ZM99.8636 267.182H120.136C128.682 267.182 135.258 269.303 139.864 273.545C144.47 277.788 146.773 283.258 146.773 289.955C146.773 294.318 145.742 298.242 143.682 301.727C141.621 305.212 138.606 307.97 134.636 310C130.667 312 125.833 313 120.136 313H89.6364V243.182H102.955V301.273H120.136C124.045 301.273 127.258 300.258 129.773 298.227C132.288 296.167 133.545 293.545 133.545 290.364C133.545 287 132.288 284.258 129.773 282.136C127.258 279.985 124.045 278.909 120.136 278.909H99.8636V267.182ZM156.682 313V243.182H170.273V313H156.682ZM201.83 293.955L232.602 243.182H247.239V313H233.92V262.182L203.284 313H188.511V243.182H201.83V293.955ZM226.784 219.545H237.966C237.966 224.667 236.148 228.833 232.511 232.045C228.905 235.227 224.027 236.818 217.875 236.818C211.754 236.818 206.89 235.227 203.284 232.045C199.678 228.833 197.875 224.667 197.875 219.545H209.011C209.011 221.818 209.678 223.833 211.011 225.591C212.345 227.318 214.633 228.182 217.875 228.182C221.057 228.182 223.33 227.318 224.693 225.591C226.087 223.864 226.784 221.848 226.784 219.545ZM256.852 254.909V243.182H315.761V254.909H292.989V313H279.716V254.909H256.852ZM343.455 293.955L374.227 243.182H388.864V313H375.545V262.182L344.909 313H330.136V243.182H343.455V293.955ZM454.33 293.955L485.102 243.182H499.739V313H486.42V262.182L455.784 313H441.011V243.182H454.33V293.955ZM513.875 294.545H527.784C527.966 297.394 529.254 299.591 531.648 301.136C534.072 302.682 537.208 303.455 541.057 303.455C544.966 303.455 548.299 302.621 551.057 300.955C553.814 299.258 555.193 296.636 555.193 293.091C555.193 290.97 554.663 289.121 553.602 287.545C552.572 285.939 551.102 284.697 549.193 283.818C547.314 282.939 545.087 282.5 542.511 282.5H531.148V271.818H542.511C546.36 271.818 549.239 270.939 551.148 269.182C553.057 267.424 554.011 265.227 554.011 262.591C554.011 259.742 552.981 257.455 550.92 255.727C548.89 253.97 546.057 253.091 542.42 253.091C538.723 253.091 535.648 253.924 533.193 255.591C530.739 257.227 529.451 259.348 529.33 261.955H515.602C515.693 258.045 516.875 254.621 519.148 251.682C521.451 248.712 524.542 246.409 528.42 244.773C532.33 243.106 536.769 242.273 541.739 242.273C546.92 242.273 551.405 243.106 555.193 244.773C558.981 246.439 561.905 248.742 563.966 251.682C566.057 254.621 567.102 258 567.102 261.818C567.102 265.667 565.951 268.818 563.648 271.273C561.375 273.697 558.405 275.439 554.739 276.5V277.227C557.436 277.409 559.83 278.227 561.92 279.682C564.011 281.136 565.648 283.061 566.83 285.455C568.011 287.848 568.602 290.561 568.602 293.591C568.602 297.864 567.42 301.561 565.057 304.682C562.723 307.803 559.481 310.212 555.33 311.909C551.208 313.576 546.496 314.409 541.193 314.409C536.042 314.409 531.42 313.606 527.33 312C523.269 310.364 520.042 308.061 517.648 305.091C515.284 302.121 514.027 298.606 513.875 294.545ZM616.511 339.182V243.182H629.784V254.5H630.92C631.708 253.045 632.845 251.364 634.33 249.455C635.814 247.545 637.875 245.879 640.511 244.455C643.148 243 646.633 242.273 650.966 242.273C656.602 242.273 661.633 243.697 666.057 246.545C670.481 249.394 673.951 253.5 676.466 258.864C679.011 264.227 680.284 270.682 680.284 278.227C680.284 285.773 679.027 292.242 676.511 297.636C673.996 303 670.542 307.136 666.148 310.045C661.754 312.924 656.739 314.364 651.102 314.364C646.86 314.364 643.39 313.652 640.693 312.227C638.027 310.803 635.936 309.136 634.42 307.227C632.905 305.318 631.739 303.621 630.92 302.136H630.102V339.182H616.511ZM629.83 278.091C629.83 283 630.542 287.303 631.966 291C633.39 294.697 635.451 297.591 638.148 299.682C640.845 301.742 644.148 302.773 648.057 302.773C652.117 302.773 655.511 301.697 658.239 299.545C660.966 297.364 663.027 294.409 664.42 290.682C665.845 286.955 666.557 282.758 666.557 278.091C666.557 273.485 665.86 269.348 664.466 265.682C663.102 262.015 661.042 259.121 658.284 257C655.557 254.879 652.148 253.818 648.057 253.818C644.117 253.818 640.784 254.833 638.057 256.864C635.36 258.894 633.314 261.727 631.92 265.364C630.527 269 629.83 273.242 629.83 278.091ZM715.83 314.545C711.405 314.545 707.405 313.727 703.83 312.091C700.254 310.424 697.42 308.015 695.33 304.864C693.269 301.712 692.239 297.848 692.239 293.273C692.239 289.333 692.996 286.091 694.511 283.545C696.027 281 698.072 278.985 700.648 277.5C703.223 276.015 706.102 274.894 709.284 274.136C712.466 273.379 715.708 272.803 719.011 272.409C723.193 271.924 726.587 271.53 729.193 271.227C731.799 270.894 733.693 270.364 734.875 269.636C736.057 268.909 736.648 267.727 736.648 266.091V265.773C736.648 261.803 735.527 258.727 733.284 256.545C731.072 254.364 727.769 253.273 723.375 253.273C718.799 253.273 715.193 254.288 712.557 256.318C709.951 258.318 708.148 260.545 707.148 263L694.375 260.091C695.89 255.848 698.102 252.424 701.011 249.818C703.951 247.182 707.33 245.273 711.148 244.091C714.966 242.879 718.981 242.273 723.193 242.273C725.981 242.273 728.936 242.606 732.057 243.273C735.208 243.909 738.148 245.091 740.875 246.818C743.633 248.545 745.89 251.015 747.648 254.227C749.405 257.409 750.284 261.545 750.284 266.636V313H737.011V303.455H736.466C735.587 305.212 734.269 306.939 732.511 308.636C730.754 310.333 728.496 311.742 725.739 312.864C722.981 313.985 719.678 314.545 715.83 314.545ZM718.784 303.636C722.542 303.636 725.754 302.894 728.42 301.409C731.117 299.924 733.163 297.985 734.557 295.591C735.981 293.167 736.693 290.576 736.693 287.818V278.818C736.208 279.303 735.269 279.758 733.875 280.182C732.511 280.576 730.951 280.924 729.193 281.227C727.436 281.5 725.723 281.758 724.057 282C722.39 282.212 720.996 282.394 719.875 282.545C717.239 282.879 714.83 283.439 712.648 284.227C710.496 285.015 708.769 286.152 707.466 287.636C706.193 289.091 705.557 291.03 705.557 293.455C705.557 296.818 706.799 299.364 709.284 301.091C711.769 302.788 714.936 303.636 718.784 303.636ZM822.25 217.182L827.886 225.773C825.795 227.682 823.417 229.045 820.75 229.864C818.114 230.652 815.068 231.152 811.614 231.364C808.159 231.545 804.205 231.712 799.75 231.864C794.72 232.015 790.583 233.106 787.341 235.136C784.098 237.136 781.598 240.106 779.841 244.045C778.114 247.955 776.992 252.864 776.477 258.773H777.341C779.614 254.439 782.765 251.197 786.795 249.045C790.856 246.894 795.417 245.818 800.477 245.818C806.114 245.818 811.129 247.106 815.523 249.682C819.917 252.258 823.371 256.03 825.886 261C828.432 265.939 829.705 271.985 829.705 279.136C829.705 286.379 828.371 292.636 825.705 297.909C823.068 303.182 819.341 307.258 814.523 310.136C809.735 312.985 804.083 314.409 797.568 314.409C791.053 314.409 785.371 312.939 780.523 310C775.705 307.03 771.962 302.636 769.295 296.818C766.659 291 765.341 283.818 765.341 275.273V268.364C765.341 252.394 768.189 240.379 773.886 232.318C779.583 224.258 788.098 220.121 799.432 219.909C803.098 219.818 806.371 219.803 809.25 219.864C812.129 219.894 814.644 219.758 816.795 219.455C818.977 219.121 820.795 218.364 822.25 217.182ZM797.614 303C801.402 303 804.659 302.045 807.386 300.136C810.144 298.197 812.265 295.455 813.75 291.909C815.235 288.364 815.977 284.182 815.977 279.364C815.977 274.636 815.235 270.621 813.75 267.318C812.265 264.015 810.144 261.5 807.386 259.773C804.629 258.015 801.326 257.136 797.477 257.136C794.629 257.136 792.083 257.636 789.841 258.636C787.598 259.606 785.674 261.045 784.068 262.955C782.492 264.864 781.265 267.197 780.386 269.955C779.538 272.682 779.083 275.818 779.023 279.364C779.023 286.576 780.674 292.318 783.977 296.591C787.311 300.864 791.856 303 797.614 303ZM874.295 314.409C867.75 314.409 862.038 312.909 857.159 309.909C852.28 306.909 848.492 302.712 845.795 297.318C843.098 291.924 841.75 285.621 841.75 278.409C841.75 271.167 843.098 264.833 845.795 259.409C848.492 253.985 852.28 249.773 857.159 246.773C862.038 243.773 867.75 242.273 874.295 242.273C880.841 242.273 886.553 243.773 891.432 246.773C896.311 249.773 900.098 253.985 902.795 259.409C905.492 264.833 906.841 271.167 906.841 278.409C906.841 285.621 905.492 291.924 902.795 297.318C900.098 302.712 896.311 306.909 891.432 309.909C886.553 312.909 880.841 314.409 874.295 314.409ZM874.341 303C878.583 303 882.098 301.879 884.886 299.636C887.674 297.394 889.735 294.409 891.068 290.682C892.432 286.955 893.114 282.848 893.114 278.364C893.114 273.909 892.432 269.818 891.068 266.091C889.735 262.333 887.674 259.318 884.886 257.045C882.098 254.773 878.583 253.636 874.341 253.636C870.068 253.636 866.523 254.773 863.705 257.045C860.917 259.318 858.841 262.333 857.477 266.091C856.144 269.818 855.477 273.909 855.477 278.364C855.477 282.848 856.144 286.955 857.477 290.682C858.841 294.409 860.917 297.394 863.705 299.636C866.523 301.879 870.068 303 874.341 303ZM978.057 243.182V313H964.784V243.182H978.057ZM972.284 275.591V287.318C970.193 288.167 967.981 288.924 965.648 289.591C963.314 290.227 960.86 290.727 958.284 291.091C955.708 291.455 953.027 291.636 950.239 291.636C941.602 291.636 934.739 289.53 929.648 285.318C924.557 281.076 922.011 274.591 922.011 265.864V243.045H935.239V265.864C935.239 269.167 935.845 271.848 937.057 273.909C938.269 275.97 939.996 277.485 942.239 278.455C944.481 279.424 947.148 279.909 950.239 279.909C954.33 279.909 958.102 279.53 961.557 278.773C965.042 277.985 968.617 276.924 972.284 275.591ZM1026.23 314.409C1019.35 314.409 1013.42 312.939 1008.45 310C1003.52 307.03 999.697 302.864 997 297.5C994.333 292.106 993 285.788 993 278.545C993 271.394 994.333 265.091 997 259.636C999.697 254.182 1003.45 249.924 1008.27 246.864C1013.12 243.803 1018.79 242.273 1025.27 242.273C1029.21 242.273 1033.03 242.924 1036.73 244.227C1040.42 245.53 1043.74 247.576 1046.68 250.364C1049.62 253.152 1051.94 256.773 1053.64 261.227C1055.33 265.652 1056.18 271.03 1056.18 277.364V282.182H1000.68V272H1042.86C1042.86 268.424 1042.14 265.258 1040.68 262.5C1039.23 259.712 1037.18 257.515 1034.55 255.909C1031.94 254.303 1028.88 253.5 1025.36 253.5C1021.55 253.5 1018.21 254.439 1015.36 256.318C1012.55 258.167 1010.36 260.591 1008.82 263.591C1007.3 266.561 1006.55 269.788 1006.55 273.273V281.227C1006.55 285.894 1007.36 289.864 1009 293.136C1010.67 296.409 1012.98 298.909 1015.95 300.636C1018.92 302.333 1022.39 303.182 1026.36 303.182C1028.94 303.182 1031.29 302.818 1033.41 302.091C1035.53 301.333 1037.36 300.212 1038.91 298.727C1040.45 297.242 1041.64 295.409 1042.45 293.227L1055.32 295.545C1054.29 299.333 1052.44 302.652 1049.77 305.5C1047.14 308.318 1043.82 310.515 1039.82 312.091C1035.85 313.636 1031.32 314.409 1026.23 314.409ZM1084.58 293.955L1115.35 243.182H1129.99V313H1116.67V262.182L1086.03 313H1071.26V243.182H1084.58V293.955ZM1109.53 219.545H1120.72C1120.72 224.667 1118.9 228.833 1115.26 232.045C1111.66 235.227 1106.78 236.818 1100.62 236.818C1094.5 236.818 1089.64 235.227 1086.03 232.045C1082.43 228.833 1080.62 224.667 1080.62 219.545H1091.76C1091.76 221.818 1092.43 223.833 1093.76 225.591C1095.09 227.318 1097.38 228.182 1100.62 228.182C1103.81 228.182 1106.08 227.318 1107.44 225.591C1108.84 223.864 1109.53 221.848 1109.53 219.545ZM1178 294.545H1191.91C1192.09 297.394 1193.38 299.591 1195.77 301.136C1198.2 302.682 1201.33 303.455 1205.18 303.455C1209.09 303.455 1212.42 302.621 1215.18 300.955C1217.94 299.258 1219.32 296.636 1219.32 293.091C1219.32 290.97 1218.79 289.121 1217.73 287.545C1216.7 285.939 1215.23 284.697 1213.32 283.818C1211.44 282.939 1209.21 282.5 1206.64 282.5H1195.27V271.818H1206.64C1210.48 271.818 1213.36 270.939 1215.27 269.182C1217.18 267.424 1218.14 265.227 1218.14 262.591C1218.14 259.742 1217.11 257.455 1215.05 255.727C1213.02 253.97 1210.18 253.091 1206.55 253.091C1202.85 253.091 1199.77 253.924 1197.32 255.591C1194.86 257.227 1193.58 259.348 1193.45 261.955H1179.73C1179.82 258.045 1181 254.621 1183.27 251.682C1185.58 248.712 1188.67 246.409 1192.55 244.773C1196.45 243.106 1200.89 242.273 1205.86 242.273C1211.05 242.273 1215.53 243.106 1219.32 244.773C1223.11 246.439 1226.03 248.742 1228.09 251.682C1230.18 254.621 1231.23 258 1231.23 261.818C1231.23 265.667 1230.08 268.818 1227.77 271.273C1225.5 273.697 1222.53 275.439 1218.86 276.5V277.227C1221.56 277.409 1223.95 278.227 1226.05 279.682C1228.14 281.136 1229.77 283.061 1230.95 285.455C1232.14 287.848 1232.73 290.561 1232.73 293.591C1232.73 297.864 1231.55 301.561 1229.18 304.682C1226.85 307.803 1223.61 310.212 1219.45 311.909C1215.33 313.576 1210.62 314.409 1205.32 314.409C1200.17 314.409 1195.55 313.606 1191.45 312C1187.39 310.364 1184.17 308.061 1181.77 305.091C1179.41 302.121 1178.15 298.606 1178 294.545ZM1276.17 314.409C1269.63 314.409 1263.91 312.909 1259.03 309.909C1254.16 306.909 1250.37 302.712 1247.67 297.318C1244.97 291.924 1243.62 285.621 1243.62 278.409C1243.62 271.167 1244.97 264.833 1247.67 259.409C1250.37 253.985 1254.16 249.773 1259.03 246.773C1263.91 243.773 1269.63 242.273 1276.17 242.273C1282.72 242.273 1288.43 243.773 1293.31 246.773C1298.19 249.773 1301.97 253.985 1304.67 259.409C1307.37 264.833 1308.72 271.167 1308.72 278.409C1308.72 285.621 1307.37 291.924 1304.67 297.318C1301.97 302.712 1298.19 306.909 1293.31 309.909C1288.43 312.909 1282.72 314.409 1276.17 314.409ZM1276.22 303C1280.46 303 1283.97 301.879 1286.76 299.636C1289.55 297.394 1291.61 294.409 1292.94 290.682C1294.31 286.955 1294.99 282.848 1294.99 278.364C1294.99 273.909 1294.31 269.818 1292.94 266.091C1291.61 262.333 1289.55 259.318 1286.76 257.045C1283.97 254.773 1280.46 253.636 1276.22 253.636C1271.94 253.636 1268.4 254.773 1265.58 257.045C1262.79 259.318 1260.72 262.333 1259.35 266.091C1258.02 269.818 1257.35 273.909 1257.35 278.364C1257.35 282.848 1258.02 286.955 1259.35 290.682C1260.72 294.409 1262.79 297.394 1265.58 299.636C1268.4 301.879 1271.94 303 1276.22 303ZM1371.2 272.227V284H1333.39V272.227H1371.2ZM1337.2 243.182V313H1323.89V243.182H1337.2ZM1380.7 243.182V313H1367.43V243.182H1380.7ZM1409.11 267.182H1429.39C1437.93 267.182 1444.51 269.303 1449.11 273.545C1453.72 277.788 1456.02 283.258 1456.02 289.955C1456.02 294.318 1454.99 298.242 1452.93 301.727C1450.87 305.212 1447.86 307.97 1443.89 310C1439.92 312 1435.08 313 1429.39 313H1398.89V243.182H1412.2V301.273H1429.39C1433.3 301.273 1436.51 300.258 1439.02 298.227C1441.54 296.167 1442.8 293.545 1442.8 290.364C1442.8 287 1441.54 284.258 1439.02 282.136C1436.51 279.985 1433.3 278.909 1429.39 278.909H1409.11V267.182ZM1465.93 313V243.182H1479.52V313H1465.93ZM1506.72 313.864C1504.23 313.864 1502.09 312.985 1500.31 311.227C1498.52 309.439 1497.62 307.288 1497.62 304.773C1497.62 302.288 1498.52 300.167 1500.31 298.409C1502.09 296.621 1504.23 295.727 1506.72 295.727C1509.2 295.727 1511.34 296.621 1513.12 298.409C1514.91 300.167 1515.81 302.288 1515.81 304.773C1515.81 306.439 1515.38 307.97 1514.53 309.364C1513.72 310.727 1512.62 311.818 1511.26 312.636C1509.9 313.455 1508.38 313.864 1506.72 313.864ZM1506.72 263.045C1504.23 263.045 1502.09 262.152 1500.31 260.364C1498.52 258.576 1497.62 256.439 1497.62 253.955C1497.62 251.47 1498.52 249.348 1500.31 247.591C1502.09 245.803 1504.23 244.909 1506.72 244.909C1509.2 244.909 1511.34 245.803 1513.12 247.591C1514.91 249.348 1515.81 251.47 1515.81 253.955C1515.81 255.621 1515.38 257.152 1514.53 258.545C1513.72 259.909 1512.62 261 1511.26 261.818C1509.9 262.636 1508.38 263.045 1506.72 263.045Z" fill="black"/>
<rect x="1594" y="61" width="271" height="267" rx="33" fill="#D9D9D9" stroke="#373737" stroke-width="16"/>
<path d="M1715.24 200.256V245H1697.25V143.182H1714.85V181.612H1715.74C1717.53 177.304 1720.3 173.906 1724.04 171.42C1727.82 168.902 1732.63 167.642 1738.46 167.642C1743.76 167.642 1748.39 168.752 1752.33 170.973C1756.28 173.194 1759.33 176.442 1761.48 180.717C1763.67 184.993 1764.76 190.213 1764.76 196.378V245H1746.76V199.162C1746.76 194.025 1745.44 190.031 1742.79 187.18C1740.17 184.297 1736.49 182.855 1731.75 182.855C1728.57 182.855 1725.72 183.551 1723.2 184.943C1720.71 186.302 1718.76 188.274 1717.33 190.859C1715.94 193.445 1715.24 196.577 1715.24 200.256Z" fill="#222222"/>
</svg>
