<svg width="420" height="595" viewBox="0 0 420 595" fill="none" xmlns="http://www.w3.org/2000/svg">
<g clip-path="url(#clip0_62_178)">
<path d="M42.6827 390.253V385.182H87.5069V390.253H67.917V447H62.2725V390.253H42.6827ZM105.738 448.056C102.941 448.056 100.386 447.513 98.0715 446.426C95.7574 445.32 93.9161 443.73 92.5477 441.657C91.1793 439.565 90.4952 437.029 90.4952 434.051C90.4952 431.757 90.9278 429.825 91.7931 428.255C92.6584 426.686 93.8859 425.398 95.4756 424.392C97.0654 423.386 98.9469 422.591 101.12 422.007C103.293 421.424 105.688 420.971 108.304 420.649C110.9 420.327 113.093 420.045 114.884 419.804C116.695 419.562 118.074 419.18 119.02 418.657C119.965 418.133 120.438 417.288 120.438 416.121V415.034C120.438 411.875 119.493 409.39 117.601 407.579C115.73 405.748 113.033 404.832 109.511 404.832C106.171 404.832 103.444 405.567 101.331 407.036C99.2387 408.504 97.7697 410.235 96.9245 412.227L91.8233 410.386C92.8697 407.85 94.3186 405.828 96.1699 404.319C98.0212 402.79 100.094 401.693 102.388 401.029C104.682 400.345 107.006 400.002 109.361 400.002C111.131 400.002 112.973 400.234 114.884 400.697C116.816 401.16 118.607 401.964 120.257 403.112C121.907 404.238 123.246 405.818 124.272 407.85C125.298 409.863 125.811 412.418 125.811 415.517V447H120.438V439.665H120.106C119.462 441.033 118.507 442.362 117.239 443.65C115.971 444.937 114.381 445.994 112.47 446.819C110.558 447.644 108.314 448.056 105.738 448.056ZM106.463 443.136C109.32 443.136 111.795 442.502 113.888 441.235C115.981 439.967 117.591 438.287 118.718 436.194C119.865 434.081 120.438 431.757 120.438 429.221V422.52C120.036 422.903 119.362 423.245 118.416 423.547C117.49 423.848 116.414 424.12 115.186 424.362C113.979 424.583 112.771 424.774 111.564 424.935C110.357 425.096 109.27 425.237 108.304 425.358C105.688 425.68 103.454 426.183 101.603 426.867C99.7518 427.551 98.3331 428.497 97.3471 429.704C96.361 430.891 95.868 432.421 95.868 434.292C95.868 437.109 96.8742 439.293 98.8865 440.842C100.899 442.372 103.424 443.136 106.463 443.136ZM173.488 383.25L176.295 386.661C175.027 387.888 173.508 388.734 171.737 389.196C169.986 389.639 168.024 389.891 165.851 389.951C163.698 390.011 161.374 390.102 158.879 390.223C155.297 390.404 152.349 391.339 150.034 393.03C147.72 394.7 145.959 397.115 144.752 400.274C143.565 403.413 142.82 407.247 142.518 411.775H143.122C144.672 408.615 146.855 406.21 149.672 404.56C152.51 402.91 155.629 402.085 159.029 402.085C162.591 402.085 165.791 402.961 168.628 404.711C171.486 406.442 173.739 408.987 175.39 412.348C177.06 415.688 177.895 419.763 177.895 424.573C177.895 429.322 177.06 433.457 175.39 436.979C173.719 440.48 171.385 443.187 168.387 445.098C165.388 447.01 161.877 447.966 157.852 447.966C153.807 447.966 150.266 447.02 147.227 445.129C144.209 443.217 141.864 440.41 140.194 436.707C138.544 432.984 137.719 428.406 137.719 422.973V418.113C137.719 407.307 139.43 399.177 142.85 393.724C146.271 388.271 151.534 385.423 158.637 385.182C160.931 385.101 163.014 385.081 164.885 385.121C166.757 385.142 168.407 385.051 169.836 384.85C171.264 384.628 172.482 384.095 173.488 383.25ZM157.852 443.046C160.851 443.046 163.446 442.291 165.64 440.782C167.833 439.253 169.524 437.099 170.711 434.322C171.918 431.545 172.522 428.296 172.522 424.573C172.522 420.87 171.908 417.711 170.681 415.095C169.473 412.479 167.783 410.477 165.61 409.088C163.436 407.7 160.891 407.005 157.973 407.005C155.679 407.005 153.616 407.448 151.785 408.333C149.974 409.199 148.425 410.436 147.137 412.046C145.849 413.656 144.863 415.548 144.179 417.721C143.494 419.894 143.142 422.279 143.122 424.875C143.122 430.489 144.43 434.926 147.046 438.186C149.682 441.426 153.284 443.046 157.852 443.046ZM185.101 447V441.929H186.55C188.2 441.929 189.529 441.627 190.535 441.023C191.561 440.4 192.356 439.353 192.919 437.884C193.483 436.415 193.905 434.413 194.187 431.877C194.469 429.342 194.69 426.163 194.851 422.339L195.847 400.636H225.307V447H219.904V405.707H200.948L200.073 424.15C199.892 427.913 199.59 431.223 199.167 434.081C198.765 436.938 198.101 439.323 197.175 441.235C196.27 443.146 195.002 444.585 193.372 445.551C191.762 446.517 189.649 447 187.033 447H185.101ZM244.92 439.363L269.4 400.636H275.829V447H270.456V408.273L246.067 447H239.547V400.636H244.92V439.363ZM325.181 400.636V441.899H330.101V462.002H324.728V447H290.076V400.636H295.479V441.929H319.778V400.636H325.181ZM354.513 448.056C351.716 448.056 349.16 447.513 346.846 446.426C344.532 445.32 342.691 443.73 341.322 441.657C339.954 439.565 339.27 437.029 339.27 434.051C339.27 431.757 339.702 429.825 340.568 428.255C341.433 426.686 342.66 425.398 344.25 424.392C345.84 423.386 347.721 422.591 349.895 422.007C352.068 421.424 354.463 420.971 357.079 420.649C359.674 420.327 361.868 420.045 363.659 419.804C365.47 419.562 366.848 419.18 367.794 418.657C368.74 418.133 369.213 417.288 369.213 416.121V415.034C369.213 411.875 368.267 409.39 366.375 407.579C364.504 405.748 361.807 404.832 358.286 404.832C354.945 404.832 352.219 405.567 350.106 407.036C348.013 408.504 346.544 410.235 345.699 412.227L340.598 410.386C341.644 407.85 343.093 405.828 344.944 404.319C346.796 402.79 348.868 401.693 351.162 401.029C353.456 400.345 355.781 400.002 358.135 400.002C359.906 400.002 361.747 400.234 363.659 400.697C365.591 401.16 367.382 401.964 369.032 403.112C370.682 404.238 372.02 405.818 373.046 407.85C374.072 409.863 374.586 412.418 374.586 415.517V447H369.213V439.665H368.881C368.237 441.033 367.281 442.362 366.013 443.65C364.745 444.937 363.156 445.994 361.244 446.819C359.332 447.644 357.089 448.056 354.513 448.056ZM355.237 443.136C358.095 443.136 360.57 442.502 362.663 441.235C364.755 439.967 366.365 438.287 367.492 436.194C368.639 434.081 369.213 431.757 369.213 429.221V422.52C368.81 422.903 368.136 423.245 367.19 423.547C366.265 423.848 365.188 424.12 363.961 424.362C362.753 424.583 361.546 424.774 360.338 424.935C359.131 425.096 358.044 425.237 357.079 425.358C354.463 425.68 352.229 426.183 350.378 426.867C348.526 427.551 347.108 428.497 346.121 429.704C345.135 430.891 344.642 432.421 344.642 434.292C344.642 437.109 345.649 439.293 347.661 440.842C349.673 442.372 352.199 443.136 355.237 443.136ZM154.664 531.636C154.664 523.114 155.742 515.064 157.896 507.489C160.05 499.913 163.14 492.811 167.164 486.182H172.917C171.189 488.975 169.603 492.136 168.159 495.663C166.738 499.191 165.507 502.955 164.466 506.956C163.424 510.957 162.619 515.053 162.051 519.243C161.483 523.41 161.199 527.541 161.199 531.636C161.199 537.105 161.696 542.621 162.69 548.185C163.684 553.748 165.057 559.027 166.809 564.023C168.585 569.018 170.621 573.374 172.917 577.091H167.164C163.14 570.438 160.05 563.324 157.896 555.749C155.742 548.173 154.664 540.135 154.664 531.636ZM183.615 501.239V495.273H236.349V501.239H213.303V568H206.662V501.239H183.615ZM265.327 531.636C265.327 540.159 264.25 548.208 262.095 555.784C259.941 563.36 256.851 570.462 252.827 577.091H247.074C248.802 574.297 250.376 571.137 251.797 567.609C253.241 564.082 254.484 560.318 255.526 556.317C256.567 552.316 257.372 548.22 257.94 544.03C258.509 539.839 258.793 535.708 258.793 531.636C258.793 526.168 258.295 520.652 257.301 515.088C256.307 509.525 254.922 504.245 253.146 499.25C251.394 494.255 249.37 489.899 247.074 486.182H252.827C256.851 492.834 259.941 499.948 262.095 507.524C264.25 515.1 265.327 523.137 265.327 531.636Z" fill="black"/>
<path d="M157.5 52.5H87.5C78.2174 52.5 69.315 56.1875 62.7513 62.7513C56.1875 69.315 52.5 78.2174 52.5 87.5V157.5M157.5 52.5H332.5C341.783 52.5 350.685 56.1875 357.249 62.7513C363.813 69.315 367.5 78.2174 367.5 87.5V157.5M157.5 52.5V367.5M52.5 157.5V332.5C52.5 341.783 56.1875 350.685 62.7513 357.249C69.315 363.813 78.2174 367.5 87.5 367.5H157.5M52.5 157.5H367.5M367.5 157.5V332.5C367.5 341.783 363.813 350.685 357.249 357.249C350.685 363.813 341.783 367.5 332.5 367.5H157.5" stroke="#1E1E1E" stroke-width="4" stroke-linecap="round" stroke-linejoin="round"/>
</g>
<defs>
<clipPath id="clip0_62_178">
<rect width="420" height="595" fill="white"/>
</clipPath>
</defs>
</svg>
