<svg width="2164" height="390" viewBox="0 0 2164 390" fill="none" xmlns="http://www.w3.org/2000/svg">
<path d="M18.2273 158V64.9091H52.3182C58.9242 64.9091 64.3939 66 68.7273 68.1818C73.0606 70.3333 76.303 73.2576 78.4545 76.9545C80.6061 80.6212 81.6818 84.7576 81.6818 89.3636C81.6818 93.2424 80.9697 96.5151 79.5455 99.1818C78.1212 101.818 76.2121 103.939 73.8182 105.545C71.4545 107.121 68.8485 108.273 66 109V109.909C69.0909 110.061 72.1061 111.061 75.0455 112.909C78.0152 114.727 80.4697 117.318 82.4091 120.682C84.3485 124.045 85.3182 128.136 85.3182 132.955C85.3182 137.712 84.197 141.985 81.9545 145.773C79.7424 149.53 76.3182 152.515 71.6818 154.727C67.0455 156.909 61.1212 158 53.9091 158H18.2273ZM32.2727 145.955H52.5455C59.2727 145.955 64.0909 144.652 67 142.045C69.9091 139.439 71.3636 136.182 71.3636 132.273C71.3636 129.333 70.6212 126.636 69.1364 124.182C67.6515 121.727 65.5303 119.773 62.7727 118.318C60.0455 116.864 56.803 116.136 53.0455 116.136H32.2727V145.955ZM32.2727 105.182H51.0909C54.2424 105.182 57.0758 104.576 59.5909 103.364C62.1364 102.152 64.1515 100.455 65.6364 98.2727C67.1515 96.0606 67.9091 93.4545 67.9091 90.4545C67.9091 86.6061 66.5606 83.3788 63.8636 80.7727C61.1667 78.1667 57.0303 76.8636 51.4545 76.8636H32.2727V105.182ZM96.75 139.545H110.659C110.841 142.394 112.129 144.591 114.523 146.136C116.947 147.682 120.083 148.455 123.932 148.455C127.841 148.455 131.174 147.621 133.932 145.955C136.689 144.258 138.068 141.636 138.068 138.091C138.068 135.97 137.538 134.121 136.477 132.545C135.447 130.939 133.977 129.697 132.068 128.818C130.189 127.939 127.962 127.5 125.386 127.5H114.023V116.818H125.386C129.235 116.818 132.114 115.939 134.023 114.182C135.932 112.424 136.886 110.227 136.886 107.591C136.886 104.742 135.856 102.455 133.795 100.727C131.765 98.9697 128.932 98.0909 125.295 98.0909C121.598 98.0909 118.523 98.9242 116.068 100.591C113.614 102.227 112.326 104.348 112.205 106.955H98.4773C98.5682 103.045 99.75 99.6212 102.023 96.6818C104.326 93.7121 107.417 91.4091 111.295 89.7727C115.205 88.1061 119.644 87.2727 124.614 87.2727C129.795 87.2727 134.28 88.1061 138.068 89.7727C141.856 91.4394 144.78 93.7424 146.841 96.6818C148.932 99.6212 149.977 103 149.977 106.818C149.977 110.667 148.826 113.818 146.523 116.273C144.25 118.697 141.28 120.439 137.614 121.5V122.227C140.311 122.409 142.705 123.227 144.795 124.682C146.886 126.136 148.523 128.061 149.705 130.455C150.886 132.848 151.477 135.561 151.477 138.591C151.477 142.864 150.295 146.561 147.932 149.682C145.598 152.803 142.356 155.212 138.205 156.909C134.083 158.576 129.371 159.409 124.068 159.409C118.917 159.409 114.295 158.606 110.205 157C106.144 155.364 102.917 153.061 100.523 150.091C98.1591 147.121 96.9015 143.606 96.75 139.545ZM185.83 159.545C181.405 159.545 177.405 158.727 173.83 157.091C170.254 155.424 167.42 153.015 165.33 149.864C163.269 146.712 162.239 142.848 162.239 138.273C162.239 134.333 162.996 131.091 164.511 128.545C166.027 126 168.072 123.985 170.648 122.5C173.223 121.015 176.102 119.894 179.284 119.136C182.466 118.379 185.708 117.803 189.011 117.409C193.193 116.924 196.587 116.53 199.193 116.227C201.799 115.894 203.693 115.364 204.875 114.636C206.057 113.909 206.648 112.727 206.648 111.091V110.773C206.648 106.803 205.527 103.727 203.284 101.545C201.072 99.3636 197.769 98.2727 193.375 98.2727C188.799 98.2727 185.193 99.2879 182.557 101.318C179.951 103.318 178.148 105.545 177.148 108L164.375 105.091C165.89 100.848 168.102 97.4242 171.011 94.8182C173.951 92.1818 177.33 90.2727 181.148 89.0909C184.966 87.8788 188.981 87.2727 193.193 87.2727C195.981 87.2727 198.936 87.6061 202.057 88.2727C205.208 88.9091 208.148 90.0909 210.875 91.8182C213.633 93.5455 215.89 96.0151 217.648 99.2273C219.405 102.409 220.284 106.545 220.284 111.636V158H207.011V148.455H206.466C205.587 150.212 204.269 151.939 202.511 153.636C200.754 155.333 198.496 156.742 195.739 157.864C192.981 158.985 189.678 159.545 185.83 159.545ZM188.784 148.636C192.542 148.636 195.754 147.894 198.42 146.409C201.117 144.924 203.163 142.985 204.557 140.591C205.981 138.167 206.693 135.576 206.693 132.818V123.818C206.208 124.303 205.269 124.758 203.875 125.182C202.511 125.576 200.951 125.924 199.193 126.227C197.436 126.5 195.723 126.758 194.057 127C192.39 127.212 190.996 127.394 189.875 127.545C187.239 127.879 184.83 128.439 182.648 129.227C180.496 130.015 178.769 131.152 177.466 132.636C176.193 134.091 175.557 136.03 175.557 138.455C175.557 141.818 176.799 144.364 179.284 146.091C181.769 147.788 184.936 148.636 188.784 148.636ZM251.705 138.955L282.477 88.1818H297.114V158H283.795V107.182L253.159 158H238.386V88.1818H251.705V138.955ZM354.568 141.182L377.114 88.1818H388.841L359.614 158H349.523L320.886 88.1818H332.477L354.568 141.182ZM328.705 88.1818V158H315.386V88.1818H328.705ZM380.795 158V88.1818H394.023V158H380.795ZM441.545 159.409C435 159.409 429.288 157.909 424.409 154.909C419.53 151.909 415.742 147.712 413.045 142.318C410.348 136.924 409 130.621 409 123.409C409 116.167 410.348 109.833 413.045 104.409C415.742 98.9848 419.53 94.7727 424.409 91.7727C429.288 88.7727 435 87.2727 441.545 87.2727C448.091 87.2727 453.803 88.7727 458.682 91.7727C463.561 94.7727 467.348 98.9848 470.045 104.409C472.742 109.833 474.091 116.167 474.091 123.409C474.091 130.621 472.742 136.924 470.045 142.318C467.348 147.712 463.561 151.909 458.682 154.909C453.803 157.909 448.091 159.409 441.545 159.409ZM441.591 148C445.833 148 449.348 146.879 452.136 144.636C454.924 142.394 456.985 139.409 458.318 135.682C459.682 131.955 460.364 127.848 460.364 123.364C460.364 118.909 459.682 114.818 458.318 111.091C456.985 107.333 454.924 104.318 452.136 102.045C449.348 99.7727 445.833 98.6364 441.591 98.6364C437.318 98.6364 433.773 99.7727 430.955 102.045C428.167 104.318 426.091 107.333 424.727 111.091C423.394 114.818 422.727 118.909 422.727 123.364C422.727 127.848 423.394 131.955 424.727 135.682C426.091 139.409 428.167 142.394 430.955 144.636C433.773 146.879 437.318 148 441.591 148ZM482.443 178.136V146.227H488.125C489.58 144.894 490.807 143.303 491.807 141.455C492.837 139.606 493.701 137.409 494.398 134.864C495.125 132.318 495.731 129.348 496.216 125.955C496.701 122.53 497.125 118.621 497.489 114.227L499.67 88.1818H547.125V146.227H557.852V178.136H544.58V158H495.898V178.136H482.443ZM502.67 146.227H533.852V99.8182H511.852L510.398 114.227C509.701 121.561 508.822 127.924 507.761 133.318C506.701 138.682 505.004 142.985 502.67 146.227ZM601.227 159.409C594.348 159.409 588.424 157.939 583.455 155C578.515 152.03 574.697 147.864 572 142.5C569.333 137.106 568 130.788 568 123.545C568 116.394 569.333 110.091 572 104.636C574.697 99.1818 578.455 94.9242 583.273 91.8636C588.121 88.803 593.788 87.2727 600.273 87.2727C604.212 87.2727 608.03 87.9242 611.727 89.2273C615.424 90.5303 618.742 92.5758 621.682 95.3636C624.621 98.1515 626.939 101.773 628.636 106.227C630.333 110.652 631.182 116.03 631.182 122.364V127.182H575.682V117H617.864C617.864 113.424 617.136 110.258 615.682 107.5C614.227 104.712 612.182 102.515 609.545 100.909C606.939 99.303 603.879 98.5 600.364 98.5C596.545 98.5 593.212 99.4394 590.364 101.318C587.545 103.167 585.364 105.591 583.818 108.591C582.303 111.561 581.545 114.788 581.545 118.273V126.227C581.545 130.894 582.364 134.864 584 138.136C585.667 141.409 587.985 143.909 590.955 145.636C593.924 147.333 597.394 148.182 601.364 148.182C603.939 148.182 606.288 147.818 608.409 147.091C610.53 146.333 612.364 145.212 613.909 143.727C615.455 142.242 616.636 140.409 617.455 138.227L630.318 140.545C629.288 144.333 627.439 147.652 624.773 150.5C622.136 153.318 618.818 155.515 614.818 157.091C610.848 158.636 606.318 159.409 601.227 159.409ZM659.58 138.955L690.352 88.1818H704.989V158H691.67V107.182L661.034 158H646.261V88.1818H659.58V138.955ZM684.534 64.5454H695.716C695.716 69.6667 693.898 73.8333 690.261 77.0455C686.655 80.2273 681.777 81.8182 675.625 81.8182C669.504 81.8182 664.64 80.2273 661.034 77.0455C657.428 73.8333 655.625 69.6667 655.625 64.5454H666.761C666.761 66.8182 667.428 68.8333 668.761 70.5909C670.095 72.3182 672.383 73.1818 675.625 73.1818C678.807 73.1818 681.08 72.3182 682.443 70.5909C683.837 68.8636 684.534 66.8485 684.534 64.5454ZM752.67 159.409C745.913 159.409 740.095 157.879 735.216 154.818C730.367 151.727 726.64 147.47 724.034 142.045C721.428 136.621 720.125 130.409 720.125 123.409C720.125 116.318 721.458 110.061 724.125 104.636C726.792 99.1818 730.549 94.9242 735.398 91.8636C740.246 88.803 745.958 87.2727 752.534 87.2727C757.837 87.2727 762.564 88.2576 766.716 90.2273C770.867 92.1667 774.216 94.8939 776.761 98.4091C779.337 101.924 780.867 106.03 781.352 110.727H768.125C767.398 107.455 765.731 104.636 763.125 102.273C760.549 99.9091 757.095 98.7273 752.761 98.7273C748.973 98.7273 745.655 99.7273 742.807 101.727C739.989 103.697 737.792 106.515 736.216 110.182C734.64 113.818 733.852 118.121 733.852 123.091C733.852 128.182 734.625 132.576 736.17 136.273C737.716 139.97 739.898 142.833 742.716 144.864C745.564 146.894 748.913 147.909 752.761 147.909C755.337 147.909 757.67 147.439 759.761 146.5C761.883 145.53 763.655 144.152 765.08 142.364C766.534 140.576 767.549 138.424 768.125 135.909H781.352C780.867 140.424 779.398 144.455 776.943 148C774.489 151.545 771.201 154.333 767.08 156.364C762.989 158.394 758.186 159.409 752.67 159.409ZM790.602 99.9091V88.1818H849.511V99.9091H826.739V158H813.466V99.9091H790.602ZM863.886 158V88.1818H892.841C900.72 88.1818 906.962 89.8636 911.568 93.2273C916.174 96.5606 918.477 101.091 918.477 106.818C918.477 110.909 917.174 114.152 914.568 116.545C911.962 118.939 908.508 120.545 904.205 121.364C907.326 121.727 910.189 122.667 912.795 124.182C915.402 125.667 917.492 127.667 919.068 130.182C920.674 132.697 921.477 135.697 921.477 139.182C921.477 142.879 920.523 146.152 918.614 149C916.705 151.818 913.932 154.03 910.295 155.636C906.689 157.212 902.341 158 897.25 158H863.886ZM876.659 146.636H897.25C900.614 146.636 903.25 145.833 905.159 144.227C907.068 142.621 908.023 140.439 908.023 137.682C908.023 134.439 907.068 131.894 905.159 130.045C903.25 128.167 900.614 127.227 897.25 127.227H876.659V146.636ZM876.659 117.273H892.977C895.523 117.273 897.705 116.909 899.523 116.182C901.371 115.455 902.78 114.424 903.75 113.091C904.75 111.727 905.25 110.121 905.25 108.273C905.25 105.576 904.144 103.47 901.932 101.955C899.72 100.439 896.689 99.6818 892.841 99.6818H876.659V117.273ZM949.705 138.955L980.477 88.1818H995.114V158H981.795V107.182L951.159 158H936.386V88.1818H949.705V138.955ZM1043.48 159.409C1036.6 159.409 1030.67 157.939 1025.7 155C1020.77 152.03 1016.95 147.864 1014.25 142.5C1011.58 137.106 1010.25 130.788 1010.25 123.545C1010.25 116.394 1011.58 110.091 1014.25 104.636C1016.95 99.1818 1020.7 94.9242 1025.52 91.8636C1030.37 88.803 1036.04 87.2727 1042.52 87.2727C1046.46 87.2727 1050.28 87.9242 1053.98 89.2273C1057.67 90.5303 1060.99 92.5758 1063.93 95.3636C1066.87 98.1515 1069.19 101.773 1070.89 106.227C1072.58 110.652 1073.43 116.03 1073.43 122.364V127.182H1017.93V117H1060.11C1060.11 113.424 1059.39 110.258 1057.93 107.5C1056.48 104.712 1054.43 102.515 1051.8 100.909C1049.19 99.303 1046.13 98.5 1042.61 98.5C1038.8 98.5 1035.46 99.4394 1032.61 101.318C1029.8 103.167 1027.61 105.591 1026.07 108.591C1024.55 111.561 1023.8 114.788 1023.8 118.273V126.227C1023.8 130.894 1024.61 134.864 1026.25 138.136C1027.92 141.409 1030.23 143.909 1033.2 145.636C1036.17 147.333 1039.64 148.182 1043.61 148.182C1046.19 148.182 1048.54 147.818 1050.66 147.091C1052.78 146.333 1054.61 145.212 1056.16 143.727C1057.7 142.242 1058.89 140.409 1059.7 138.227L1072.57 140.545C1071.54 144.333 1069.69 147.652 1067.02 150.5C1064.39 153.318 1061.07 155.515 1057.07 157.091C1053.1 158.636 1048.57 159.409 1043.48 159.409ZM1123.97 60.5454L1093.97 172H1081.83L1111.83 60.5454H1123.97ZM13 294.545H26.9091C27.0909 297.394 28.3788 299.591 30.7727 301.136C33.197 302.682 36.3333 303.455 40.1818 303.455C44.0909 303.455 47.4242 302.621 50.1818 300.955C52.9394 299.258 54.3182 296.636 54.3182 293.091C54.3182 290.97 53.7879 289.121 52.7273 287.545C51.697 285.939 50.2273 284.697 48.3182 283.818C46.4394 282.939 44.2121 282.5 41.6364 282.5H30.2727V271.818H41.6364C45.4848 271.818 48.3636 270.939 50.2727 269.182C52.1818 267.424 53.1364 265.227 53.1364 262.591C53.1364 259.742 52.1061 257.455 50.0455 255.727C48.0152 253.97 45.1818 253.091 41.5455 253.091C37.8485 253.091 34.7727 253.924 32.3182 255.591C29.8636 257.227 28.5758 259.348 28.4545 261.955H14.7273C14.8182 258.045 16 254.621 18.2727 251.682C20.5758 248.712 23.6667 246.409 27.5455 244.773C31.4545 243.106 35.8939 242.273 40.8636 242.273C46.0455 242.273 50.5303 243.106 54.3182 244.773C58.1061 246.439 61.0303 248.742 63.0909 251.682C65.1818 254.621 66.2273 258 66.2273 261.818C66.2273 265.667 65.0758 268.818 62.7727 271.273C60.5 273.697 57.5303 275.439 53.8636 276.5V277.227C56.5606 277.409 58.9545 278.227 61.0455 279.682C63.1364 281.136 64.7727 283.061 65.9545 285.455C67.1364 287.848 67.7273 290.561 67.7273 293.591C67.7273 297.864 66.5455 301.561 64.1818 304.682C61.8485 307.803 58.6061 310.212 54.4545 311.909C50.3333 313.576 45.6212 314.409 40.3182 314.409C35.1667 314.409 30.5455 313.606 26.4545 312C22.3939 310.364 19.1667 308.061 16.7727 305.091C14.4091 302.121 13.1515 298.606 13 294.545ZM102.08 314.545C97.6553 314.545 93.6553 313.727 90.0795 312.091C86.5038 310.424 83.6705 308.015 81.5795 304.864C79.5189 301.712 78.4886 297.848 78.4886 293.273C78.4886 289.333 79.2462 286.091 80.7614 283.545C82.2765 281 84.322 278.985 86.8977 277.5C89.4735 276.015 92.3523 274.894 95.5341 274.136C98.7159 273.379 101.958 272.803 105.261 272.409C109.443 271.924 112.837 271.53 115.443 271.227C118.049 270.894 119.943 270.364 121.125 269.636C122.307 268.909 122.898 267.727 122.898 266.091V265.773C122.898 261.803 121.777 258.727 119.534 256.545C117.322 254.364 114.019 253.273 109.625 253.273C105.049 253.273 101.443 254.288 98.8068 256.318C96.2008 258.318 94.3977 260.545 93.3977 263L80.625 260.091C82.1402 255.848 84.3523 252.424 87.2614 249.818C90.2008 247.182 93.5795 245.273 97.3977 244.091C101.216 242.879 105.231 242.273 109.443 242.273C112.231 242.273 115.186 242.606 118.307 243.273C121.458 243.909 124.398 245.091 127.125 246.818C129.883 248.545 132.14 251.015 133.898 254.227C135.655 257.409 136.534 261.545 136.534 266.636V313H123.261V303.455H122.716C121.837 305.212 120.519 306.939 118.761 308.636C117.004 310.333 114.746 311.742 111.989 312.864C109.231 313.985 105.928 314.545 102.08 314.545ZM105.034 303.636C108.792 303.636 112.004 302.894 114.67 301.409C117.367 299.924 119.413 297.985 120.807 295.591C122.231 293.167 122.943 290.576 122.943 287.818V278.818C122.458 279.303 121.519 279.758 120.125 280.182C118.761 280.576 117.201 280.924 115.443 281.227C113.686 281.5 111.973 281.758 110.307 282C108.64 282.212 107.246 282.394 106.125 282.545C103.489 282.879 101.08 283.439 98.8977 284.227C96.7462 285.015 95.0189 286.152 93.7159 287.636C92.4432 289.091 91.8068 291.03 91.8068 293.455C91.8068 296.818 93.0492 299.364 95.5341 301.091C98.0189 302.788 101.186 303.636 105.034 303.636ZM154.636 313V243.182H168.227V272.455H174.773L197.818 243.182H214.636L187.591 277.136L214.955 313H198.091L177.045 285.091H168.227V313H154.636ZM252.045 314.409C245.5 314.409 239.788 312.909 234.909 309.909C230.03 306.909 226.242 302.712 223.545 297.318C220.848 291.924 219.5 285.621 219.5 278.409C219.5 271.167 220.848 264.833 223.545 259.409C226.242 253.985 230.03 249.773 234.909 246.773C239.788 243.773 245.5 242.273 252.045 242.273C258.591 242.273 264.303 243.773 269.182 246.773C274.061 249.773 277.848 253.985 280.545 259.409C283.242 264.833 284.591 271.167 284.591 278.409C284.591 285.621 283.242 291.924 280.545 297.318C277.848 302.712 274.061 306.909 269.182 309.909C264.303 312.909 258.591 314.409 252.045 314.409ZM252.091 303C256.333 303 259.848 301.879 262.636 299.636C265.424 297.394 267.485 294.409 268.818 290.682C270.182 286.955 270.864 282.848 270.864 278.364C270.864 273.909 270.182 269.818 268.818 266.091C267.485 262.333 265.424 259.318 262.636 257.045C259.848 254.773 256.333 253.636 252.091 253.636C247.818 253.636 244.273 254.773 241.455 257.045C238.667 259.318 236.591 262.333 235.227 266.091C233.894 269.818 233.227 273.909 233.227 278.364C233.227 282.848 233.894 286.955 235.227 290.682C236.591 294.409 238.667 297.394 241.455 299.636C244.273 301.879 247.818 303 252.091 303ZM347.08 272.227V284H309.261V272.227H347.08ZM313.08 243.182V313H299.761V243.182H313.08ZM356.58 243.182V313H343.307V243.182H356.58ZM430.807 243.182V313H417.534V243.182H430.807ZM425.034 275.591V287.318C422.943 288.167 420.731 288.924 418.398 289.591C416.064 290.227 413.61 290.727 411.034 291.091C408.458 291.455 405.777 291.636 402.989 291.636C394.352 291.636 387.489 289.53 382.398 285.318C377.307 281.076 374.761 274.591 374.761 265.864V243.045H387.989V265.864C387.989 269.167 388.595 271.848 389.807 273.909C391.019 275.97 392.746 277.485 394.989 278.455C397.231 279.424 399.898 279.909 402.989 279.909C407.08 279.909 410.852 279.53 414.307 278.773C417.792 277.985 421.367 276.924 425.034 275.591ZM462.205 293.955L492.977 243.182H507.614V313H494.295V262.182L463.659 313H448.886V243.182H462.205V293.955ZM517.227 254.909V243.182H576.136V254.909H553.364V313H540.091V254.909H517.227ZM600.739 267.182H621.011C629.557 267.182 636.133 269.303 640.739 273.545C645.345 277.788 647.648 283.258 647.648 289.955C647.648 294.318 646.617 298.242 644.557 301.727C642.496 305.212 639.481 307.97 635.511 310C631.542 312 626.708 313 621.011 313H590.511V243.182H603.83V301.273H621.011C624.92 301.273 628.133 300.258 630.648 298.227C633.163 296.167 634.42 293.545 634.42 290.364C634.42 287 633.163 284.258 630.648 282.136C628.133 279.985 624.92 278.909 621.011 278.909H600.739V267.182ZM696.761 313V243.182H725.716C733.595 243.182 739.837 244.864 744.443 248.227C749.049 251.561 751.352 256.091 751.352 261.818C751.352 265.909 750.049 269.152 747.443 271.545C744.837 273.939 741.383 275.545 737.08 276.364C740.201 276.727 743.064 277.667 745.67 279.182C748.277 280.667 750.367 282.667 751.943 285.182C753.549 287.697 754.352 290.697 754.352 294.182C754.352 297.879 753.398 301.152 751.489 304C749.58 306.818 746.807 309.03 743.17 310.636C739.564 312.212 735.216 313 730.125 313H696.761ZM709.534 301.636H730.125C733.489 301.636 736.125 300.833 738.034 299.227C739.943 297.621 740.898 295.439 740.898 292.682C740.898 289.439 739.943 286.894 738.034 285.045C736.125 283.167 733.489 282.227 730.125 282.227H709.534V301.636ZM709.534 272.273H725.852C728.398 272.273 730.58 271.909 732.398 271.182C734.246 270.455 735.655 269.424 736.625 268.091C737.625 266.727 738.125 265.121 738.125 263.273C738.125 260.576 737.019 258.47 734.807 256.955C732.595 255.439 729.564 254.682 725.716 254.682H709.534V272.273ZM765.125 294.545H779.034C779.216 297.394 780.504 299.591 782.898 301.136C785.322 302.682 788.458 303.455 792.307 303.455C796.216 303.455 799.549 302.621 802.307 300.955C805.064 299.258 806.443 296.636 806.443 293.091C806.443 290.97 805.913 289.121 804.852 287.545C803.822 285.939 802.352 284.697 800.443 283.818C798.564 282.939 796.337 282.5 793.761 282.5H782.398V271.818H793.761C797.61 271.818 800.489 270.939 802.398 269.182C804.307 267.424 805.261 265.227 805.261 262.591C805.261 259.742 804.231 257.455 802.17 255.727C800.14 253.97 797.307 253.091 793.67 253.091C789.973 253.091 786.898 253.924 784.443 255.591C781.989 257.227 780.701 259.348 780.58 261.955H766.852C766.943 258.045 768.125 254.621 770.398 251.682C772.701 248.712 775.792 246.409 779.67 244.773C783.58 243.106 788.019 242.273 792.989 242.273C798.17 242.273 802.655 243.106 806.443 244.773C810.231 246.439 813.155 248.742 815.216 251.682C817.307 254.621 818.352 258 818.352 261.818C818.352 265.667 817.201 268.818 814.898 271.273C812.625 273.697 809.655 275.439 805.989 276.5V277.227C808.686 277.409 811.08 278.227 813.17 279.682C815.261 281.136 816.898 283.061 818.08 285.455C819.261 287.848 819.852 290.561 819.852 293.591C819.852 297.864 818.67 301.561 816.307 304.682C813.973 307.803 810.731 310.212 806.58 311.909C802.458 313.576 797.746 314.409 792.443 314.409C787.292 314.409 782.67 313.606 778.58 312C774.519 310.364 771.292 308.061 768.898 305.091C766.534 302.121 765.277 298.606 765.125 294.545ZM854.205 314.545C849.78 314.545 845.78 313.727 842.205 312.091C838.629 310.424 835.795 308.015 833.705 304.864C831.644 301.712 830.614 297.848 830.614 293.273C830.614 289.333 831.371 286.091 832.886 283.545C834.402 281 836.447 278.985 839.023 277.5C841.598 276.015 844.477 274.894 847.659 274.136C850.841 273.379 854.083 272.803 857.386 272.409C861.568 271.924 864.962 271.53 867.568 271.227C870.174 270.894 872.068 270.364 873.25 269.636C874.432 268.909 875.023 267.727 875.023 266.091V265.773C875.023 261.803 873.902 258.727 871.659 256.545C869.447 254.364 866.144 253.273 861.75 253.273C857.174 253.273 853.568 254.288 850.932 256.318C848.326 258.318 846.523 260.545 845.523 263L832.75 260.091C834.265 255.848 836.477 252.424 839.386 249.818C842.326 247.182 845.705 245.273 849.523 244.091C853.341 242.879 857.356 242.273 861.568 242.273C864.356 242.273 867.311 242.606 870.432 243.273C873.583 243.909 876.523 245.091 879.25 246.818C882.008 248.545 884.265 251.015 886.023 254.227C887.78 257.409 888.659 261.545 888.659 266.636V313H875.386V303.455H874.841C873.962 305.212 872.644 306.939 870.886 308.636C869.129 310.333 866.871 311.742 864.114 312.864C861.356 313.985 858.053 314.545 854.205 314.545ZM857.159 303.636C860.917 303.636 864.129 302.894 866.795 301.409C869.492 299.924 871.538 297.985 872.932 295.591C874.356 293.167 875.068 290.576 875.068 287.818V278.818C874.583 279.303 873.644 279.758 872.25 280.182C870.886 280.576 869.326 280.924 867.568 281.227C865.811 281.5 864.098 281.758 862.432 282C860.765 282.212 859.371 282.394 858.25 282.545C855.614 282.879 853.205 283.439 851.023 284.227C848.871 285.015 847.144 286.152 845.841 287.636C844.568 289.091 843.932 291.03 843.932 293.455C843.932 296.818 845.174 299.364 847.659 301.091C850.144 302.788 853.311 303.636 857.159 303.636ZM920.08 293.955L950.852 243.182H965.489V313H952.17V262.182L921.534 313H906.761V243.182H920.08V293.955ZM1022.94 296.182L1045.49 243.182H1057.22L1027.99 313H1017.9L989.261 243.182H1000.85L1022.94 296.182ZM997.08 243.182V313H983.761V243.182H997.08ZM1049.17 313V243.182H1062.4V313H1049.17ZM1109.92 314.409C1103.38 314.409 1097.66 312.909 1092.78 309.909C1087.91 306.909 1084.12 302.712 1081.42 297.318C1078.72 291.924 1077.38 285.621 1077.38 278.409C1077.38 271.167 1078.72 264.833 1081.42 259.409C1084.12 253.985 1087.91 249.773 1092.78 246.773C1097.66 243.773 1103.38 242.273 1109.92 242.273C1116.47 242.273 1122.18 243.773 1127.06 246.773C1131.94 249.773 1135.72 253.985 1138.42 259.409C1141.12 264.833 1142.47 271.167 1142.47 278.409C1142.47 285.621 1141.12 291.924 1138.42 297.318C1135.72 302.712 1131.94 306.909 1127.06 309.909C1122.18 312.909 1116.47 314.409 1109.92 314.409ZM1109.97 303C1114.21 303 1117.72 301.879 1120.51 299.636C1123.3 297.394 1125.36 294.409 1126.69 290.682C1128.06 286.955 1128.74 282.848 1128.74 278.364C1128.74 273.909 1128.06 269.818 1126.69 266.091C1125.36 262.333 1123.3 259.318 1120.51 257.045C1117.72 254.773 1114.21 253.636 1109.97 253.636C1105.69 253.636 1102.15 254.773 1099.33 257.045C1096.54 259.318 1094.47 262.333 1093.1 266.091C1091.77 269.818 1091.1 273.909 1091.1 278.364C1091.1 282.848 1091.77 286.955 1093.1 290.682C1094.47 294.409 1096.54 297.394 1099.33 299.636C1102.15 301.879 1105.69 303 1109.97 303ZM1150.82 333.136V301.227H1156.5C1157.95 299.894 1159.18 298.303 1160.18 296.455C1161.21 294.606 1162.08 292.409 1162.77 289.864C1163.5 287.318 1164.11 284.348 1164.59 280.955C1165.08 277.53 1165.5 273.621 1165.86 269.227L1168.05 243.182H1215.5V301.227H1226.23V333.136H1212.95V313H1164.27V333.136H1150.82ZM1171.05 301.227H1202.23V254.818H1180.23L1178.77 269.227C1178.08 276.561 1177.2 282.924 1176.14 288.318C1175.08 293.682 1173.38 297.985 1171.05 301.227ZM1269.6 314.409C1262.72 314.409 1256.8 312.939 1251.83 310C1246.89 307.03 1243.07 302.864 1240.38 297.5C1237.71 292.106 1236.38 285.788 1236.38 278.545C1236.38 271.394 1237.71 265.091 1240.38 259.636C1243.07 254.182 1246.83 249.924 1251.65 246.864C1256.5 243.803 1262.16 242.273 1268.65 242.273C1272.59 242.273 1276.41 242.924 1280.1 244.227C1283.8 245.53 1287.12 247.576 1290.06 250.364C1293 253.152 1295.31 256.773 1297.01 261.227C1298.71 265.652 1299.56 271.03 1299.56 277.364V282.182H1244.06V272H1286.24C1286.24 268.424 1285.51 265.258 1284.06 262.5C1282.6 259.712 1280.56 257.515 1277.92 255.909C1275.31 254.303 1272.25 253.5 1268.74 253.5C1264.92 253.5 1261.59 254.439 1258.74 256.318C1255.92 258.167 1253.74 260.591 1252.19 263.591C1250.68 266.561 1249.92 269.788 1249.92 273.273V281.227C1249.92 285.894 1250.74 289.864 1252.38 293.136C1254.04 296.409 1256.36 298.909 1259.33 300.636C1262.3 302.333 1265.77 303.182 1269.74 303.182C1272.31 303.182 1274.66 302.818 1276.78 302.091C1278.91 301.333 1280.74 300.212 1282.28 298.727C1283.83 297.242 1285.01 295.409 1285.83 293.227L1298.69 295.545C1297.66 299.333 1295.81 302.652 1293.15 305.5C1290.51 308.318 1287.19 310.515 1283.19 312.091C1279.22 313.636 1274.69 314.409 1269.6 314.409ZM1327.95 293.955L1358.73 243.182H1373.36V313H1360.05V262.182L1329.41 313H1314.64V243.182H1327.95V293.955ZM1352.91 219.545H1364.09C1364.09 224.667 1362.27 228.833 1358.64 232.045C1355.03 235.227 1350.15 236.818 1344 236.818C1337.88 236.818 1333.02 235.227 1329.41 232.045C1325.8 228.833 1324 224.667 1324 219.545H1335.14C1335.14 221.818 1335.8 223.833 1337.14 225.591C1338.47 227.318 1340.76 228.182 1344 228.182C1347.18 228.182 1349.45 227.318 1350.82 225.591C1352.21 223.864 1352.91 221.848 1352.91 219.545ZM1421.05 314.409C1414.29 314.409 1408.47 312.879 1403.59 309.818C1398.74 306.727 1395.02 302.47 1392.41 297.045C1389.8 291.621 1388.5 285.409 1388.5 278.409C1388.5 271.318 1389.83 265.061 1392.5 259.636C1395.17 254.182 1398.92 249.924 1403.77 246.864C1408.62 243.803 1414.33 242.273 1420.91 242.273C1426.21 242.273 1430.94 243.258 1435.09 245.227C1439.24 247.167 1442.59 249.894 1445.14 253.409C1447.71 256.924 1449.24 261.03 1449.73 265.727H1436.5C1435.77 262.455 1434.11 259.636 1431.5 257.273C1428.92 254.909 1425.47 253.727 1421.14 253.727C1417.35 253.727 1414.03 254.727 1411.18 256.727C1408.36 258.697 1406.17 261.515 1404.59 265.182C1403.02 268.818 1402.23 273.121 1402.23 278.091C1402.23 283.182 1403 287.576 1404.55 291.273C1406.09 294.97 1408.27 297.833 1411.09 299.864C1413.94 301.894 1417.29 302.909 1421.14 302.909C1423.71 302.909 1426.05 302.439 1428.14 301.5C1430.26 300.53 1432.03 299.152 1433.45 297.364C1434.91 295.576 1435.92 293.424 1436.5 290.909H1449.73C1449.24 295.424 1447.77 299.455 1445.32 303C1442.86 306.545 1439.58 309.333 1435.45 311.364C1431.36 313.394 1426.56 314.409 1421.05 314.409ZM1458.98 254.909V243.182H1517.89V254.909H1495.11V313H1481.84V254.909H1458.98ZM1532.26 313V243.182H1561.22C1569.09 243.182 1575.34 244.864 1579.94 248.227C1584.55 251.561 1586.85 256.091 1586.85 261.818C1586.85 265.909 1585.55 269.152 1582.94 271.545C1580.34 273.939 1576.88 275.545 1572.58 276.364C1575.7 276.727 1578.56 277.667 1581.17 279.182C1583.78 280.667 1585.87 282.667 1587.44 285.182C1589.05 287.697 1589.85 290.697 1589.85 294.182C1589.85 297.879 1588.9 301.152 1586.99 304C1585.08 306.818 1582.31 309.03 1578.67 310.636C1575.06 312.212 1570.72 313 1565.62 313H1532.26ZM1545.03 301.636H1565.62C1568.99 301.636 1571.63 300.833 1573.53 299.227C1575.44 297.621 1576.4 295.439 1576.4 292.682C1576.4 289.439 1575.44 286.894 1573.53 285.045C1571.63 283.167 1568.99 282.227 1565.62 282.227H1545.03V301.636ZM1545.03 272.273H1561.35C1563.9 272.273 1566.08 271.909 1567.9 271.182C1569.75 270.455 1571.16 269.424 1572.12 268.091C1573.12 266.727 1573.62 265.121 1573.62 263.273C1573.62 260.576 1572.52 258.47 1570.31 256.955C1568.09 255.439 1565.06 254.682 1561.22 254.682H1545.03V272.273ZM1618.08 293.955L1648.85 243.182H1663.49V313H1650.17V262.182L1619.53 313H1604.76V243.182H1618.08V293.955ZM1711.85 314.409C1704.97 314.409 1699.05 312.939 1694.08 310C1689.14 307.03 1685.32 302.864 1682.62 297.5C1679.96 292.106 1678.62 285.788 1678.62 278.545C1678.62 271.394 1679.96 265.091 1682.62 259.636C1685.32 254.182 1689.08 249.924 1693.9 246.864C1698.75 243.803 1704.41 242.273 1710.9 242.273C1714.84 242.273 1718.66 242.924 1722.35 244.227C1726.05 245.53 1729.37 247.576 1732.31 250.364C1735.25 253.152 1737.56 256.773 1739.26 261.227C1740.96 265.652 1741.81 271.03 1741.81 277.364V282.182H1686.31V272H1728.49C1728.49 268.424 1727.76 265.258 1726.31 262.5C1724.85 259.712 1722.81 257.515 1720.17 255.909C1717.56 254.303 1714.5 253.5 1710.99 253.5C1707.17 253.5 1703.84 254.439 1700.99 256.318C1698.17 258.167 1695.99 260.591 1694.44 263.591C1692.93 266.561 1692.17 269.788 1692.17 273.273V281.227C1692.17 285.894 1692.99 289.864 1694.62 293.136C1696.29 296.409 1698.61 298.909 1701.58 300.636C1704.55 302.333 1708.02 303.182 1711.99 303.182C1714.56 303.182 1716.91 302.818 1719.03 302.091C1721.16 301.333 1722.99 300.212 1724.53 298.727C1726.08 297.242 1727.26 295.409 1728.08 293.227L1740.94 295.545C1739.91 299.333 1738.06 302.652 1735.4 305.5C1732.76 308.318 1729.44 310.515 1725.44 312.091C1721.47 313.636 1716.94 314.409 1711.85 314.409ZM1765.84 313.864C1763.36 313.864 1761.22 312.985 1759.43 311.227C1757.64 309.439 1756.75 307.288 1756.75 304.773C1756.75 302.288 1757.64 300.167 1759.43 298.409C1761.22 296.621 1763.36 295.727 1765.84 295.727C1768.33 295.727 1770.46 296.621 1772.25 298.409C1774.04 300.167 1774.93 302.288 1774.93 304.773C1774.93 306.439 1774.51 307.97 1773.66 309.364C1772.84 310.727 1771.75 311.818 1770.39 312.636C1769.02 313.455 1767.51 313.864 1765.84 313.864ZM1765.84 263.045C1763.36 263.045 1761.22 262.152 1759.43 260.364C1757.64 258.576 1756.75 256.439 1756.75 253.955C1756.75 251.47 1757.64 249.348 1759.43 247.591C1761.22 245.803 1763.36 244.909 1765.84 244.909C1768.33 244.909 1770.46 245.803 1772.25 247.591C1774.04 249.348 1774.93 251.47 1774.93 253.955C1774.93 255.621 1774.51 257.152 1773.66 258.545C1772.84 259.909 1771.75 261 1770.39 261.818C1769.02 262.636 1767.51 263.045 1765.84 263.045Z" fill="black"/>
<rect x="1877" y="61" width="271" height="267" rx="33" fill="#D9D9D9" stroke="#373737" stroke-width="16"/>
<path d="M2014.05 246.491C2006.4 246.491 1999.79 244.901 1994.22 241.719C1988.68 238.504 1984.42 233.963 1981.44 228.097C1978.46 222.197 1976.97 215.253 1976.97 207.266C1976.97 199.411 1978.46 192.517 1981.44 186.584C1984.46 180.618 1988.67 175.978 1994.07 172.663C1999.47 169.316 2005.82 167.642 2013.11 167.642C2017.82 167.642 2022.26 168.404 2026.43 169.929C2030.64 171.42 2034.35 173.741 2037.57 176.889C2040.82 180.038 2043.37 184.048 2045.23 188.92C2047.08 193.759 2048.01 199.527 2048.01 206.222V211.74H1985.42V199.609H2030.76C2030.73 196.162 2029.98 193.097 2028.52 190.412C2027.06 187.694 2025.02 185.556 2022.41 183.999C2019.82 182.441 2016.8 181.662 2013.36 181.662C2009.68 181.662 2006.45 182.557 2003.66 184.347C2000.88 186.103 1998.71 188.423 1997.15 191.307C1995.63 194.157 1994.85 197.289 1994.81 200.703V211.293C1994.81 215.734 1995.63 219.545 1997.25 222.727C1998.87 225.876 2001.14 228.295 2004.06 229.986C2006.98 231.643 2010.39 232.472 2014.3 232.472C2016.92 232.472 2019.29 232.107 2021.41 231.378C2023.53 230.616 2025.37 229.505 2026.93 228.047C2028.49 226.589 2029.66 224.782 2030.46 222.628L2047.26 224.517C2046.2 228.958 2044.18 232.836 2041.2 236.151C2038.25 239.432 2034.47 241.984 2029.86 243.807C2025.26 245.597 2019.99 246.491 2014.05 246.491Z" fill="#222222"/>
</svg>
