<svg width="1973" height="595" viewBox="0 0 1973 595" fill="none" xmlns="http://www.w3.org/2000/svg">
<path d="M122 178.909V272H108V190.909H64.1818V272H50.1818V178.909H122ZM172.477 273.409C165.598 273.409 159.674 271.939 154.705 269C149.765 266.03 145.947 261.864 143.25 256.5C140.583 251.106 139.25 244.788 139.25 237.545C139.25 230.394 140.583 224.091 143.25 218.636C145.947 213.182 149.705 208.924 154.523 205.864C159.371 202.803 165.038 201.273 171.523 201.273C175.462 201.273 179.28 201.924 182.977 203.227C186.674 204.53 189.992 206.576 192.932 209.364C195.871 212.152 198.189 215.773 199.886 220.227C201.583 224.652 202.432 230.03 202.432 236.364V241.182H146.932V231H189.114C189.114 227.424 188.386 224.258 186.932 221.5C185.477 218.712 183.432 216.515 180.795 214.909C178.189 213.303 175.129 212.5 171.614 212.5C167.795 212.5 164.462 213.439 161.614 215.318C158.795 217.167 156.614 219.591 155.068 222.591C153.553 225.561 152.795 228.788 152.795 232.273V240.227C152.795 244.894 153.614 248.864 155.25 252.136C156.917 255.409 159.235 257.909 162.205 259.636C165.174 261.333 168.644 262.182 172.614 262.182C175.189 262.182 177.538 261.818 179.659 261.091C181.78 260.333 183.614 259.212 185.159 257.727C186.705 256.242 187.886 254.409 188.705 252.227L201.568 254.545C200.538 258.333 198.689 261.652 196.023 264.5C193.386 267.318 190.068 269.515 186.068 271.091C182.098 272.636 177.568 273.409 172.477 273.409ZM217.511 298.182V202.182H230.784V213.5H231.92C232.708 212.045 233.845 210.364 235.33 208.455C236.814 206.545 238.875 204.879 241.511 203.455C244.148 202 247.633 201.273 251.966 201.273C257.602 201.273 262.633 202.697 267.057 205.545C271.481 208.394 274.951 212.5 277.466 217.864C280.011 223.227 281.284 229.682 281.284 237.227C281.284 244.773 280.027 251.242 277.511 256.636C274.996 262 271.542 266.136 267.148 269.045C262.754 271.924 257.739 273.364 252.102 273.364C247.86 273.364 244.39 272.652 241.693 271.227C239.027 269.803 236.936 268.136 235.42 266.227C233.905 264.318 232.739 262.621 231.92 261.136H231.102V298.182H217.511ZM230.83 237.091C230.83 242 231.542 246.303 232.966 250C234.39 253.697 236.451 256.591 239.148 258.682C241.845 260.742 245.148 261.773 249.057 261.773C253.117 261.773 256.511 260.697 259.239 258.545C261.966 256.364 264.027 253.409 265.42 249.682C266.845 245.955 267.557 241.758 267.557 237.091C267.557 232.485 266.86 228.348 265.466 224.682C264.102 221.015 262.042 218.121 259.284 216C256.557 213.879 253.148 212.818 249.057 212.818C245.117 212.818 241.784 213.833 239.057 215.864C236.36 217.894 234.314 220.727 232.92 224.364C231.527 228 230.83 232.242 230.83 237.091ZM326.602 273.409C319.723 273.409 313.799 271.939 308.83 269C303.89 266.03 300.072 261.864 297.375 256.5C294.708 251.106 293.375 244.788 293.375 237.545C293.375 230.394 294.708 224.091 297.375 218.636C300.072 213.182 303.83 208.924 308.648 205.864C313.496 202.803 319.163 201.273 325.648 201.273C329.587 201.273 333.405 201.924 337.102 203.227C340.799 204.53 344.117 206.576 347.057 209.364C349.996 212.152 352.314 215.773 354.011 220.227C355.708 224.652 356.557 230.03 356.557 236.364V241.182H301.057V231H343.239C343.239 227.424 342.511 224.258 341.057 221.5C339.602 218.712 337.557 216.515 334.92 214.909C332.314 213.303 329.254 212.5 325.739 212.5C321.92 212.5 318.587 213.439 315.739 215.318C312.92 217.167 310.739 219.591 309.193 222.591C307.678 225.561 306.92 228.788 306.92 232.273V240.227C306.92 244.894 307.739 248.864 309.375 252.136C311.042 255.409 313.36 257.909 316.33 259.636C319.299 261.333 322.769 262.182 326.739 262.182C329.314 262.182 331.663 261.818 333.784 261.091C335.905 260.333 337.739 259.212 339.284 257.727C340.83 256.242 342.011 254.409 342.83 252.227L355.693 254.545C354.663 258.333 352.814 261.652 350.148 264.5C347.511 267.318 344.193 269.515 340.193 271.091C336.223 272.636 331.693 273.409 326.602 273.409ZM410.818 255.182L433.364 202.182H445.091L415.864 272H405.773L377.136 202.182H388.727L410.818 255.182ZM384.955 202.182V272H371.636V202.182H384.955ZM437.045 272V202.182H450.273V272H437.045ZM498.477 273.409C491.598 273.409 485.674 271.939 480.705 269C475.765 266.03 471.947 261.864 469.25 256.5C466.583 251.106 465.25 244.788 465.25 237.545C465.25 230.394 466.583 224.091 469.25 218.636C471.947 213.182 475.705 208.924 480.523 205.864C485.371 202.803 491.038 201.273 497.523 201.273C501.462 201.273 505.28 201.924 508.977 203.227C512.674 204.53 515.992 206.576 518.932 209.364C521.871 212.152 524.189 215.773 525.886 220.227C527.583 224.652 528.432 230.03 528.432 236.364V241.182H472.932V231H515.114C515.114 227.424 514.386 224.258 512.932 221.5C511.477 218.712 509.432 216.515 506.795 214.909C504.189 213.303 501.129 212.5 497.614 212.5C493.795 212.5 490.462 213.439 487.614 215.318C484.795 217.167 482.614 219.591 481.068 222.591C479.553 225.561 478.795 228.788 478.795 232.273V240.227C478.795 244.894 479.614 248.864 481.25 252.136C482.917 255.409 485.235 257.909 488.205 259.636C491.174 261.333 494.644 262.182 498.614 262.182C501.189 262.182 503.538 261.818 505.659 261.091C507.78 260.333 509.614 259.212 511.159 257.727C512.705 256.242 513.886 254.409 514.705 252.227L527.568 254.545C526.538 258.333 524.689 261.652 522.023 264.5C519.386 267.318 516.068 269.515 512.068 271.091C508.098 272.636 503.568 273.409 498.477 273.409ZM643.557 260.273L642.284 292H628.966V272H620.284V260.273H643.557ZM543.511 202.182H556.83V260.227H580.966V202.182H594.284V260.227H618.42V202.182H631.739V272H543.511V202.182ZM687.227 273.409C680.348 273.409 674.424 271.939 669.455 269C664.515 266.03 660.697 261.864 658 256.5C655.333 251.106 654 244.788 654 237.545C654 230.394 655.333 224.091 658 218.636C660.697 213.182 664.455 208.924 669.273 205.864C674.121 202.803 679.788 201.273 686.273 201.273C690.212 201.273 694.03 201.924 697.727 203.227C701.424 204.53 704.742 206.576 707.682 209.364C710.621 212.152 712.939 215.773 714.636 220.227C716.333 224.652 717.182 230.03 717.182 236.364V241.182H661.682V231H703.864C703.864 227.424 703.136 224.258 701.682 221.5C700.227 218.712 698.182 216.515 695.545 214.909C692.939 213.303 689.879 212.5 686.364 212.5C682.545 212.5 679.212 213.439 676.364 215.318C673.545 217.167 671.364 219.591 669.818 222.591C668.303 225.561 667.545 228.788 667.545 232.273V240.227C667.545 244.894 668.364 248.864 670 252.136C671.667 255.409 673.985 257.909 676.955 259.636C679.924 261.333 683.394 262.182 687.364 262.182C689.939 262.182 692.288 261.818 694.409 261.091C696.53 260.333 698.364 259.212 699.909 257.727C701.455 256.242 702.636 254.409 703.455 252.227L716.318 254.545C715.288 258.333 713.439 261.652 710.773 264.5C708.136 267.318 704.818 269.515 700.818 271.091C696.848 272.636 692.318 273.409 687.227 273.409ZM779.58 231.227V243H741.761V231.227H779.58ZM745.58 202.182V272H732.261V202.182H745.58ZM789.08 202.182V272H775.807V202.182H789.08ZM820.58 252.955L851.352 202.182H865.989V272H852.67V221.182L822.034 272H807.261V202.182H820.58V252.955ZM914.352 273.409C907.473 273.409 901.549 271.939 896.58 269C891.64 266.03 887.822 261.864 885.125 256.5C882.458 251.106 881.125 244.788 881.125 237.545C881.125 230.394 882.458 224.091 885.125 218.636C887.822 213.182 891.58 208.924 896.398 205.864C901.246 202.803 906.913 201.273 913.398 201.273C917.337 201.273 921.155 201.924 924.852 203.227C928.549 204.53 931.867 206.576 934.807 209.364C937.746 212.152 940.064 215.773 941.761 220.227C943.458 224.652 944.307 230.03 944.307 236.364V241.182H888.807V231H930.989C930.989 227.424 930.261 224.258 928.807 221.5C927.352 218.712 925.307 216.515 922.67 214.909C920.064 213.303 917.004 212.5 913.489 212.5C909.67 212.5 906.337 213.439 903.489 215.318C900.67 217.167 898.489 219.591 896.943 222.591C895.428 225.561 894.67 228.788 894.67 232.273V240.227C894.67 244.894 895.489 248.864 897.125 252.136C898.792 255.409 901.11 257.909 904.08 259.636C907.049 261.333 910.519 262.182 914.489 262.182C917.064 262.182 919.413 261.818 921.534 261.091C923.655 260.333 925.489 259.212 927.034 257.727C928.58 256.242 929.761 254.409 930.58 252.227L943.443 254.545C942.413 258.333 940.564 261.652 937.898 264.5C935.261 267.318 931.943 269.515 927.943 271.091C923.973 272.636 919.443 273.409 914.352 273.409ZM48.1364 427V357.182H105.091V427H91.7727V368.909H61.3636V427H48.1364ZM152.67 428.409C146.125 428.409 140.413 426.909 135.534 423.909C130.655 420.909 126.867 416.712 124.17 411.318C121.473 405.924 120.125 399.621 120.125 392.409C120.125 385.167 121.473 378.833 124.17 373.409C126.867 367.985 130.655 363.773 135.534 360.773C140.413 357.773 146.125 356.273 152.67 356.273C159.216 356.273 164.928 357.773 169.807 360.773C174.686 363.773 178.473 367.985 181.17 373.409C183.867 378.833 185.216 385.167 185.216 392.409C185.216 399.621 183.867 405.924 181.17 411.318C178.473 416.712 174.686 420.909 169.807 423.909C164.928 426.909 159.216 428.409 152.67 428.409ZM152.716 417C156.958 417 160.473 415.879 163.261 413.636C166.049 411.394 168.11 408.409 169.443 404.682C170.807 400.955 171.489 396.848 171.489 392.364C171.489 387.909 170.807 383.818 169.443 380.091C168.11 376.333 166.049 373.318 163.261 371.045C160.473 368.773 156.958 367.636 152.716 367.636C148.443 367.636 144.898 368.773 142.08 371.045C139.292 373.318 137.216 376.333 135.852 380.091C134.519 383.818 133.852 387.909 133.852 392.364C133.852 396.848 134.519 400.955 135.852 404.682C137.216 408.409 139.292 411.394 142.08 413.636C144.898 415.879 148.443 417 152.716 417ZM228.761 427L228.716 415.227H231.216C233.155 415.227 234.777 414.818 236.08 414C237.413 413.152 238.504 411.727 239.352 409.727C240.201 407.727 240.852 404.97 241.307 401.455C241.761 397.909 242.095 393.455 242.307 388.091L243.534 357.182H292.261V427H278.943V368.909H256.125L255.034 392.636C254.761 398.394 254.17 403.424 253.261 407.727C252.383 412.03 251.095 415.621 249.398 418.5C247.701 421.348 245.519 423.485 242.852 424.909C240.186 426.303 236.943 427 233.125 427H228.761ZM330.705 428.545C326.28 428.545 322.28 427.727 318.705 426.091C315.129 424.424 312.295 422.015 310.205 418.864C308.144 415.712 307.114 411.848 307.114 407.273C307.114 403.333 307.871 400.091 309.386 397.545C310.902 395 312.947 392.985 315.523 391.5C318.098 390.015 320.977 388.894 324.159 388.136C327.341 387.379 330.583 386.803 333.886 386.409C338.068 385.924 341.462 385.53 344.068 385.227C346.674 384.894 348.568 384.364 349.75 383.636C350.932 382.909 351.523 381.727 351.523 380.091V379.773C351.523 375.803 350.402 372.727 348.159 370.545C345.947 368.364 342.644 367.273 338.25 367.273C333.674 367.273 330.068 368.288 327.432 370.318C324.826 372.318 323.023 374.545 322.023 377L309.25 374.091C310.765 369.848 312.977 366.424 315.886 363.818C318.826 361.182 322.205 359.273 326.023 358.091C329.841 356.879 333.856 356.273 338.068 356.273C340.856 356.273 343.811 356.606 346.932 357.273C350.083 357.909 353.023 359.091 355.75 360.818C358.508 362.545 360.765 365.015 362.523 368.227C364.28 371.409 365.159 375.545 365.159 380.636V427H351.886V417.455H351.341C350.462 419.212 349.144 420.939 347.386 422.636C345.629 424.333 343.371 425.742 340.614 426.864C337.856 427.985 334.553 428.545 330.705 428.545ZM333.659 417.636C337.417 417.636 340.629 416.894 343.295 415.409C345.992 413.924 348.038 411.985 349.432 409.591C350.856 407.167 351.568 404.576 351.568 401.818V392.818C351.083 393.303 350.144 393.758 348.75 394.182C347.386 394.576 345.826 394.924 344.068 395.227C342.311 395.5 340.598 395.758 338.932 396C337.265 396.212 335.871 396.394 334.75 396.545C332.114 396.879 329.705 397.439 327.523 398.227C325.371 399.015 323.644 400.152 322.341 401.636C321.068 403.091 320.432 405.03 320.432 407.455C320.432 410.818 321.674 413.364 324.159 415.091C326.644 416.788 329.811 417.636 333.659 417.636ZM437.125 331.182L442.761 339.773C440.67 341.682 438.292 343.045 435.625 343.864C432.989 344.652 429.943 345.152 426.489 345.364C423.034 345.545 419.08 345.712 414.625 345.864C409.595 346.015 405.458 347.106 402.216 349.136C398.973 351.136 396.473 354.106 394.716 358.045C392.989 361.955 391.867 366.864 391.352 372.773H392.216C394.489 368.439 397.64 365.197 401.67 363.045C405.731 360.894 410.292 359.818 415.352 359.818C420.989 359.818 426.004 361.106 430.398 363.682C434.792 366.258 438.246 370.03 440.761 375C443.307 379.939 444.58 385.985 444.58 393.136C444.58 400.379 443.246 406.636 440.58 411.909C437.943 417.182 434.216 421.258 429.398 424.136C424.61 426.985 418.958 428.409 412.443 428.409C405.928 428.409 400.246 426.939 395.398 424C390.58 421.03 386.837 416.636 384.17 410.818C381.534 405 380.216 397.818 380.216 389.273V382.364C380.216 366.394 383.064 354.379 388.761 346.318C394.458 338.258 402.973 334.121 414.307 333.909C417.973 333.818 421.246 333.803 424.125 333.864C427.004 333.894 429.519 333.758 431.67 333.455C433.852 333.121 435.67 332.364 437.125 331.182ZM412.489 417C416.277 417 419.534 416.045 422.261 414.136C425.019 412.197 427.14 409.455 428.625 405.909C430.11 402.364 430.852 398.182 430.852 393.364C430.852 388.636 430.11 384.621 428.625 381.318C427.14 378.015 425.019 375.5 422.261 373.773C419.504 372.015 416.201 371.136 412.352 371.136C409.504 371.136 406.958 371.636 404.716 372.636C402.473 373.606 400.549 375.045 398.943 376.955C397.367 378.864 396.14 381.197 395.261 383.955C394.413 386.682 393.958 389.818 393.898 393.364C393.898 400.576 395.549 406.318 398.852 410.591C402.186 414.864 406.731 417 412.489 417ZM489.17 428.409C482.625 428.409 476.913 426.909 472.034 423.909C467.155 420.909 463.367 416.712 460.67 411.318C457.973 405.924 456.625 399.621 456.625 392.409C456.625 385.167 457.973 378.833 460.67 373.409C463.367 367.985 467.155 363.773 472.034 360.773C476.913 357.773 482.625 356.273 489.17 356.273C495.716 356.273 501.428 357.773 506.307 360.773C511.186 363.773 514.973 367.985 517.67 373.409C520.367 378.833 521.716 385.167 521.716 392.409C521.716 399.621 520.367 405.924 517.67 411.318C514.973 416.712 511.186 420.909 506.307 423.909C501.428 426.909 495.716 428.409 489.17 428.409ZM489.216 417C493.458 417 496.973 415.879 499.761 413.636C502.549 411.394 504.61 408.409 505.943 404.682C507.307 400.955 507.989 396.848 507.989 392.364C507.989 387.909 507.307 383.818 505.943 380.091C504.61 376.333 502.549 373.318 499.761 371.045C496.973 368.773 493.458 367.636 489.216 367.636C484.943 367.636 481.398 368.773 478.58 371.045C475.792 373.318 473.716 376.333 472.352 380.091C471.019 383.818 470.352 387.909 470.352 392.364C470.352 396.848 471.019 400.955 472.352 404.682C473.716 408.409 475.792 411.394 478.58 413.636C481.398 415.879 484.943 417 489.216 417ZM536.886 453.182V357.182H550.159V368.5H551.295C552.083 367.045 553.22 365.364 554.705 363.455C556.189 361.545 558.25 359.879 560.886 358.455C563.523 357 567.008 356.273 571.341 356.273C576.977 356.273 582.008 357.697 586.432 360.545C590.856 363.394 594.326 367.5 596.841 372.864C599.386 378.227 600.659 384.682 600.659 392.227C600.659 399.773 599.402 406.242 596.886 411.636C594.371 417 590.917 421.136 586.523 424.045C582.129 426.924 577.114 428.364 571.477 428.364C567.235 428.364 563.765 427.652 561.068 426.227C558.402 424.803 556.311 423.136 554.795 421.227C553.28 419.318 552.114 417.621 551.295 416.136H550.477V453.182H536.886ZM550.205 392.091C550.205 397 550.917 401.303 552.341 405C553.765 408.697 555.826 411.591 558.523 413.682C561.22 415.742 564.523 416.773 568.432 416.773C572.492 416.773 575.886 415.697 578.614 413.545C581.341 411.364 583.402 408.409 584.795 404.682C586.22 400.955 586.932 396.758 586.932 392.091C586.932 387.485 586.235 383.348 584.841 379.682C583.477 376.015 581.417 373.121 578.659 371C575.932 368.879 572.523 367.818 568.432 367.818C564.492 367.818 561.159 368.833 558.432 370.864C555.735 372.894 553.689 375.727 552.295 379.364C550.902 383 550.205 387.242 550.205 392.091ZM636.205 428.545C631.78 428.545 627.78 427.727 624.205 426.091C620.629 424.424 617.795 422.015 615.705 418.864C613.644 415.712 612.614 411.848 612.614 407.273C612.614 403.333 613.371 400.091 614.886 397.545C616.402 395 618.447 392.985 621.023 391.5C623.598 390.015 626.477 388.894 629.659 388.136C632.841 387.379 636.083 386.803 639.386 386.409C643.568 385.924 646.962 385.53 649.568 385.227C652.174 384.894 654.068 384.364 655.25 383.636C656.432 382.909 657.023 381.727 657.023 380.091V379.773C657.023 375.803 655.902 372.727 653.659 370.545C651.447 368.364 648.144 367.273 643.75 367.273C639.174 367.273 635.568 368.288 632.932 370.318C630.326 372.318 628.523 374.545 627.523 377L614.75 374.091C616.265 369.848 618.477 366.424 621.386 363.818C624.326 361.182 627.705 359.273 631.523 358.091C635.341 356.879 639.356 356.273 643.568 356.273C646.356 356.273 649.311 356.606 652.432 357.273C655.583 357.909 658.523 359.091 661.25 360.818C664.008 362.545 666.265 365.015 668.023 368.227C669.78 371.409 670.659 375.545 670.659 380.636V427H657.386V417.455H656.841C655.962 419.212 654.644 420.939 652.886 422.636C651.129 424.333 648.871 425.742 646.114 426.864C643.356 427.985 640.053 428.545 636.205 428.545ZM639.159 417.636C642.917 417.636 646.129 416.894 648.795 415.409C651.492 413.924 653.538 411.985 654.932 409.591C656.356 407.167 657.068 404.576 657.068 401.818V392.818C656.583 393.303 655.644 393.758 654.25 394.182C652.886 394.576 651.326 394.924 649.568 395.227C647.811 395.5 646.098 395.758 644.432 396C642.765 396.212 641.371 396.394 640.25 396.545C637.614 396.879 635.205 397.439 633.023 398.227C630.871 399.015 629.144 400.152 627.841 401.636C626.568 403.091 625.932 405.03 625.932 407.455C625.932 410.818 627.174 413.364 629.659 415.091C632.144 416.788 635.311 417.636 639.159 417.636ZM680.102 368.909V357.182H739.011V368.909H716.239V427H702.966V368.909H680.102ZM779.545 428.409C773 428.409 767.288 426.909 762.409 423.909C757.53 420.909 753.742 416.712 751.045 411.318C748.348 405.924 747 399.621 747 392.409C747 385.167 748.348 378.833 751.045 373.409C753.742 367.985 757.53 363.773 762.409 360.773C767.288 357.773 773 356.273 779.545 356.273C786.091 356.273 791.803 357.773 796.682 360.773C801.561 363.773 805.348 367.985 808.045 373.409C810.742 378.833 812.091 385.167 812.091 392.409C812.091 399.621 810.742 405.924 808.045 411.318C805.348 416.712 801.561 420.909 796.682 423.909C791.803 426.909 786.091 428.409 779.545 428.409ZM779.591 417C783.833 417 787.348 415.879 790.136 413.636C792.924 411.394 794.985 408.409 796.318 404.682C797.682 400.955 798.364 396.848 798.364 392.364C798.364 387.909 797.682 383.818 796.318 380.091C794.985 376.333 792.924 373.318 790.136 371.045C787.348 368.773 783.833 367.636 779.591 367.636C775.318 367.636 771.773 368.773 768.955 371.045C766.167 373.318 764.091 376.333 762.727 380.091C761.394 383.818 760.727 387.909 760.727 392.364C760.727 396.848 761.394 400.955 762.727 404.682C764.091 408.409 766.167 411.394 768.955 413.636C771.773 415.879 775.318 417 779.591 417ZM827.261 453.182V357.182H840.534V368.5H841.67C842.458 367.045 843.595 365.364 845.08 363.455C846.564 361.545 848.625 359.879 851.261 358.455C853.898 357 857.383 356.273 861.716 356.273C867.352 356.273 872.383 357.697 876.807 360.545C881.231 363.394 884.701 367.5 887.216 372.864C889.761 378.227 891.034 384.682 891.034 392.227C891.034 399.773 889.777 406.242 887.261 411.636C884.746 417 881.292 421.136 876.898 424.045C872.504 426.924 867.489 428.364 861.852 428.364C857.61 428.364 854.14 427.652 851.443 426.227C848.777 424.803 846.686 423.136 845.17 421.227C843.655 419.318 842.489 417.621 841.67 416.136H840.852V453.182H827.261ZM840.58 392.091C840.58 397 841.292 401.303 842.716 405C844.14 408.697 846.201 411.591 848.898 413.682C851.595 415.742 854.898 416.773 858.807 416.773C862.867 416.773 866.261 415.697 868.989 413.545C871.716 411.364 873.777 408.409 875.17 404.682C876.595 400.955 877.307 396.758 877.307 392.091C877.307 387.485 876.61 383.348 875.216 379.682C873.852 376.015 871.792 373.121 869.034 371C866.307 368.879 862.898 367.818 858.807 367.818C854.867 367.818 851.534 368.833 848.807 370.864C846.11 372.894 844.064 375.727 842.67 379.364C841.277 383 840.58 387.242 840.58 392.091ZM919.58 407.955L950.352 357.182H964.989V427H951.67V376.182L921.034 427H906.261V357.182H919.58V407.955ZM992.216 427.864C989.731 427.864 987.595 426.985 985.807 425.227C984.019 423.439 983.125 421.288 983.125 418.773C983.125 416.288 984.019 414.167 985.807 412.409C987.595 410.621 989.731 409.727 992.216 409.727C994.701 409.727 996.837 410.621 998.625 412.409C1000.41 414.167 1001.31 416.288 1001.31 418.773C1001.31 420.439 1000.88 421.97 1000.03 423.364C999.216 424.727 998.125 425.818 996.761 426.636C995.398 427.455 993.883 427.864 992.216 427.864ZM992.216 377.045C989.731 377.045 987.595 376.152 985.807 374.364C984.019 372.576 983.125 370.439 983.125 367.955C983.125 365.47 984.019 363.348 985.807 361.591C987.595 359.803 989.731 358.909 992.216 358.909C994.701 358.909 996.837 359.803 998.625 361.591C1000.41 363.348 1001.31 365.47 1001.31 367.955C1001.31 369.621 1000.88 371.152 1000.03 372.545C999.216 373.909 998.125 375 996.761 375.818C995.398 376.636 993.883 377.045 992.216 377.045Z" fill="black"/>
<rect x="1046" y="316" width="271" height="267" rx="33" fill="#D9D9D9" stroke="#373737" stroke-width="16"/>
<path d="M1170.22 501.541C1165.38 501.541 1161.02 500.679 1157.15 498.956C1153.3 497.199 1150.25 494.614 1148 491.2C1145.78 487.786 1144.67 483.577 1144.67 478.572C1144.67 474.264 1145.46 470.701 1147.05 467.884C1148.64 465.066 1150.82 462.812 1153.57 461.122C1156.32 459.432 1159.42 458.156 1162.86 457.294C1166.34 456.399 1169.94 455.753 1173.65 455.355C1178.13 454.891 1181.76 454.477 1184.54 454.112C1187.32 453.714 1189.35 453.118 1190.61 452.322C1191.9 451.494 1192.54 450.218 1192.54 448.494V448.196C1192.54 444.451 1191.43 441.551 1189.21 439.496C1186.99 437.441 1183.79 436.413 1179.62 436.413C1175.21 436.413 1171.71 437.375 1169.13 439.297C1166.58 441.219 1164.85 443.49 1163.96 446.108L1147.15 443.722C1148.48 439.081 1150.67 435.204 1153.72 432.088C1156.77 428.939 1160.49 426.586 1164.9 425.028C1169.31 423.438 1174.18 422.642 1179.52 422.642C1183.2 422.642 1186.86 423.073 1190.51 423.935C1194.15 424.796 1197.48 426.222 1200.5 428.21C1203.51 430.166 1205.93 432.834 1207.76 436.214C1209.61 439.595 1210.54 443.821 1210.54 448.892V500H1193.24V489.51H1192.64C1191.55 491.631 1190.01 493.62 1188.02 495.476C1186.06 497.299 1183.6 498.774 1180.61 499.901C1177.66 500.994 1174.2 501.541 1170.22 501.541ZM1174.89 488.317C1178.51 488.317 1181.64 487.604 1184.29 486.179C1186.94 484.721 1188.98 482.798 1190.41 480.412C1191.86 478.026 1192.59 475.424 1192.59 472.607V463.608C1192.03 464.072 1191.07 464.503 1189.71 464.901C1188.38 465.298 1186.89 465.646 1185.24 465.945C1183.58 466.243 1181.94 466.508 1180.31 466.74C1178.69 466.972 1177.28 467.171 1176.09 467.337C1173.4 467.701 1171 468.298 1168.88 469.126C1166.76 469.955 1165.08 471.115 1163.86 472.607C1162.63 474.065 1162.02 475.954 1162.02 478.274C1162.02 481.589 1163.23 484.091 1165.65 485.781C1168.07 487.472 1171.15 488.317 1174.89 488.317Z" fill="#222222"/>
<rect x="1694" y="316" width="271" height="267" rx="33" fill="#D9D9D9" stroke="#373737" stroke-width="16"/>
<path d="M1824.59 501.342C1818.59 501.342 1813.22 499.801 1808.48 496.719C1803.74 493.636 1799.99 489.162 1797.24 483.295C1794.49 477.429 1793.12 470.303 1793.12 461.918C1793.12 453.433 1794.51 446.274 1797.29 440.44C1800.11 434.574 1803.9 430.149 1808.68 427.166C1813.45 424.15 1818.77 422.642 1824.63 422.642C1829.11 422.642 1832.79 423.404 1835.67 424.929C1838.56 426.42 1840.84 428.227 1842.53 430.348C1844.22 432.436 1845.53 434.408 1846.46 436.264H1847.21V398.182H1865.25V500H1847.55V487.969H1846.46C1845.53 489.825 1844.19 491.797 1842.43 493.885C1840.68 495.94 1838.36 497.696 1835.47 499.155C1832.59 500.613 1828.96 501.342 1824.59 501.342ZM1829.61 486.577C1833.42 486.577 1836.67 485.549 1839.35 483.494C1842.04 481.406 1844.07 478.506 1845.47 474.794C1846.86 471.082 1847.55 466.757 1847.55 461.818C1847.55 456.88 1846.86 452.588 1845.47 448.942C1844.11 445.296 1842.09 442.462 1839.4 440.44C1836.75 438.419 1833.48 437.408 1829.61 437.408C1825.6 437.408 1822.25 438.452 1819.56 440.54C1816.88 442.628 1814.86 445.511 1813.5 449.19C1812.14 452.869 1811.46 457.079 1811.46 461.818C1811.46 466.591 1812.14 470.85 1813.5 474.595C1814.89 478.307 1816.93 481.241 1819.61 483.395C1822.33 485.516 1825.66 486.577 1829.61 486.577Z" fill="#222222"/>
<rect x="1370" y="316" width="271" height="267" rx="33" fill="#D9D9D9" stroke="#373737" stroke-width="16"/>
<path d="M1532.6 443.821L1516.2 445.611C1515.73 443.954 1514.92 442.396 1513.76 440.938C1512.63 439.479 1511.11 438.303 1509.19 437.408C1507.26 436.513 1504.91 436.065 1502.13 436.065C1498.38 436.065 1495.23 436.877 1492.68 438.501C1490.16 440.125 1488.92 442.23 1488.95 444.815C1488.92 447.036 1489.73 448.842 1491.39 450.234C1493.08 451.626 1495.86 452.77 1499.74 453.665L1512.77 456.449C1519.99 458.007 1525.36 460.476 1528.87 463.857C1532.42 467.237 1534.21 471.662 1534.24 477.131C1534.21 481.937 1532.8 486.179 1530.02 489.858C1527.27 493.504 1523.44 496.354 1518.53 498.409C1513.63 500.464 1507.99 501.491 1501.63 501.491C1492.28 501.491 1484.76 499.536 1479.06 495.625C1473.36 491.681 1469.96 486.196 1468.87 479.169L1486.42 477.479C1487.21 480.926 1488.9 483.527 1491.49 485.284C1494.07 487.041 1497.44 487.919 1501.58 487.919C1505.86 487.919 1509.29 487.041 1511.87 485.284C1514.49 483.527 1515.8 481.357 1515.8 478.771C1515.8 476.584 1514.95 474.777 1513.26 473.352C1511.61 471.927 1509.02 470.833 1505.51 470.071L1492.48 467.337C1485.16 465.812 1479.74 463.243 1476.22 459.631C1472.71 455.985 1470.97 451.378 1471 445.81C1470.97 441.103 1472.25 437.027 1474.83 433.58C1477.45 430.099 1481.08 427.415 1485.72 425.526C1490.39 423.603 1495.78 422.642 1501.88 422.642C1510.83 422.642 1517.87 424.548 1523.01 428.359C1528.18 432.171 1531.38 437.325 1532.6 443.821Z" fill="#222222"/>
<rect x="1370" y="12" width="271" height="267" rx="33" fill="#D9D9D9" stroke="#373737" stroke-width="16"/>
<path d="M1472.01 202L1450.43 125.636H1468.78L1482.2 179.33H1482.89L1496.62 125.636H1514.76L1528.48 179.031H1529.23L1542.45 125.636H1560.85L1539.22 202H1520.48L1506.16 150.395H1505.12L1490.8 202H1472.01Z" fill="#222222"/>
</svg>
