<svg width="46" height="96" viewBox="0 0 46 96" fill="none" xmlns="http://www.w3.org/2000/svg">
<path d="M43.8988 18.2955V32.216H-0.000355043V18.2955H43.8988ZM10.8377 8.72612e-05H28.8349V71.6904C28.8349 74.1099 29.1995 75.966 29.9286 77.2586C30.6909 78.5181 31.6853 79.3798 32.9116 79.8438C34.1379 80.3079 35.4968 80.5399 36.9883 80.5399C38.1152 80.5399 39.1426 80.457 40.0707 80.2913C41.0318 80.1256 41.761 79.9764 42.2582 79.8438L45.2908 93.9134C44.3297 94.2449 42.9542 94.6095 41.1644 95.0072C39.4078 95.4049 37.2534 95.6369 34.7014 95.7032C30.1938 95.8358 26.1336 95.1563 22.521 93.6649C18.9083 92.1402 16.0413 89.787 13.9201 86.6052C11.832 83.4234 10.8046 79.4461 10.8377 74.6734V8.72612e-05Z" fill="#222222"/>
</svg>
