<svg xmlns="http://www.w3.org/2000/svg" width="560" height="136" viewBox="0 0 560 136" fill="none">
<defs>
  <linearGradient id="waterGrad" x1="0" y1="0" x2="1" y2="1">
    <stop offset="0%" stop-color="#ffffff"/>
    <stop offset="48%" stop-color="#73d8ff"/>
    <stop offset="100%" stop-color="#19aee7"/>
  </linearGradient>
  <linearGradient id="waterLine" x1="0" y1="0" x2="1" y2="0">
    <stop offset="0%" stop-color="#73d8ff"/>
    <stop offset="58%" stop-color="#19aee7"/>
    <stop offset="100%" stop-color="#0b6f9f"/>
  </linearGradient>
  <filter id="shadowSoft" x="-18%" y="-22%" width="136%" height="148%">
    <feDropShadow dx="0" dy="10" stdDeviation="14" flood-color="#75aec8" flood-opacity="0.22"/>
  </filter>
  <filter id="shadowTight" x="-18%" y="-28%" width="136%" height="156%">
    <feDropShadow dx="0" dy="4" stdDeviation="6" flood-color="#75aec8" flood-opacity="0.20"/>
  </filter>
  
</defs>
<clipPath id="clipButton"><rect x="8" y="8" width="544" height="120" rx="60"/></clipPath>
<rect x="8" y="8" width="544" height="120" rx="60" fill="#ffffff" stroke="#94d4ee" stroke-width="2.5" filter="url(#shadowTight)"/>
<g clip-path="url(#clipButton)">
  <path d="M -28 72 Q 1 60 30 72 Q 59 84 88 72 Q 117 60 146 72 Q 175 84 204 72 Q 233 60 262 72 Q 291 84 320 72 Q 349 60 378 72 Q 407 84 436 72 Q 465 60 494 72 Q 523 84 552 72 Q 581 60 588 72 L 588 136 L -28 136 Z" fill="url(#waterGrad)" opacity="0.96"/>
  <path d="M -20 88 Q 12 80 44 88 Q 76 96 108 88 Q 140 80 172 88 Q 204 96 236 88 Q 268 80 300 88 Q 332 96 364 88 Q 396 80 428 88 Q 460 96 492 88 Q 524 80 556 88 Q 580 96 580 88 L 580 136 L -20 136 Z" fill="#19aee7" opacity="0.22"/>
  <path d="M 16 72 Q 45 60 74 72 Q 103 84 132 72 Q 161 60 190 72 Q 219 84 248 72 Q 277 60 306 72 Q 335 84 364 72 Q 393 60 422 72 Q 451 84 480 72 Q 509 60 538 72 Q 548 84 548 72" stroke="#ffffff" stroke-width="6" stroke-linecap="round" fill="none" opacity="0.62"/>
  <path d="M 20 82 Q 49 75 78 82 Q 107 89 136 82 Q 165 75 194 82 Q 223 89 252 82 Q 281 75 310 82 Q 339 89 368 82 Q 397 75 426 82 Q 455 89 484 82 Q 513 75 540 82" stroke="#0b6f9f" stroke-width="2.5" stroke-linecap="round" fill="none" opacity="0.20"/>
</g>
</svg>
